SplineFontDB: 3.0
FontName: IcoMoon-Free
FullName: IcoMoon-Free
FamilyName: IcoMoon-Free
Weight: Book
Copyright: Copyright (c) 2015 IcoMoon.io. All Rights Reserved.
Version: 1.1
ItalicAngle: 0
UnderlinePosition: 0
UnderlineWidth: 0
Ascent: 960
Descent: 64
InvalidEm: 0
sfntRevision: 0x0001199a
LayerCount: 2
Layer: 0 1 "Back" 1
Layer: 1 1 "Fore" 0
XUID: [1021 382 -438724172 16450]
StyleMap: 0x0040
FSType: 0
OS2Version: 3
OS2_WeightWidthSlopeOnly: 0
OS2_UseTypoMetrics: 0
CreationTime: 1449359150
ModificationTime: 1501250775
PfmFamily: 81
TTFWeight: 400
TTFWidth: 5
LineGap: 0
VLineGap: 0
Panose: 0 0 0 0 0 0 0 0 0 0
OS2TypoAscent: 960
OS2TypoAOffset: 0
OS2TypoDescent: -64
OS2TypoDOffset: 0
OS2TypoLinegap: 64
OS2WinAscent: 960
OS2WinAOffset: 0
OS2WinDescent: 64
OS2WinDOffset: 0
HheadAscent: 960
HheadAOffset: 0
HheadDescent: -64
HheadDOffset: 0
OS2SubXSize: 665
OS2SubYSize: 716
OS2SubXOff: 0
OS2SubYOff: 143
OS2SupXSize: 665
OS2SupYSize: 716
OS2SupXOff: 0
OS2SupYOff: 491
OS2StrikeYSize: 51
OS2StrikeYPos: 265
OS2CapHeight: 832
OS2XHeight: 632
OS2CodePages: 00000001.00000000
OS2UnicodeRanges: 00000003.10000000.00000000.00000000
Lookup: 4 0 1 "'liga' Ligaduras est+AOEA-ndar in Latin lookup 0" { "'liga' Ligaduras est+AOEA-ndar in Latin lookup 0 subtable"  } [' RQD' ('latn' <'dflt' > ) 'liga' ('latn' <'dflt' > ) ]
DEI: 91125
ShortTable: maxp 16
  1
  0
  591
  1159
  60
  0
  0
  2
  0
  0
  0
  0
  0
  0
  0
  0
EndShort
LangName: 1033 "Copyright +AKkA 2015 IcoMoon.io. All Rights Reserved." "" "Regular" "IcoMoon-Free" "" "Version 1.1" "" "" "" "" "Designed by Keyamoon (http://keyamoon.com).+AAoA-Font generated by IcoMoon." "https://icomoon.io" "" "GPL (http://www.gnu.org/licenses/gpl.html) or CC BY 4.0 (http://creativecommons.org/licenses/by/4.0/)"
GaspTable: 1 65535 15 1
Encoding: UnicodeBmp
UnicodeInterp: none
NameList: AGL For New Fonts
DisplaySize: -72
AntiAlias: 1
FitToEm: 0
WinInfo: 75 25 10
BeginChars: 65536 660

StartChar: glyph1
Encoding: 0 -1 1
AltUni2: 000000.ffffffff.0
Width: 0
Flags: W
LayerCount: 2
Fore
SplineSet
0 0 m 1,0,-1
 0 0 l 1,1,-1
 0 0 l 1,2,-1
 0 0 l 1,0,-1
EndSplineSet
EndChar

StartChar: uni0001
Encoding: 1 1 2
Width: 0
Flags: W
LayerCount: 2
Fore
SplineSet
0 0 m 1,0,-1
 0 0 l 1,1,-1
 0 0 l 1,2,-1
 0 0 l 1,0,-1
EndSplineSet
EndChar

StartChar: space
Encoding: 32 32 3
Width: 512
Flags: W
LayerCount: 2
Fore
SplineSet
0 0 m 1,0,-1
 0 0 l 1,1,-1
 0 0 l 1,2,-1
 0 0 l 1,0,-1
EndSplineSet
EndChar

StartChar: exclam
Encoding: 33 33 4
Width: 192
Flags: W
LayerCount: 2
Fore
SplineSet
96 128 m 1,0,1
 83 128 83 128 73.5 137.5 c 128,-1,2
 64 147 64 147 64 160 c 2,3,-1
 64 224 l 2,4,5
 64 237 64 237 73.5 246.5 c 128,-1,6
 83 256 83 256 96 256 c 256,7,8
 109 256 109 256 118.5 246.5 c 128,-1,9
 128 237 128 237 128 224 c 2,10,-1
 128 160 l 2,11,12
 128 147 128 147 118.5 137.5 c 128,-1,13
 109 128 109 128 96 128 c 1,14,-1
 96 128 l 1,0,1
96 352 m 1,15,16
 83 352 83 352 73.5 361.5 c 128,-1,17
 64 371 64 371 64 384 c 2,18,-1
 64 800 l 2,19,20
 64 813 64 813 73.5 822.5 c 128,-1,21
 83 832 83 832 96 832 c 256,22,23
 109 832 109 832 118.5 822.5 c 128,-1,24
 128 813 128 813 128 800 c 2,25,-1
 128 384 l 2,26,27
 128 371 128 371 118.5 361.5 c 128,-1,28
 109 352 109 352 96 352 c 1,29,-1
 96 352 l 1,15,16
EndSplineSet
EndChar

StartChar: quotedbl
Encoding: 34 34 5
Width: 320
Flags: W
LayerCount: 2
Fore
SplineSet
96 640 m 1,0,1
 83 640 83 640 73.5 649.5 c 128,-1,2
 64 659 64 659 64 672 c 2,3,-1
 64 864 l 2,4,5
 64 877 64 877 73.5 886.5 c 128,-1,6
 83 896 83 896 96 896 c 256,7,8
 109 896 109 896 118.5 886.5 c 128,-1,9
 128 877 128 877 128 864 c 2,10,-1
 128 672 l 2,11,12
 128 659 128 659 118.5 649.5 c 128,-1,13
 109 640 109 640 96 640 c 1,14,-1
 96 640 l 1,0,1
224 640 m 1,15,16
 211 640 211 640 201.5 649.5 c 128,-1,17
 192 659 192 659 192 672 c 2,18,-1
 192 864 l 2,19,20
 192 877 192 877 201.5 886.5 c 128,-1,21
 211 896 211 896 224 896 c 256,22,23
 237 896 237 896 246.5 886.5 c 128,-1,24
 256 877 256 877 256 864 c 2,25,-1
 256 672 l 2,26,27
 256 659 256 659 246.5 649.5 c 128,-1,28
 237 640 237 640 224 640 c 1,29,-1
 224 640 l 1,15,16
EndSplineSet
EndChar

StartChar: numbersign
Encoding: 35 35 6
Width: 832
Flags: W
LayerCount: 2
Fore
SplineSet
736 640 m 1,0,-1
 609 640 l 1,1,-1
 639 794 l 2,2,3
 642 807 642 807 634.5 818 c 128,-1,4
 627 829 627 829 614 831 c 0,5,6
 601 834 601 834 590 826.5 c 128,-1,7
 579 819 579 819 577 806 c 2,8,-1
 543 640 l 1,9,-1
 353 640 l 1,10,-1
 383 794 l 2,11,12
 386 807 386 807 378.5 818 c 128,-1,13
 371 829 371 829 358 831 c 0,14,15
 345 834 345 834 334 826.5 c 128,-1,16
 323 819 323 819 321 806 c 2,17,-1
 287 640 l 1,18,-1
 160 640 l 2,19,20
 147 640 147 640 137.5 630.5 c 128,-1,21
 128 621 128 621 128 608 c 256,22,23
 128 595 128 595 137.5 585.5 c 128,-1,24
 147 576 147 576 160 576 c 2,25,-1
 275 576 l 1,26,-1
 236 384 l 1,27,-1
 96 384 l 2,28,29
 83 384 83 384 73.5 374.5 c 128,-1,30
 64 365 64 365 64 352 c 256,31,32
 64 339 64 339 73.5 329.5 c 128,-1,33
 83 320 83 320 96 320 c 2,34,-1
 223 320 l 1,35,-1
 193 166 l 2,36,37
 190 153 190 153 197.5 142 c 128,-1,38
 205 131 205 131 218 129 c 0,39,40
 219 128 219 128 220.5 128 c 128,-1,41
 222 128 222 128 224 128 c 0,42,43
 235 128 235 128 244 135 c 128,-1,44
 253 142 253 142 255 154 c 2,45,-1
 289 320 l 1,46,-1
 479 320 l 1,47,-1
 449 166 l 2,48,49
 446 153 446 153 453.5 142 c 128,-1,50
 461 131 461 131 474 129 c 0,51,52
 475 128 475 128 476.5 128 c 128,-1,53
 478 128 478 128 480 128 c 0,54,55
 491 128 491 128 500 135 c 128,-1,56
 509 142 509 142 511 154 c 2,57,-1
 545 320 l 1,58,-1
 672 320 l 2,59,60
 685 320 685 320 694.5 329.5 c 128,-1,61
 704 339 704 339 704 352 c 256,62,63
 704 365 704 365 694.5 374.5 c 128,-1,64
 685 384 685 384 672 384 c 2,65,-1
 557 384 l 1,66,-1
 596 576 l 1,67,-1
 736 576 l 2,68,69
 749 576 749 576 758.5 585.5 c 128,-1,70
 768 595 768 595 768 608 c 256,71,72
 768 621 768 621 758.5 630.5 c 128,-1,73
 749 640 749 640 736 640 c 1,74,-1
 736 640 l 1,0,-1
492 384 m 1,75,-1
 301 384 l 1,76,-1
 340 576 l 1,77,-1
 531 576 l 1,78,-1
 492 384 l 1,79,-1
 492 384 l 1,75,-1
EndSplineSet
EndChar

StartChar: dollar
Encoding: 36 36 7
Width: 704
Flags: W
LayerCount: 2
Fore
SplineSet
542 453 m 1,0,1
 509 469 509 469 468 481.5 c 128,-1,2
 427 494 427 494 384 505 c 1,3,-1
 384 767 l 1,4,5
 430 764 430 764 466.5 755.5 c 128,-1,6
 503 747 503 747 527 739 c 0,7,8
 557 728 557 728 573.5 718.5 c 128,-1,9
 590 709 590 709 590 709 c 2,10,11
 601 702 601 702 614 704.5 c 128,-1,12
 627 707 627 707 635 718 c 0,13,14
 642 729 642 729 639.5 742 c 128,-1,15
 637 755 637 755 626 763 c 0,16,17
 623 765 623 765 559 795 c 128,-1,18
 495 825 495 825 384 831 c 1,19,-1
 384 864 l 2,20,21
 384 877 384 877 374.5 886.5 c 128,-1,22
 365 896 365 896 352 896 c 256,23,24
 339 896 339 896 329.5 886.5 c 128,-1,25
 320 877 320 877 320 864 c 2,26,-1
 320 831 l 1,27,28
 252 828 252 828 201.5 812.5 c 128,-1,29
 151 797 151 797 119 768 c 0,30,31
 91 744 91 744 77.5 711.5 c 128,-1,32
 64 679 64 679 64 640 c 0,33,34
 64 598 64 598 88.5 565 c 128,-1,35
 113 532 113 532 162 507 c 0,36,37
 195 491 195 491 236 478.5 c 128,-1,38
 277 466 277 466 320 455 c 1,39,-1
 320 193 l 1,40,41
 274 196 274 196 237.5 204.5 c 128,-1,42
 201 213 201 213 177 221 c 0,43,44
 147 232 147 232 130.5 241 c 128,-1,45
 114 250 114 250 114 251 c 0,46,47
 103 258 103 258 90 255.5 c 128,-1,48
 77 253 77 253 69 242 c 0,49,50
 62 231 62 231 64.5 218 c 128,-1,51
 67 205 67 205 78 197 c 0,52,53
 81 195 81 195 145 165 c 128,-1,54
 209 135 209 135 320 129 c 1,55,-1
 320 96 l 2,56,57
 320 83 320 83 329.5 73.5 c 128,-1,58
 339 64 339 64 352 64 c 256,59,60
 365 64 365 64 374.5 73.5 c 128,-1,61
 384 83 384 83 384 96 c 2,62,-1
 384 129 l 1,63,64
 452 132 452 132 502.5 147.5 c 128,-1,65
 553 163 553 163 585 192 c 0,66,67
 613 216 613 216 626.5 248.5 c 128,-1,68
 640 281 640 281 640 320 c 0,69,70
 640 362 640 362 615.5 395 c 128,-1,71
 591 428 591 428 542 453 c 1,72,-1
 542 453 l 1,0,1
190 565 m 1,73,74
 169 575 169 575 148.5 593 c 128,-1,75
 128 611 128 611 128 640 c 0,76,77
 128 665 128 665 136 685 c 128,-1,78
 144 705 144 705 161 720 c 0,79,80
 185 741 185 741 224.5 753 c 128,-1,81
 264 765 264 765 320 767 c 1,82,-1
 320 521 l 1,83,84
 284 530 284 530 250.5 540.5 c 128,-1,85
 217 551 217 551 190 565 c 1,86,-1
 190 565 l 1,73,74
543 240 m 1,87,88
 519 219 519 219 479.5 207 c 128,-1,89
 440 195 440 195 384 193 c 1,90,-1
 384 439 l 1,91,92
 420 430 420 430 453.5 419.5 c 128,-1,93
 487 409 487 409 514 395 c 0,94,95
 535 385 535 385 555.5 367 c 128,-1,96
 576 349 576 349 576 320 c 0,97,98
 576 295 576 295 568 275 c 128,-1,99
 560 255 560 255 543 240 c 1,100,-1
 543 240 l 1,87,88
EndSplineSet
EndChar

StartChar: percent
Encoding: 37 37 8
Width: 768
Flags: W
LayerCount: 2
Fore
SplineSet
192 512 m 1,0,1
 150 512 150 512 122 525.5 c 128,-1,2
 94 539 94 539 80 567 c 0,3,4
 68 589 68 589 66 616 c 128,-1,5
 64 643 64 643 64 672 c 256,6,7
 64 701 64 701 66 728 c 128,-1,8
 68 755 68 755 80 777 c 0,9,10
 94 805 94 805 122 818.5 c 128,-1,11
 150 832 150 832 192 832 c 256,12,13
 234 832 234 832 262 818.5 c 128,-1,14
 290 805 290 805 304 777 c 0,15,16
 316 755 316 755 318 728 c 128,-1,17
 320 701 320 701 320 672 c 256,18,19
 320 643 320 643 318 616 c 128,-1,20
 316 589 316 589 304 567 c 0,21,22
 290 539 290 539 262 525.5 c 128,-1,23
 234 512 234 512 192 512 c 1,24,-1
 192 512 l 1,0,1
192 768 m 1,25,26
 146 768 146 768 137 748.5 c 128,-1,27
 128 729 128 729 128 672 c 256,28,29
 128 615 128 615 137 595.5 c 128,-1,30
 146 576 146 576 192 576 c 256,31,32
 238 576 238 576 247 595.5 c 128,-1,33
 256 615 256 615 256 672 c 256,34,35
 256 729 256 729 247 748.5 c 128,-1,36
 238 768 238 768 192 768 c 1,37,-1
 192 768 l 1,25,26
576 128 m 1,38,39
 534 128 534 128 506 141.5 c 128,-1,40
 478 155 478 155 464 183 c 0,41,42
 452 205 452 205 450 232 c 128,-1,43
 448 259 448 259 448 288 c 256,44,45
 448 317 448 317 450 344 c 128,-1,46
 452 371 452 371 464 393 c 0,47,48
 478 421 478 421 506 434.5 c 128,-1,49
 534 448 534 448 576 448 c 256,50,51
 618 448 618 448 646 434.5 c 128,-1,52
 674 421 674 421 688 393 c 0,53,54
 700 371 700 371 702 344 c 128,-1,55
 704 317 704 317 704 288 c 256,56,57
 704 259 704 259 702 232 c 128,-1,58
 700 205 700 205 688 183 c 0,59,60
 674 155 674 155 646 141.5 c 128,-1,61
 618 128 618 128 576 128 c 1,62,-1
 576 128 l 1,38,39
576 384 m 1,63,64
 530 384 530 384 521 364.5 c 128,-1,65
 512 345 512 345 512 288 c 256,66,67
 512 231 512 231 521 211.5 c 128,-1,68
 530 192 530 192 576 192 c 256,69,70
 622 192 622 192 631 211.5 c 128,-1,71
 640 231 640 231 640 288 c 256,72,73
 640 345 640 345 631 364.5 c 128,-1,74
 622 384 622 384 576 384 c 1,75,-1
 576 384 l 1,63,64
160 128 m 1,76,77
 155 128 155 128 150.5 129.5 c 128,-1,78
 146 131 146 131 142 134 c 0,79,80
 131 141 131 141 128.5 154 c 128,-1,81
 126 167 126 167 134 178 c 2,82,-1
 582 818 l 2,83,84
 589 829 589 829 602 831.5 c 128,-1,85
 615 834 615 834 626 826 c 0,86,87
 637 819 637 819 639.5 806 c 128,-1,88
 642 793 642 793 634 782 c 2,89,-1
 186 142 l 2,90,91
 182 135 182 135 175 131.5 c 128,-1,92
 168 128 168 128 160 128 c 1,93,-1
 160 128 l 1,76,77
EndSplineSet
EndChar

StartChar: ampersand
Encoding: 38 38 9
Width: 640
Flags: W
LayerCount: 2
Fore
SplineSet
544 448 m 1,0,-1
 352 448 l 2,1,2
 339 448 339 448 329.5 438.5 c 128,-1,3
 320 429 320 429 320 416 c 256,4,5
 320 403 320 403 329.5 393.5 c 128,-1,6
 339 384 339 384 352 384 c 2,7,-1
 448 384 l 1,8,-1
 448 352 l 2,9,10
 448 304 448 304 441.5 275 c 128,-1,11
 435 246 435 246 420 229 c 0,12,13
 403 210 403 210 371 201 c 128,-1,14
 339 192 339 192 288 192 c 256,15,16
 237 192 237 192 205 201 c 128,-1,17
 173 210 173 210 156 229 c 0,18,19
 141 246 141 246 134.5 275 c 128,-1,20
 128 304 128 304 128 352 c 256,21,22
 128 400 128 400 134.5 429 c 128,-1,23
 141 458 141 458 156 475 c 0,24,25
 173 494 173 494 205 503 c 128,-1,26
 237 512 237 512 288 512 c 0,27,28
 301 512 301 512 310.5 521.5 c 128,-1,29
 320 531 320 531 320 544 c 256,30,31
 320 557 320 557 310.5 566.5 c 128,-1,32
 301 576 301 576 288 576 c 0,33,34
 258 576 258 576 239 580.5 c 128,-1,35
 220 585 220 585 211 595 c 0,36,37
 201 604 201 604 196.5 623 c 128,-1,38
 192 642 192 642 192 672 c 256,39,40
 192 702 192 702 196.5 721 c 128,-1,41
 201 740 201 740 211 749 c 0,42,43
 220 759 220 759 239 763.5 c 128,-1,44
 258 768 258 768 288 768 c 256,45,46
 318 768 318 768 337 763.5 c 128,-1,47
 356 759 356 759 365 749 c 0,48,49
 375 740 375 740 379.5 721 c 128,-1,50
 384 702 384 702 384 672 c 0,51,52
 384 659 384 659 393.5 649.5 c 128,-1,53
 403 640 403 640 416 640 c 256,54,55
 429 640 429 640 438.5 649.5 c 128,-1,56
 448 659 448 659 448 672 c 0,57,58
 448 716 448 716 439 745.5 c 128,-1,59
 430 775 430 775 411 795 c 0,60,61
 391 814 391 814 361.5 823 c 128,-1,62
 332 832 332 832 288 832 c 256,63,64
 244 832 244 832 214.5 823 c 128,-1,65
 185 814 185 814 165 795 c 0,66,67
 146 775 146 775 137 745.5 c 128,-1,68
 128 716 128 716 128 672 c 0,69,70
 128 631 128 631 136 602.5 c 128,-1,71
 144 574 144 574 160 555 c 1,72,73
 144 548 144 548 131 538.5 c 128,-1,74
 118 529 118 529 108 517 c 0,75,76
 79 484 79 484 71.5 439.5 c 128,-1,77
 64 395 64 395 64 352 c 256,78,79
 64 309 64 309 71.5 264.5 c 128,-1,80
 79 220 79 220 108 187 c 0,81,82
 134 157 134 157 178 142.5 c 128,-1,83
 222 128 222 128 288 128 c 256,84,85
 354 128 354 128 398 142.5 c 128,-1,86
 442 157 442 157 468 187 c 0,87,88
 497 220 497 220 504.5 264.5 c 128,-1,89
 512 309 512 309 512 352 c 2,90,-1
 512 384 l 1,91,-1
 544 384 l 2,92,93
 557 384 557 384 566.5 393.5 c 128,-1,94
 576 403 576 403 576 416 c 256,95,96
 576 429 576 429 566.5 438.5 c 128,-1,97
 557 448 557 448 544 448 c 1,98,-1
 544 448 l 1,0,-1
EndSplineSet
EndChar

StartChar: quotesingle
Encoding: 39 39 10
Width: 192
Flags: W
LayerCount: 2
Fore
SplineSet
96 640 m 1,0,1
 83 640 83 640 73.5 649.5 c 128,-1,2
 64 659 64 659 64 672 c 2,3,-1
 64 864 l 2,4,5
 64 877 64 877 73.5 886.5 c 128,-1,6
 83 896 83 896 96 896 c 256,7,8
 109 896 109 896 118.5 886.5 c 128,-1,9
 128 877 128 877 128 864 c 2,10,-1
 128 672 l 2,11,12
 128 659 128 659 118.5 649.5 c 128,-1,13
 109 640 109 640 96 640 c 1,14,-1
 96 640 l 1,0,1
EndSplineSet
EndChar

StartChar: parenleft
Encoding: 40 40 11
Width: 384
Flags: W
LayerCount: 2
Fore
SplineSet
288 -64 m 1,0,1
 282 -64 282 -64 276.5 -62 c 128,-1,2
 271 -60 271 -60 267 -56 c 0,3,4
 217 -13 217 -13 179 43.5 c 128,-1,5
 141 100 141 100 114 169 c 0,6,7
 90 233 90 233 77 304 c 128,-1,8
 64 375 64 375 64 448 c 256,9,10
 64 521 64 521 77 592 c 128,-1,11
 90 663 90 663 114 727 c 0,12,13
 141 796 141 796 179 852.5 c 128,-1,14
 217 909 217 909 267 952 c 0,15,16
 277 961 277 961 290 960 c 128,-1,17
 303 959 303 959 312 949 c 256,18,19
 321 939 321 939 320 926 c 128,-1,20
 319 913 319 913 309 904 c 0,21,22
 267 867 267 867 233 817 c 128,-1,23
 199 767 199 767 176 708.5 c 128,-1,24
 153 650 153 650 140.5 584 c 128,-1,25
 128 518 128 518 128 448 c 256,26,27
 128 378 128 378 140.5 312 c 128,-1,28
 153 246 153 246 176 187.5 c 128,-1,29
 199 129 199 129 233 79 c 128,-1,30
 267 29 267 29 309 -8 c 0,31,32
 319 -17 319 -17 320 -30 c 128,-1,33
 321 -43 321 -43 312 -53 c 0,34,35
 307 -58 307 -58 301 -61 c 128,-1,36
 295 -64 295 -64 288 -64 c 1,37,-1
 288 -64 l 1,0,1
EndSplineSet
EndChar

StartChar: parenright
Encoding: 41 41 12
Width: 384
Flags: W
LayerCount: 2
Fore
SplineSet
96 -64 m 1,0,1
 102 -64 102 -64 107.5 -62 c 128,-1,2
 113 -60 113 -60 117 -56 c 0,3,4
 167 -13 167 -13 205 43.5 c 128,-1,5
 243 100 243 100 270 169 c 0,6,7
 294 233 294 233 307 304 c 128,-1,8
 320 375 320 375 320 448 c 256,9,10
 320 521 320 521 307 592 c 128,-1,11
 294 663 294 663 270 727 c 0,12,13
 243 796 243 796 205 852.5 c 128,-1,14
 167 909 167 909 117 952 c 0,15,16
 107 961 107 961 94 960 c 128,-1,17
 81 959 81 959 72 949 c 256,18,19
 63 939 63 939 64 926 c 128,-1,20
 65 913 65 913 75 904 c 0,21,22
 117 867 117 867 151 817 c 128,-1,23
 185 767 185 767 208 708.5 c 128,-1,24
 231 650 231 650 243.5 584 c 128,-1,25
 256 518 256 518 256 448 c 256,26,27
 256 378 256 378 243.5 312 c 128,-1,28
 231 246 231 246 208 187.5 c 128,-1,29
 185 129 185 129 151 79 c 128,-1,30
 117 29 117 29 75 -8 c 0,31,32
 65 -17 65 -17 64 -30 c 128,-1,33
 63 -43 63 -43 72 -53 c 0,34,35
 77 -58 77 -58 83 -61 c 128,-1,36
 89 -64 89 -64 96 -64 c 1,37,-1
 96 -64 l 1,0,1
EndSplineSet
EndChar

StartChar: asterisk
Encoding: 42 42 13
Width: 576
Flags: W
LayerCount: 2
Fore
SplineSet
498 571 m 1,0,-1
 346 672 l 1,1,-1
 498 773 l 2,2,3
 509 781 509 781 511.5 794 c 128,-1,4
 514 807 514 807 507 818 c 0,5,6
 499 829 499 829 486 831.5 c 128,-1,7
 473 834 473 834 462 827 c 2,8,-1
 320 732 l 1,9,-1
 320 864 l 2,10,11
 320 877 320 877 310.5 886.5 c 128,-1,12
 301 896 301 896 288 896 c 256,13,14
 275 896 275 896 265.5 886.5 c 128,-1,15
 256 877 256 877 256 864 c 2,16,-1
 256 732 l 1,17,-1
 114 827 l 2,18,19
 103 834 103 834 90 831.5 c 128,-1,20
 77 829 77 829 69 818 c 0,21,22
 62 807 62 807 64.5 794 c 128,-1,23
 67 781 67 781 78 773 c 2,24,-1
 230 672 l 1,25,-1
 78 571 l 2,26,27
 67 563 67 563 64.5 550 c 128,-1,28
 62 537 62 537 69 526 c 0,29,30
 74 519 74 519 81 515.5 c 128,-1,31
 88 512 88 512 96 512 c 0,32,33
 101 512 101 512 105.5 513.5 c 128,-1,34
 110 515 110 515 114 517 c 2,35,-1
 256 612 l 1,36,-1
 256 480 l 2,37,38
 256 467 256 467 265.5 457.5 c 128,-1,39
 275 448 275 448 288 448 c 256,40,41
 301 448 301 448 310.5 457.5 c 128,-1,42
 320 467 320 467 320 480 c 2,43,-1
 320 612 l 1,44,-1
 462 517 l 2,45,46
 466 515 466 515 470.5 513.5 c 128,-1,47
 475 512 475 512 480 512 c 0,48,49
 488 512 488 512 495 515.5 c 128,-1,50
 502 519 502 519 507 526 c 0,51,52
 514 537 514 537 511.5 550 c 128,-1,53
 509 563 509 563 498 571 c 1,54,-1
 498 571 l 1,0,-1
EndSplineSet
EndChar

StartChar: plus
Encoding: 43 43 14
Width: 576
Flags: W
LayerCount: 2
Fore
SplineSet
480 448 m 1,0,-1
 320 448 l 1,1,-1
 320 608 l 2,2,3
 320 621 320 621 310.5 630.5 c 128,-1,4
 301 640 301 640 288 640 c 256,5,6
 275 640 275 640 265.5 630.5 c 128,-1,7
 256 621 256 621 256 608 c 2,8,-1
 256 448 l 1,9,-1
 96 448 l 2,10,11
 83 448 83 448 73.5 438.5 c 128,-1,12
 64 429 64 429 64 416 c 256,13,14
 64 403 64 403 73.5 393.5 c 128,-1,15
 83 384 83 384 96 384 c 2,16,-1
 256 384 l 1,17,-1
 256 224 l 2,18,19
 256 211 256 211 265.5 201.5 c 128,-1,20
 275 192 275 192 288 192 c 256,21,22
 301 192 301 192 310.5 201.5 c 128,-1,23
 320 211 320 211 320 224 c 2,24,-1
 320 384 l 1,25,-1
 480 384 l 2,26,27
 493 384 493 384 502.5 393.5 c 128,-1,28
 512 403 512 403 512 416 c 256,29,30
 512 429 512 429 502.5 438.5 c 128,-1,31
 493 448 493 448 480 448 c 1,32,-1
 480 448 l 1,0,-1
EndSplineSet
EndChar

StartChar: comma
Encoding: 44 44 15
Width: 256
Flags: W
LayerCount: 2
Fore
SplineSet
192 224 m 1,0,1
 192 237 192 237 182.5 246.5 c 128,-1,2
 173 256 173 256 160 256 c 2,3,-1
 96 256 l 2,4,5
 83 256 83 256 73.5 246.5 c 128,-1,6
 64 237 64 237 64 224 c 256,7,8
 64 211 64 211 73.5 201.5 c 128,-1,9
 83 192 83 192 96 192 c 2,10,-1
 127 192 l 1,11,12
 120 124 120 124 97.5 90 c 128,-1,13
 75 56 75 56 73 54 c 2,14,-1
 73 55 l 1,15,16
 69 50 69 50 66.5 44.5 c 128,-1,17
 64 39 64 39 64 32 c 0,18,19
 64 19 64 19 73.5 9.5 c 128,-1,20
 83 0 83 0 96 0 c 0,21,22
 103 0 103 0 108.5 2.5 c 128,-1,23
 114 5 114 5 119 9 c 0,24,25
 121 12 121 12 156.5 65.5 c 128,-1,26
 192 119 192 119 192 224 c 1,27,-1
 192 224 l 1,0,1
EndSplineSet
EndChar

StartChar: hyphen
Encoding: 45 45 16
Width: 448
Flags: W
LayerCount: 2
Fore
SplineSet
352 448 m 1,0,-1
 96 448 l 2,1,2
 83 448 83 448 73.5 438.5 c 128,-1,3
 64 429 64 429 64 416 c 256,4,5
 64 403 64 403 73.5 393.5 c 128,-1,6
 83 384 83 384 96 384 c 2,7,-1
 352 384 l 2,8,9
 365 384 365 384 374.5 393.5 c 128,-1,10
 384 403 384 403 384 416 c 256,11,12
 384 429 384 429 374.5 438.5 c 128,-1,13
 365 448 365 448 352 448 c 1,14,-1
 352 448 l 1,0,-1
EndSplineSet
EndChar

StartChar: period
Encoding: 46 46 17
Width: 192
Flags: W
LayerCount: 2
Fore
SplineSet
96 128 m 1,0,1
 83 128 83 128 73.5 137.5 c 128,-1,2
 64 147 64 147 64 160 c 2,3,-1
 64 224 l 2,4,5
 64 237 64 237 73.5 246.5 c 128,-1,6
 83 256 83 256 96 256 c 256,7,8
 109 256 109 256 118.5 246.5 c 128,-1,9
 128 237 128 237 128 224 c 2,10,-1
 128 160 l 2,11,12
 128 147 128 147 118.5 137.5 c 128,-1,13
 109 128 109 128 96 128 c 1,14,-1
 96 128 l 1,0,1
EndSplineSet
EndChar

StartChar: slash
Encoding: 47 47 18
Width: 576
Flags: W
LayerCount: 2
Fore
SplineSet
96 -64 m 1,0,1
 93 -64 93 -64 90 -63.5 c 128,-1,2
 87 -63 87 -63 84 -62 c 0,3,4
 72 -57 72 -57 66.5 -44.5 c 128,-1,5
 61 -32 61 -32 66 -20 c 2,6,-1
 450 940 l 2,7,8
 455 952 455 952 467.5 957.5 c 128,-1,9
 480 963 480 963 492 958 c 256,10,11
 504 953 504 953 509.5 940.5 c 128,-1,12
 515 928 515 928 510 916 c 2,13,-1
 126 -44 l 2,14,15
 122 -53 122 -53 114 -58.5 c 128,-1,16
 106 -64 106 -64 96 -64 c 1,17,-1
 96 -64 l 1,0,1
EndSplineSet
EndChar

StartChar: zero
Encoding: 48 48 19
Width: 640
Flags: W
LayerCount: 2
Fore
SplineSet
320 128 m 1,0,1
 243 128 243 128 190.5 154 c 128,-1,2
 138 180 138 180 108 232 c 0,3,4
 79 283 79 283 71.5 350 c 128,-1,5
 64 417 64 417 64 480 c 0,6,7
 64 593 64 593 78 646 c 128,-1,8
 92 699 92 699 108 728 c 0,9,10
 138 780 138 780 190.5 806 c 128,-1,11
 243 832 243 832 320 832 c 256,12,13
 397 832 397 832 449.5 806 c 128,-1,14
 502 780 502 780 532 728 c 0,15,16
 561 677 561 677 568.5 610 c 128,-1,17
 576 543 576 543 576 480 c 0,18,19
 576 367 576 367 562 314 c 128,-1,20
 548 261 548 261 532 232 c 0,21,22
 502 180 502 180 449.5 154 c 128,-1,23
 397 128 397 128 320 128 c 1,24,-1
 320 128 l 1,0,1
320 768 m 1,25,26
 243 768 243 768 210 743.5 c 128,-1,27
 177 719 177 719 164 696 c 0,28,29
 145 663 145 663 136.5 612 c 128,-1,30
 128 561 128 561 128 480 c 256,31,32
 128 399 128 399 136.5 348 c 128,-1,33
 145 297 145 297 164 264 c 0,34,35
 177 241 177 241 210 216.5 c 128,-1,36
 243 192 243 192 320 192 c 256,37,38
 397 192 397 192 430 216.5 c 128,-1,39
 463 241 463 241 476 264 c 0,40,41
 495 297 495 297 503.5 348 c 128,-1,42
 512 399 512 399 512 480 c 256,43,44
 512 561 512 561 503.5 612 c 128,-1,45
 495 663 495 663 476 696 c 0,46,47
 463 719 463 719 430 743.5 c 128,-1,48
 397 768 397 768 320 768 c 1,49,-1
 320 768 l 1,25,26
EndSplineSet
EndChar

StartChar: one
Encoding: 49 49 20
Width: 320
Flags: W
LayerCount: 2
Fore
SplineSet
224 128 m 1,0,1
 211 128 211 128 201.5 137.5 c 128,-1,2
 192 147 192 147 192 160 c 2,3,-1
 192 723 l 1,4,-1
 119 649 l 2,5,6
 109 640 109 640 96 640 c 128,-1,7
 83 640 83 640 73 649 c 0,8,9
 64 659 64 659 64 672 c 128,-1,10
 64 685 64 685 73 695 c 2,11,-1
 201 823 l 2,12,13
 208 829 208 829 217.5 831 c 128,-1,14
 227 833 227 833 236 830 c 0,15,16
 245 826 245 826 250.5 818 c 128,-1,17
 256 810 256 810 256 800 c 2,18,-1
 256 160 l 2,19,20
 256 147 256 147 246.5 137.5 c 128,-1,21
 237 128 237 128 224 128 c 1,22,-1
 224 128 l 1,0,1
EndSplineSet
EndChar

StartChar: two
Encoding: 50 50 21
Width: 640
Flags: W
LayerCount: 2
Fore
SplineSet
544 128 m 1,0,-1
 96 128 l 2,1,2
 83 128 83 128 73.5 137.5 c 128,-1,3
 64 147 64 147 64 160 c 0,4,5
 64 233 64 233 88 289 c 128,-1,6
 112 345 112 345 160 385 c 0,7,8
 201 419 201 419 251 439 c 128,-1,9
 301 459 301 459 347 475 c 0,10,11
 426 502 426 502 469 527.5 c 128,-1,12
 512 553 512 553 512 608 c 0,13,14
 512 656 512 656 505 684.5 c 128,-1,15
 498 713 498 713 481 729 c 0,16,17
 462 749 462 749 422.5 758.5 c 128,-1,18
 383 768 383 768 320 768 c 256,19,20
 257 768 257 768 217.5 758.5 c 128,-1,21
 178 749 178 749 159 729 c 0,22,23
 142 713 142 713 135 684.5 c 128,-1,24
 128 656 128 656 128 608 c 0,25,26
 128 595 128 595 118.5 585.5 c 128,-1,27
 109 576 109 576 96 576 c 256,28,29
 83 576 83 576 73.5 585.5 c 128,-1,30
 64 595 64 595 64 608 c 0,31,32
 64 654 64 654 72.5 698 c 128,-1,33
 81 742 81 742 113 775 c 0,34,35
 143 804 143 804 193 818 c 128,-1,36
 243 832 243 832 320 832 c 256,37,38
 397 832 397 832 447 818 c 128,-1,39
 497 804 497 804 527 775 c 0,40,41
 559 742 559 742 567.5 698 c 128,-1,42
 576 654 576 654 576 608 c 0,43,44
 576 566 576 566 558.5 533 c 128,-1,45
 541 500 541 500 506 476 c 0,46,47
 477 456 477 456 442 442 c 128,-1,48
 407 428 407 428 368 415 c 0,49,50
 323 399 323 399 279 381.5 c 128,-1,51
 235 364 235 364 201 336 c 0,52,53
 169 309 169 309 151.5 273.5 c 128,-1,54
 134 238 134 238 129 192 c 1,55,-1
 544 192 l 2,56,57
 557 192 557 192 566.5 182.5 c 128,-1,58
 576 173 576 173 576 160 c 256,59,60
 576 147 576 147 566.5 137.5 c 128,-1,61
 557 128 557 128 544 128 c 1,62,-1
 544 128 l 1,0,-1
EndSplineSet
EndChar

StartChar: three
Encoding: 51 51 22
Width: 640
Flags: W
LayerCount: 2
Fore
SplineSet
525 460 m 1,0,1
 519 466 519 466 511.5 471 c 128,-1,2
 504 476 504 476 496 480 c 1,3,4
 504 484 504 484 511.5 489 c 128,-1,5
 519 494 519 494 525 500 c 0,6,7
 559 530 559 530 567.5 568.5 c 128,-1,8
 576 607 576 607 576 640 c 256,9,10
 576 673 576 673 567.5 711.5 c 128,-1,11
 559 750 559 750 525 780 c 0,12,13
 495 807 495 807 445 819.5 c 128,-1,14
 395 832 395 832 320 832 c 0,15,16
 254 832 254 832 207.5 822 c 128,-1,17
 161 812 161 812 130 792 c 0,18,19
 102 773 102 773 86 744 c 128,-1,20
 70 715 70 715 66 675 c 0,21,22
 64 662 64 662 72.5 652 c 128,-1,23
 81 642 81 642 94 640 c 0,24,25
 107 639 107 639 117.5 647.5 c 128,-1,26
 128 656 128 656 129 669 c 0,27,28
 132 698 132 698 158.5 733 c 128,-1,29
 185 768 185 768 320 768 c 0,30,31
 381 768 381 768 421.5 759 c 128,-1,32
 462 750 462 750 483 732 c 0,33,34
 498 718 498 718 505 696.5 c 128,-1,35
 512 675 512 675 512 640 c 256,36,37
 512 605 512 605 505 583.5 c 128,-1,38
 498 562 498 562 483 548 c 0,39,40
 462 530 462 530 422 521 c 128,-1,41
 382 512 382 512 320 512 c 2,42,-1
 288 512 l 2,43,44
 275 512 275 512 265.5 502.5 c 128,-1,45
 256 493 256 493 256 480 c 256,46,47
 256 467 256 467 265.5 457.5 c 128,-1,48
 275 448 275 448 288 448 c 2,49,-1
 320 448 l 1,50,51
 320 448 320 448 320 448 c 129,-1,52
 320 448 320 448 320 448 c 1,53,54
 381 448 381 448 421.5 439 c 128,-1,55
 462 430 462 430 483 412 c 0,56,57
 498 398 498 398 505 376.5 c 128,-1,58
 512 355 512 355 512 320 c 256,59,60
 512 285 512 285 505 263.5 c 128,-1,61
 498 242 498 242 483 228 c 0,62,63
 462 210 462 210 421.5 201 c 128,-1,64
 381 192 381 192 320 192 c 0,65,66
 196 192 196 192 165 222 c 128,-1,67
 134 252 134 252 130 289 c 0,68,69
 128 302 128 302 117.5 310.5 c 128,-1,70
 107 319 107 319 94 317 c 0,71,72
 81 316 81 316 72.5 305.5 c 128,-1,73
 64 295 64 295 66 282 c 0,74,75
 70 243 70 243 86.5 214.5 c 128,-1,76
 103 186 103 186 132 167 c 0,77,78
 162 147 162 147 208 137.5 c 128,-1,79
 254 128 254 128 320 128 c 0,80,81
 395 128 395 128 445 140.5 c 128,-1,82
 495 153 495 153 525 180 c 0,83,84
 559 210 559 210 567.5 248.5 c 128,-1,85
 576 287 576 287 576 320 c 256,86,87
 576 353 576 353 567.5 391.5 c 128,-1,88
 559 430 559 430 525 460 c 1,89,-1
 525 460 l 1,0,1
EndSplineSet
EndChar

StartChar: four
Encoding: 52 52 23
Width: 640
Flags: W
LayerCount: 2
Fore
SplineSet
416 128 m 1,0,1
 403 128 403 128 393.5 137.5 c 128,-1,2
 384 147 384 147 384 160 c 2,3,-1
 384 320 l 1,4,-1
 96 320 l 2,5,6
 87 320 87 320 79.5 324.5 c 128,-1,7
 72 329 72 329 68 337 c 0,8,9
 63 345 63 345 64 354 c 128,-1,10
 65 363 65 363 70 371 c 2,11,-1
 390 819 l 2,12,13
 396 827 396 827 406 830.5 c 128,-1,14
 416 834 416 834 426 830 c 0,15,16
 436 827 436 827 442 818.5 c 128,-1,17
 448 810 448 810 448 800 c 2,18,-1
 448 384 l 1,19,-1
 544 384 l 2,20,21
 557 384 557 384 566.5 374.5 c 128,-1,22
 576 365 576 365 576 352 c 256,23,24
 576 339 576 339 566.5 329.5 c 128,-1,25
 557 320 557 320 544 320 c 2,26,-1
 448 320 l 1,27,-1
 448 160 l 2,28,29
 448 147 448 147 438.5 137.5 c 128,-1,30
 429 128 429 128 416 128 c 1,31,-1
 416 128 l 1,0,1
158 384 m 1,32,-1
 384 384 l 1,33,-1
 384 700 l 1,34,-1
 158 384 l 1,35,-1
 158 384 l 1,32,-1
EndSplineSet
EndChar

StartChar: five
Encoding: 53 53 24
Width: 640
Flags: W
LayerCount: 2
Fore
SplineSet
320 128 m 1,0,1
 275 128 275 128 239 132.5 c 128,-1,2
 203 137 203 137 175 147 c 0,3,4
 147 156 147 156 126.5 171 c 128,-1,5
 106 186 106 186 92 206 c 0,6,7
 84 217 84 217 86.5 230 c 128,-1,8
 89 243 89 243 100 251 c 0,9,10
 111 258 111 258 124 255.5 c 128,-1,11
 137 253 137 253 145 242 c 0,12,13
 151 233 151 233 182.5 212.5 c 128,-1,14
 214 192 214 192 320 192 c 0,15,16
 381 192 381 192 421.5 201 c 128,-1,17
 462 210 462 210 483 228 c 0,18,19
 498 242 498 242 505 263.5 c 128,-1,20
 512 285 512 285 512 320 c 256,21,22
 512 355 512 355 505 376.5 c 128,-1,23
 498 398 498 398 483 412 c 0,24,25
 462 430 462 430 421.5 439 c 128,-1,26
 381 448 381 448 320 448 c 2,27,-1
 160 448 l 2,28,29
 153 448 153 448 147 450.5 c 128,-1,30
 141 453 141 453 136 459 c 0,31,32
 132 464 132 464 129.5 470 c 128,-1,33
 127 476 127 476 128 483 c 2,34,-1
 160 803 l 2,35,36
 161 815 161 815 170.5 823.5 c 128,-1,37
 180 832 180 832 192 832 c 2,38,-1
 544 832 l 2,39,40
 557 832 557 832 566.5 822.5 c 128,-1,41
 576 813 576 813 576 800 c 256,42,43
 576 787 576 787 566.5 777.5 c 128,-1,44
 557 768 557 768 544 768 c 2,45,-1
 221 768 l 1,46,-1
 195 512 l 1,47,-1
 320 512 l 2,48,49
 395 512 395 512 445 499.5 c 128,-1,50
 495 487 495 487 525 460 c 0,51,52
 559 430 559 430 567.5 391.5 c 128,-1,53
 576 353 576 353 576 320 c 256,54,55
 576 287 576 287 567.5 248.5 c 128,-1,56
 559 210 559 210 525 180 c 0,57,58
 495 153 495 153 445 140.5 c 128,-1,59
 395 128 395 128 320 128 c 1,60,-1
 320 128 l 1,0,1
EndSplineSet
EndChar

StartChar: six
Encoding: 54 54 25
Width: 640
Flags: W
LayerCount: 2
Fore
SplineSet
115 180 m 1,0,1
 145 153 145 153 195 140.5 c 128,-1,2
 245 128 245 128 320 128 c 256,3,4
 395 128 395 128 445 140.5 c 128,-1,5
 495 153 495 153 525 180 c 0,6,7
 559 210 559 210 567.5 248.5 c 128,-1,8
 576 287 576 287 576 320 c 256,9,10
 576 353 576 353 567.5 391.5 c 128,-1,11
 559 430 559 430 525 460 c 0,12,13
 495 487 495 487 445 499.5 c 128,-1,14
 395 512 395 512 320 512 c 0,15,16
 253 512 253 512 206 502 c 128,-1,17
 159 492 159 492 128 470 c 1,18,-1
 128 640 l 2,19,20
 128 675 128 675 135 696.5 c 128,-1,21
 142 718 142 718 157 732 c 0,22,23
 178 750 178 750 218.5 759 c 128,-1,24
 259 768 259 768 320 768 c 0,25,26
 455 768 455 768 481.5 733 c 128,-1,27
 508 698 508 698 511 669 c 0,28,29
 512 656 512 656 522.5 647.5 c 128,-1,30
 533 639 533 639 546 640 c 0,31,32
 559 642 559 642 567.5 652 c 128,-1,33
 576 662 576 662 574 675 c 0,34,35
 570 715 570 715 554 744 c 128,-1,36
 538 773 538 773 510 792 c 0,37,38
 479 812 479 812 432.5 822 c 128,-1,39
 386 832 386 832 320 832 c 0,40,41
 245 832 245 832 195 819.5 c 128,-1,42
 145 807 145 807 115 780 c 0,43,44
 81 750 81 750 72.5 711.5 c 128,-1,45
 64 673 64 673 64 640 c 2,46,-1
 64 320 l 2,47,48
 64 287 64 287 72.5 248.5 c 128,-1,49
 81 210 81 210 115 180 c 1,50,-1
 115 180 l 1,0,1
157 412 m 1,51,52
 178 430 178 430 218.5 439 c 128,-1,53
 259 448 259 448 320 448 c 256,54,55
 381 448 381 448 421.5 439 c 128,-1,56
 462 430 462 430 483 412 c 0,57,58
 498 398 498 398 505 376.5 c 128,-1,59
 512 355 512 355 512 320 c 256,60,61
 512 285 512 285 505 263.5 c 128,-1,62
 498 242 498 242 483 228 c 0,63,64
 462 210 462 210 421.5 201 c 128,-1,65
 381 192 381 192 320 192 c 256,66,67
 259 192 259 192 218.5 201 c 128,-1,68
 178 210 178 210 157 228 c 0,69,70
 142 242 142 242 135 263.5 c 128,-1,71
 128 285 128 285 128 320 c 256,72,73
 128 355 128 355 135 376.5 c 128,-1,74
 142 398 142 398 157 412 c 1,75,-1
 157 412 l 1,51,52
EndSplineSet
EndChar

StartChar: seven
Encoding: 55 55 26
Width: 640
Flags: W
LayerCount: 2
Fore
SplineSet
224 128 m 1,0,1
 220 128 220 128 216.5 129 c 128,-1,2
 213 130 213 130 210 131 c 0,3,4
 198 137 198 137 193.5 149.5 c 128,-1,5
 189 162 189 162 195 174 c 2,6,-1
 492 768 l 1,7,-1
 96 768 l 2,8,9
 83 768 83 768 73.5 777.5 c 128,-1,10
 64 787 64 787 64 800 c 256,11,12
 64 813 64 813 73.5 822.5 c 128,-1,13
 83 832 83 832 96 832 c 2,14,-1
 544 832 l 2,15,16
 552 832 552 832 559.5 828 c 128,-1,17
 567 824 567 824 571 817 c 0,18,19
 576 810 576 810 576 801.5 c 128,-1,20
 576 793 576 793 573 786 c 2,21,-1
 253 146 l 2,22,23
 248 137 248 137 240.5 132.5 c 128,-1,24
 233 128 233 128 224 128 c 1,25,-1
 224 128 l 1,0,1
EndSplineSet
EndChar

StartChar: eight
Encoding: 56 56 27
Width: 640
Flags: W
LayerCount: 2
Fore
SplineSet
525 460 m 1,0,1
 519 466 519 466 511.5 471 c 128,-1,2
 504 476 504 476 496 480 c 1,3,4
 504 484 504 484 511.5 489 c 128,-1,5
 519 494 519 494 525 500 c 0,6,7
 559 530 559 530 567.5 568.5 c 128,-1,8
 576 607 576 607 576 640 c 256,9,10
 576 673 576 673 567.5 711.5 c 128,-1,11
 559 750 559 750 525 780 c 0,12,13
 495 807 495 807 445 819.5 c 128,-1,14
 395 832 395 832 320 832 c 256,15,16
 245 832 245 832 195 819.5 c 128,-1,17
 145 807 145 807 115 780 c 0,18,19
 81 750 81 750 72.5 711.5 c 128,-1,20
 64 673 64 673 64 640 c 256,21,22
 64 607 64 607 72.5 568.5 c 128,-1,23
 81 530 81 530 115 500 c 0,24,25
 121 494 121 494 128.5 489 c 128,-1,26
 136 484 136 484 144 480 c 1,27,28
 136 476 136 476 128.5 471 c 128,-1,29
 121 466 121 466 115 460 c 0,30,31
 81 430 81 430 72.5 391.5 c 128,-1,32
 64 353 64 353 64 320 c 256,33,34
 64 287 64 287 72.5 248.5 c 128,-1,35
 81 210 81 210 115 180 c 0,36,37
 145 153 145 153 195 140.5 c 128,-1,38
 245 128 245 128 320 128 c 256,39,40
 395 128 395 128 445 140.5 c 128,-1,41
 495 153 495 153 525 180 c 0,42,43
 559 210 559 210 567.5 248.5 c 128,-1,44
 576 287 576 287 576 320 c 256,45,46
 576 353 576 353 567.5 391.5 c 128,-1,47
 559 430 559 430 525 460 c 1,48,-1
 525 460 l 1,0,1
157 732 m 1,49,50
 178 750 178 750 218.5 759 c 128,-1,51
 259 768 259 768 320 768 c 256,52,53
 381 768 381 768 421.5 759 c 128,-1,54
 462 750 462 750 483 732 c 0,55,56
 498 718 498 718 505 696.5 c 128,-1,57
 512 675 512 675 512 640 c 256,58,59
 512 605 512 605 505 583.5 c 128,-1,60
 498 562 498 562 483 548 c 0,61,62
 462 530 462 530 421.5 521 c 128,-1,63
 381 512 381 512 320 512 c 256,64,65
 259 512 259 512 218.5 521 c 128,-1,66
 178 530 178 530 157 548 c 0,67,68
 142 562 142 562 135 583.5 c 128,-1,69
 128 605 128 605 128 640 c 256,70,71
 128 675 128 675 135 696.5 c 128,-1,72
 142 718 142 718 157 732 c 1,73,-1
 157 732 l 1,49,50
483 228 m 1,74,75
 462 210 462 210 421.5 201 c 128,-1,76
 381 192 381 192 320 192 c 256,77,78
 259 192 259 192 218.5 201 c 128,-1,79
 178 210 178 210 157 228 c 0,80,81
 142 242 142 242 135 263.5 c 128,-1,82
 128 285 128 285 128 320 c 256,83,84
 128 355 128 355 135 376.5 c 128,-1,85
 142 398 142 398 157 412 c 0,86,87
 178 430 178 430 218.5 439 c 128,-1,88
 259 448 259 448 320 448 c 256,89,90
 381 448 381 448 421.5 439 c 128,-1,91
 462 430 462 430 483 412 c 0,92,93
 498 398 498 398 505 376.5 c 128,-1,94
 512 355 512 355 512 320 c 256,95,96
 512 285 512 285 505 263.5 c 128,-1,97
 498 242 498 242 483 228 c 1,98,-1
 483 228 l 1,74,75
EndSplineSet
EndChar

StartChar: nine
Encoding: 57 57 28
Width: 640
Flags: W
LayerCount: 2
Fore
SplineSet
525 780 m 1,0,1
 495 807 495 807 445 819.5 c 128,-1,2
 395 832 395 832 320 832 c 256,3,4
 245 832 245 832 195 819.5 c 128,-1,5
 145 807 145 807 115 780 c 0,6,7
 81 750 81 750 72.5 711.5 c 128,-1,8
 64 673 64 673 64 640 c 256,9,10
 64 607 64 607 72.5 568.5 c 128,-1,11
 81 530 81 530 115 500 c 0,12,13
 145 473 145 473 195 460.5 c 128,-1,14
 245 448 245 448 320 448 c 0,15,16
 387 448 387 448 434 458 c 128,-1,17
 481 468 481 468 512 490 c 1,18,-1
 512 320 l 2,19,20
 512 285 512 285 505 263.5 c 128,-1,21
 498 242 498 242 483 228 c 0,22,23
 462 210 462 210 421.5 201 c 128,-1,24
 381 192 381 192 320 192 c 0,25,26
 185 192 185 192 158.5 227 c 128,-1,27
 132 262 132 262 129 291 c 0,28,29
 128 304 128 304 117.5 312.5 c 128,-1,30
 107 321 107 321 94 320 c 0,31,32
 81 318 81 318 72.5 308 c 128,-1,33
 64 298 64 298 66 285 c 0,34,35
 70 245 70 245 86 216 c 128,-1,36
 102 187 102 187 130 168 c 0,37,38
 161 148 161 148 207.5 138 c 128,-1,39
 254 128 254 128 320 128 c 0,40,41
 395 128 395 128 445 140.5 c 128,-1,42
 495 153 495 153 525 180 c 0,43,44
 559 210 559 210 567.5 248.5 c 128,-1,45
 576 287 576 287 576 320 c 2,46,-1
 576 640 l 2,47,48
 576 673 576 673 567.5 711.5 c 128,-1,49
 559 750 559 750 525 780 c 1,50,-1
 525 780 l 1,0,1
483 548 m 1,51,52
 462 530 462 530 421.5 521 c 128,-1,53
 381 512 381 512 320 512 c 256,54,55
 259 512 259 512 218.5 521 c 128,-1,56
 178 530 178 530 157 548 c 0,57,58
 142 562 142 562 135 583.5 c 128,-1,59
 128 605 128 605 128 640 c 256,60,61
 128 675 128 675 135 696.5 c 128,-1,62
 142 718 142 718 157 732 c 0,63,64
 178 750 178 750 218.5 759 c 128,-1,65
 259 768 259 768 320 768 c 256,66,67
 381 768 381 768 421.5 759 c 128,-1,68
 462 750 462 750 483 732 c 0,69,70
 498 718 498 718 505 696.5 c 128,-1,71
 512 675 512 675 512 640 c 256,72,73
 512 605 512 605 505 583.5 c 128,-1,74
 498 562 498 562 483 548 c 1,75,-1
 483 548 l 1,51,52
EndSplineSet
EndChar

StartChar: colon
Encoding: 58 58 29
Width: 192
Flags: W
LayerCount: 2
Fore
SplineSet
96 128 m 1,0,1
 83 128 83 128 73.5 137.5 c 128,-1,2
 64 147 64 147 64 160 c 2,3,-1
 64 224 l 2,4,5
 64 237 64 237 73.5 246.5 c 128,-1,6
 83 256 83 256 96 256 c 256,7,8
 109 256 109 256 118.5 246.5 c 128,-1,9
 128 237 128 237 128 224 c 2,10,-1
 128 160 l 2,11,12
 128 147 128 147 118.5 137.5 c 128,-1,13
 109 128 109 128 96 128 c 1,14,-1
 96 128 l 1,0,1
96 512 m 1,15,16
 83 512 83 512 73.5 521.5 c 128,-1,17
 64 531 64 531 64 544 c 2,18,-1
 64 608 l 2,19,20
 64 621 64 621 73.5 630.5 c 128,-1,21
 83 640 83 640 96 640 c 256,22,23
 109 640 109 640 118.5 630.5 c 128,-1,24
 128 621 128 621 128 608 c 2,25,-1
 128 544 l 2,26,27
 128 531 128 531 118.5 521.5 c 128,-1,28
 109 512 109 512 96 512 c 1,29,-1
 96 512 l 1,15,16
EndSplineSet
EndChar

StartChar: semicolon
Encoding: 59 59 30
Width: 256
Flags: W
LayerCount: 2
Fore
SplineSet
192 224 m 1,0,1
 192 237 192 237 182.5 246.5 c 128,-1,2
 173 256 173 256 160 256 c 2,3,-1
 96 256 l 2,4,5
 83 256 83 256 73.5 246.5 c 128,-1,6
 64 237 64 237 64 224 c 256,7,8
 64 211 64 211 73.5 201.5 c 128,-1,9
 83 192 83 192 96 192 c 2,10,-1
 127 192 l 1,11,12
 120 124 120 124 97.5 90 c 128,-1,13
 75 56 75 56 73 54 c 2,14,-1
 73 55 l 1,15,16
 69 50 69 50 66.5 44.5 c 128,-1,17
 64 39 64 39 64 32 c 0,18,19
 64 19 64 19 73.5 9.5 c 128,-1,20
 83 0 83 0 96 0 c 0,21,22
 103 0 103 0 108.5 2.5 c 128,-1,23
 114 5 114 5 119 9 c 0,24,25
 121 12 121 12 156.5 65.5 c 128,-1,26
 192 119 192 119 192 224 c 1,27,-1
 192 224 l 1,0,1
160 512 m 1,28,29
 147 512 147 512 137.5 521.5 c 128,-1,30
 128 531 128 531 128 544 c 2,31,-1
 128 608 l 2,32,33
 128 621 128 621 137.5 630.5 c 128,-1,34
 147 640 147 640 160 640 c 256,35,36
 173 640 173 640 182.5 630.5 c 128,-1,37
 192 621 192 621 192 608 c 2,38,-1
 192 544 l 2,39,40
 192 531 192 531 182.5 521.5 c 128,-1,41
 173 512 173 512 160 512 c 1,42,-1
 160 512 l 1,28,29
EndSplineSet
EndChar

StartChar: less
Encoding: 60 60 31
Width: 576
Flags: W
LayerCount: 2
Fore
SplineSet
480 192 m 1,0,1
 476 192 476 192 472.5 193 c 128,-1,2
 469 194 469 194 466 195 c 2,3,-1
 82 387 l 2,4,5
 74 391 74 391 69 399 c 128,-1,6
 64 407 64 407 64 416 c 256,7,8
 64 425 64 425 69 433 c 128,-1,9
 74 441 74 441 82 445 c 2,10,-1
 466 637 l 2,11,12
 478 643 478 643 490.5 638.5 c 128,-1,13
 503 634 503 634 509 622 c 256,14,15
 515 610 515 610 510.5 597.5 c 128,-1,16
 506 585 506 585 494 579 c 2,17,-1
 168 416 l 1,18,-1
 494 253 l 2,19,20
 506 247 506 247 510.5 234.5 c 128,-1,21
 515 222 515 222 509 210 c 0,22,23
 504 201 504 201 496.5 196.5 c 128,-1,24
 489 192 489 192 480 192 c 1,25,-1
 480 192 l 1,0,1
EndSplineSet
EndChar

StartChar: equal
Encoding: 61 61 32
Width: 576
Flags: W
LayerCount: 2
Fore
SplineSet
480 512 m 1,0,-1
 96 512 l 2,1,2
 83 512 83 512 73.5 521.5 c 128,-1,3
 64 531 64 531 64 544 c 256,4,5
 64 557 64 557 73.5 566.5 c 128,-1,6
 83 576 83 576 96 576 c 2,7,-1
 480 576 l 2,8,9
 493 576 493 576 502.5 566.5 c 128,-1,10
 512 557 512 557 512 544 c 256,11,12
 512 531 512 531 502.5 521.5 c 128,-1,13
 493 512 493 512 480 512 c 1,14,-1
 480 512 l 1,0,-1
480 256 m 1,15,-1
 96 256 l 2,16,17
 83 256 83 256 73.5 265.5 c 128,-1,18
 64 275 64 275 64 288 c 256,19,20
 64 301 64 301 73.5 310.5 c 128,-1,21
 83 320 83 320 96 320 c 2,22,-1
 480 320 l 2,23,24
 493 320 493 320 502.5 310.5 c 128,-1,25
 512 301 512 301 512 288 c 256,26,27
 512 275 512 275 502.5 265.5 c 128,-1,28
 493 256 493 256 480 256 c 1,29,-1
 480 256 l 1,15,-1
EndSplineSet
EndChar

StartChar: greater
Encoding: 62 62 33
Width: 576
Flags: W
LayerCount: 2
Fore
SplineSet
96 192 m 1,0,1
 100 192 100 192 103.5 193 c 128,-1,2
 107 194 107 194 110 195 c 2,3,-1
 494 387 l 2,4,5
 502 391 502 391 507 399 c 128,-1,6
 512 407 512 407 512 416 c 256,7,8
 512 425 512 425 507 433 c 128,-1,9
 502 441 502 441 494 445 c 2,10,-1
 110 637 l 2,11,12
 98 643 98 643 85.5 638.5 c 128,-1,13
 73 634 73 634 67 622 c 256,14,15
 61 610 61 610 65.5 597.5 c 128,-1,16
 70 585 70 585 82 579 c 2,17,-1
 408 416 l 1,18,-1
 82 253 l 2,19,20
 70 247 70 247 65.5 234.5 c 128,-1,21
 61 222 61 222 67 210 c 0,22,23
 72 201 72 201 79.5 196.5 c 128,-1,24
 87 192 87 192 96 192 c 1,25,-1
 96 192 l 1,0,1
EndSplineSet
EndChar

StartChar: question
Encoding: 63 63 34
Width: 576
Flags: W
LayerCount: 2
Fore
SplineSet
288 320 m 1,0,1
 275 320 275 320 265.5 329.5 c 128,-1,2
 256 339 256 339 256 352 c 2,3,-1
 256 416 l 2,4,5
 256 429 256 429 265.5 438.5 c 128,-1,6
 275 448 275 448 288 448 c 0,7,8
 339 448 339 448 371 457 c 128,-1,9
 403 466 403 466 420 485 c 0,10,11
 435 502 435 502 441.5 531 c 128,-1,12
 448 560 448 560 448 608 c 256,13,14
 448 656 448 656 441.5 685 c 128,-1,15
 435 714 435 714 420 731 c 0,16,17
 403 750 403 750 371 759 c 128,-1,18
 339 768 339 768 288 768 c 256,19,20
 237 768 237 768 205 759 c 128,-1,21
 173 750 173 750 156 731 c 0,22,23
 141 714 141 714 134.5 685 c 128,-1,24
 128 656 128 656 128 608 c 0,25,26
 128 595 128 595 118.5 585.5 c 128,-1,27
 109 576 109 576 96 576 c 256,28,29
 83 576 83 576 73.5 585.5 c 128,-1,30
 64 595 64 595 64 608 c 0,31,32
 64 651 64 651 71.5 695.5 c 128,-1,33
 79 740 79 740 108 773 c 0,34,35
 134 803 134 803 178 817.5 c 128,-1,36
 222 832 222 832 288 832 c 256,37,38
 354 832 354 832 398 817.5 c 128,-1,39
 442 803 442 803 468 773 c 0,40,41
 497 740 497 740 504.5 695.5 c 128,-1,42
 512 651 512 651 512 608 c 256,43,44
 512 565 512 565 504.5 520.5 c 128,-1,45
 497 476 497 476 468 443 c 0,46,47
 445 417 445 417 408.5 402.5 c 128,-1,48
 372 388 372 388 320 385 c 1,49,-1
 320 352 l 2,50,51
 320 339 320 339 310.5 329.5 c 128,-1,52
 301 320 301 320 288 320 c 1,53,-1
 288 320 l 1,0,1
288 128 m 1,54,55
 275 128 275 128 265.5 137.5 c 128,-1,56
 256 147 256 147 256 160 c 2,57,-1
 256 224 l 2,58,59
 256 237 256 237 265.5 246.5 c 128,-1,60
 275 256 275 256 288 256 c 256,61,62
 301 256 301 256 310.5 246.5 c 128,-1,63
 320 237 320 237 320 224 c 2,64,-1
 320 160 l 2,65,66
 320 147 320 147 310.5 137.5 c 128,-1,67
 301 128 301 128 288 128 c 1,68,-1
 288 128 l 1,54,55
EndSplineSet
EndChar

StartChar: at
Encoding: 64 64 35
Width: 832
Flags: W
LayerCount: 2
Fore
SplineSet
683 747 m 1,0,1
 640 790 640 790 573.5 811 c 128,-1,2
 507 832 507 832 416 832 c 256,3,4
 325 832 325 832 258.5 811 c 128,-1,5
 192 790 192 790 149 747 c 256,6,7
 106 704 106 704 85 637.5 c 128,-1,8
 64 571 64 571 64 480 c 256,9,10
 64 389 64 389 85 322.5 c 128,-1,11
 106 256 106 256 149 213 c 256,12,13
 192 170 192 170 258.5 149 c 128,-1,14
 325 128 325 128 416 128 c 0,15,16
 500 128 500 128 562.5 145.5 c 128,-1,17
 625 163 625 163 668 200 c 0,18,19
 678 208 678 208 679 221 c 128,-1,20
 680 234 680 234 671 245 c 0,21,22
 663 255 663 255 649.5 256 c 128,-1,23
 636 257 636 257 626 248 c 0,24,25
 592 220 592 220 540 206 c 128,-1,26
 488 192 488 192 416 192 c 0,27,28
 338 192 338 192 283 208.5 c 128,-1,29
 228 225 228 225 195 259 c 0,30,31
 161 292 161 292 144.5 347 c 128,-1,32
 128 402 128 402 128 480 c 256,33,34
 128 558 128 558 144.5 613 c 128,-1,35
 161 668 161 668 195 701 c 0,36,37
 228 735 228 735 283 751.5 c 128,-1,38
 338 768 338 768 416 768 c 256,39,40
 494 768 494 768 549 751.5 c 128,-1,41
 604 735 604 735 637 701 c 0,42,43
 671 668 671 668 687.5 613 c 128,-1,44
 704 558 704 558 704 480 c 2,45,-1
 704 448 l 2,46,47
 704 434 704 434 693.5 409 c 128,-1,48
 683 384 683 384 640 384 c 256,49,50
 597 384 597 384 586.5 409 c 128,-1,51
 576 434 576 434 576 448 c 2,52,-1
 576 480 l 2,53,54
 576 524 576 524 567 553.5 c 128,-1,55
 558 583 558 583 539 603 c 0,56,57
 519 622 519 622 489.5 631 c 128,-1,58
 460 640 460 640 416 640 c 256,59,60
 372 640 372 640 342.5 631 c 128,-1,61
 313 622 313 622 293 603 c 0,62,63
 274 583 274 583 265 553.5 c 128,-1,64
 256 524 256 524 256 480 c 256,65,66
 256 436 256 436 265 406.5 c 128,-1,67
 274 377 274 377 293 357 c 0,68,69
 313 338 313 338 342.5 329 c 128,-1,70
 372 320 372 320 416 320 c 256,71,72
 460 320 460 320 489.5 329 c 128,-1,73
 519 338 519 338 539 357 c 0,74,75
 540 358 540 358 540.5 359 c 128,-1,76
 541 360 541 360 542 361 c 1,77,78
 559 342 559 342 584 331 c 128,-1,79
 609 320 609 320 640 320 c 0,80,81
 697 320 697 320 732.5 355.5 c 128,-1,82
 768 391 768 391 768 448 c 2,83,-1
 768 480 l 2,84,85
 768 571 768 571 747 637.5 c 128,-1,86
 726 704 726 704 683 747 c 1,87,-1
 683 747 l 1,0,1
493 403 m 1,88,89
 484 393 484 393 465 388.5 c 128,-1,90
 446 384 446 384 416 384 c 256,91,92
 386 384 386 384 367 388.5 c 128,-1,93
 348 393 348 393 339 403 c 0,94,95
 329 412 329 412 324.5 431 c 128,-1,96
 320 450 320 450 320 480 c 256,97,98
 320 510 320 510 324.5 529 c 128,-1,99
 329 548 329 548 339 557 c 0,100,101
 348 567 348 567 367 571.5 c 128,-1,102
 386 576 386 576 416 576 c 256,103,104
 446 576 446 576 465 571.5 c 128,-1,105
 484 567 484 567 493 557 c 0,106,107
 503 548 503 548 507.5 529 c 128,-1,108
 512 510 512 510 512 480 c 256,109,110
 512 450 512 450 507.5 431 c 128,-1,111
 503 412 503 412 493 403 c 1,112,-1
 493 403 l 1,88,89
EndSplineSet
EndChar

StartChar: A
Encoding: 65 65 36
Width: 704
Flags: W
LayerCount: 2
Fore
SplineSet
638 172 m 1,0,-1
 382 812 l 2,1,2
 378 821 378 821 370 826.5 c 128,-1,3
 362 832 362 832 352 832 c 256,4,5
 342 832 342 832 334 826.5 c 128,-1,6
 326 821 326 821 322 812 c 2,7,-1
 66 172 l 2,8,9
 61 160 61 160 66.5 147.5 c 128,-1,10
 72 135 72 135 84 130 c 256,11,12
 96 125 96 125 108.5 130.5 c 128,-1,13
 121 136 121 136 126 148 c 2,14,-1
 194 320 l 1,15,-1
 510 320 l 1,16,-1
 578 148 l 2,17,18
 582 139 582 139 590 133.5 c 128,-1,19
 598 128 598 128 608 128 c 0,20,21
 611 128 611 128 614 128.5 c 128,-1,22
 617 129 617 129 620 130 c 0,23,24
 632 135 632 135 637.5 147.5 c 128,-1,25
 643 160 643 160 638 172 c 1,26,-1
 638 172 l 1,0,-1
220 384 m 1,27,-1
 352 714 l 1,28,-1
 484 384 l 1,29,-1
 220 384 l 1,30,-1
 220 384 l 1,27,-1
EndSplineSet
EndChar

StartChar: B
Encoding: 66 66 37
Width: 640
Flags: W
LayerCount: 2
Fore
SplineSet
320 128 m 1,0,-1
 96 128 l 2,1,2
 83 128 83 128 73.5 137.5 c 128,-1,3
 64 147 64 147 64 160 c 2,4,-1
 64 800 l 2,5,6
 64 813 64 813 73.5 822.5 c 128,-1,7
 83 832 83 832 96 832 c 2,8,-1
 320 832 l 2,9,10
 378 832 378 832 417.5 823 c 128,-1,11
 457 814 457 814 483 794 c 0,12,13
 514 771 514 771 529 733 c 128,-1,14
 544 695 544 695 544 640 c 0,15,16
 544 586 544 586 529.5 548.5 c 128,-1,17
 515 511 515 511 485 488 c 1,18,19
 492 485 492 485 498 481.5 c 128,-1,20
 504 478 504 478 510 475 c 0,21,22
 544 452 544 452 560 414.5 c 128,-1,23
 576 377 576 377 576 320 c 256,24,25
 576 263 576 263 560 225.5 c 128,-1,26
 544 188 544 188 510 165 c 0,27,28
 480 146 480 146 435 137 c 128,-1,29
 390 128 390 128 320 128 c 1,30,-1
 320 128 l 1,0,-1
128 192 m 1,31,-1
 320 192 l 2,32,33
 442 192 442 192 477 220.5 c 128,-1,34
 512 249 512 249 512 320 c 0,35,36
 512 348 512 348 505.5 376.5 c 128,-1,37
 499 405 499 405 474 421 c 0,38,39
 454 435 454 435 416.5 441.5 c 128,-1,40
 379 448 379 448 320 448 c 2,41,-1
 128 448 l 1,42,-1
 128 192 l 1,43,-1
 128 192 l 1,31,-1
320 512 m 1,44,45
 366 512 366 512 396.5 518.5 c 128,-1,46
 427 525 427 525 445 538 c 0,47,48
 456 546 456 546 468 567.5 c 128,-1,49
 480 589 480 589 480 640 c 256,50,51
 480 691 480 691 468 712.5 c 128,-1,52
 456 734 456 734 445 742 c 0,53,54
 427 755 427 755 396.5 761.5 c 128,-1,55
 366 768 366 768 320 768 c 2,56,-1
 128 768 l 1,57,-1
 128 512 l 1,58,-1
 320 512 l 1,59,-1
 320 512 l 1,44,45
EndSplineSet
EndChar

StartChar: C
Encoding: 67 67 38
Width: 704
Flags: W
LayerCount: 2
Fore
SplineSet
384 128 m 1,0,1
 303 128 303 128 244 149.5 c 128,-1,2
 185 171 185 171 144 214 c 0,3,4
 104 258 104 258 84 324 c 128,-1,5
 64 390 64 390 64 480 c 0,6,7
 64 576 64 576 80.5 639.5 c 128,-1,8
 97 703 97 703 132 745 c 0,9,10
 169 789 169 789 231 810.5 c 128,-1,11
 293 832 293 832 384 832 c 0,12,13
 468 832 468 832 526.5 814 c 128,-1,14
 585 796 585 796 623 759 c 0,15,16
 633 750 633 750 633 736.5 c 128,-1,17
 633 723 633 723 624 714 c 0,18,19
 614 704 614 704 601 704 c 128,-1,20
 588 704 588 704 578 713 c 0,21,22
 550 741 550 741 502.5 754.5 c 128,-1,23
 455 768 455 768 384 768 c 0,24,25
 284 768 284 768 241 746 c 128,-1,26
 198 724 198 724 180 703 c 0,27,28
 153 671 153 671 140.5 617.5 c 128,-1,29
 128 564 128 564 128 480 c 0,30,31
 128 403 128 403 143.5 347.5 c 128,-1,32
 159 292 159 292 192 258 c 0,33,34
 222 225 222 225 269.5 208.5 c 128,-1,35
 317 192 317 192 384 192 c 0,36,37
 445 192 445 192 490.5 206 c 128,-1,38
 536 220 536 220 566 248 c 0,39,40
 576 257 576 257 589.5 256 c 128,-1,41
 603 255 603 255 612 246 c 0,42,43
 620 236 620 236 619.5 222.5 c 128,-1,44
 619 209 619 209 610 200 c 0,45,46
 570 164 570 164 514 146 c 128,-1,47
 458 128 458 128 384 128 c 1,48,-1
 384 128 l 1,0,1
EndSplineSet
EndChar

StartChar: D
Encoding: 68 68 39
Width: 704
Flags: W
LayerCount: 2
Fore
SplineSet
320 128 m 1,0,-1
 96 128 l 2,1,2
 83 128 83 128 73.5 137.5 c 128,-1,3
 64 147 64 147 64 160 c 2,4,-1
 64 800 l 2,5,6
 64 813 64 813 73.5 822.5 c 128,-1,7
 83 832 83 832 96 832 c 2,8,-1
 320 832 l 2,9,10
 411 832 411 832 473 810.5 c 128,-1,11
 535 789 535 789 572 745 c 0,12,13
 607 703 607 703 623.5 639.5 c 128,-1,14
 640 576 640 576 640 480 c 0,15,16
 640 390 640 390 620 324 c 128,-1,17
 600 258 600 258 560 214 c 0,18,19
 519 171 519 171 460 149.5 c 128,-1,20
 401 128 401 128 320 128 c 1,21,-1
 320 128 l 1,0,-1
128 192 m 1,22,-1
 320 192 l 2,23,24
 387 192 387 192 434.5 208.5 c 128,-1,25
 482 225 482 225 512 258 c 0,26,27
 545 292 545 292 560.5 347.5 c 128,-1,28
 576 403 576 403 576 480 c 0,29,30
 576 564 576 564 563.5 617.5 c 128,-1,31
 551 671 551 671 524 703 c 0,32,33
 506 724 506 724 463 746 c 128,-1,34
 420 768 420 768 320 768 c 2,35,-1
 128 768 l 1,36,-1
 128 192 l 1,37,-1
 128 192 l 1,22,-1
EndSplineSet
EndChar

StartChar: E
Encoding: 69 69 40
Width: 640
Flags: W
LayerCount: 2
Fore
SplineSet
544 192 m 1,0,-1
 128 192 l 1,1,-1
 128 448 l 1,2,-1
 480 448 l 2,3,4
 493 448 493 448 502.5 457.5 c 128,-1,5
 512 467 512 467 512 480 c 256,6,7
 512 493 512 493 502.5 502.5 c 128,-1,8
 493 512 493 512 480 512 c 2,9,-1
 128 512 l 1,10,-1
 128 768 l 1,11,-1
 544 768 l 2,12,13
 557 768 557 768 566.5 777.5 c 128,-1,14
 576 787 576 787 576 800 c 256,15,16
 576 813 576 813 566.5 822.5 c 128,-1,17
 557 832 557 832 544 832 c 2,18,-1
 96 832 l 2,19,20
 83 832 83 832 73.5 822.5 c 128,-1,21
 64 813 64 813 64 800 c 2,22,-1
 64 160 l 2,23,24
 64 147 64 147 73.5 137.5 c 128,-1,25
 83 128 83 128 96 128 c 2,26,-1
 544 128 l 2,27,28
 557 128 557 128 566.5 137.5 c 128,-1,29
 576 147 576 147 576 160 c 256,30,31
 576 173 576 173 566.5 182.5 c 128,-1,32
 557 192 557 192 544 192 c 1,33,-1
 544 192 l 1,0,-1
EndSplineSet
EndChar

StartChar: F
Encoding: 70 70 41
Width: 640
Flags: W
LayerCount: 2
Fore
SplineSet
544 832 m 1,0,-1
 96 832 l 2,1,2
 83 832 83 832 73.5 822.5 c 128,-1,3
 64 813 64 813 64 800 c 2,4,-1
 64 160 l 2,5,6
 64 147 64 147 73.5 137.5 c 128,-1,7
 83 128 83 128 96 128 c 256,8,9
 109 128 109 128 118.5 137.5 c 128,-1,10
 128 147 128 147 128 160 c 2,11,-1
 128 448 l 1,12,-1
 480 448 l 2,13,14
 493 448 493 448 502.5 457.5 c 128,-1,15
 512 467 512 467 512 480 c 256,16,17
 512 493 512 493 502.5 502.5 c 128,-1,18
 493 512 493 512 480 512 c 2,19,-1
 128 512 l 1,20,-1
 128 768 l 1,21,-1
 544 768 l 2,22,23
 557 768 557 768 566.5 777.5 c 128,-1,24
 576 787 576 787 576 800 c 256,25,26
 576 813 576 813 566.5 822.5 c 128,-1,27
 557 832 557 832 544 832 c 1,28,-1
 544 832 l 1,0,-1
EndSplineSet
EndChar

StartChar: G
Encoding: 71 71 42
Width: 704
Flags: W
LayerCount: 2
Fore
SplineSet
384 128 m 1,0,1
 303 128 303 128 244 149.5 c 128,-1,2
 185 171 185 171 144 214 c 0,3,4
 104 258 104 258 84 324 c 128,-1,5
 64 390 64 390 64 480 c 0,6,7
 64 576 64 576 80.5 639.5 c 128,-1,8
 97 703 97 703 132 745 c 0,9,10
 169 789 169 789 231 810.5 c 128,-1,11
 293 832 293 832 384 832 c 0,12,13
 468 832 468 832 526.5 814 c 128,-1,14
 585 796 585 796 623 759 c 0,15,16
 633 750 633 750 633 736.5 c 128,-1,17
 633 723 633 723 624 714 c 0,18,19
 614 704 614 704 601 704 c 128,-1,20
 588 704 588 704 578 713 c 0,21,22
 550 741 550 741 502.5 754.5 c 128,-1,23
 455 768 455 768 384 768 c 0,24,25
 284 768 284 768 241 746 c 128,-1,26
 198 724 198 724 180 703 c 0,27,28
 153 671 153 671 140.5 617.5 c 128,-1,29
 128 564 128 564 128 480 c 0,30,31
 128 403 128 403 143.5 347.5 c 128,-1,32
 159 292 159 292 192 258 c 0,33,34
 222 225 222 225 269.5 208.5 c 128,-1,35
 317 192 317 192 384 192 c 0,36,37
 450 192 450 192 497.5 208 c 128,-1,38
 545 224 545 224 576 257 c 1,39,-1
 576 448 l 1,40,-1
 480 448 l 2,41,42
 467 448 467 448 457.5 457.5 c 128,-1,43
 448 467 448 467 448 480 c 256,44,45
 448 493 448 493 457.5 502.5 c 128,-1,46
 467 512 467 512 480 512 c 2,47,-1
 608 512 l 2,48,49
 621 512 621 512 630.5 502.5 c 128,-1,50
 640 493 640 493 640 480 c 2,51,-1
 640 245 l 2,52,53
 640 240 640 240 638 234.5 c 128,-1,54
 636 229 636 229 633 225 c 0,55,56
 593 176 593 176 531 152 c 128,-1,57
 469 128 469 128 384 128 c 1,58,-1
 384 128 l 1,0,1
EndSplineSet
EndChar

StartChar: H
Encoding: 72 72 43
Width: 640
Flags: W
LayerCount: 2
Fore
SplineSet
544 832 m 1,0,1
 531 832 531 832 521.5 822.5 c 128,-1,2
 512 813 512 813 512 800 c 2,3,-1
 512 512 l 1,4,-1
 128 512 l 1,5,-1
 128 800 l 2,6,7
 128 813 128 813 118.5 822.5 c 128,-1,8
 109 832 109 832 96 832 c 256,9,10
 83 832 83 832 73.5 822.5 c 128,-1,11
 64 813 64 813 64 800 c 2,12,-1
 64 160 l 2,13,14
 64 147 64 147 73.5 137.5 c 128,-1,15
 83 128 83 128 96 128 c 256,16,17
 109 128 109 128 118.5 137.5 c 128,-1,18
 128 147 128 147 128 160 c 2,19,-1
 128 448 l 1,20,-1
 512 448 l 1,21,-1
 512 160 l 2,22,23
 512 147 512 147 521.5 137.5 c 128,-1,24
 531 128 531 128 544 128 c 256,25,26
 557 128 557 128 566.5 137.5 c 128,-1,27
 576 147 576 147 576 160 c 2,28,-1
 576 800 l 2,29,30
 576 813 576 813 566.5 822.5 c 128,-1,31
 557 832 557 832 544 832 c 1,32,-1
 544 832 l 1,0,1
EndSplineSet
EndChar

StartChar: I
Encoding: 73 73 44
Width: 192
Flags: W
LayerCount: 2
Fore
SplineSet
96 128 m 1,0,1
 83 128 83 128 73.5 137.5 c 128,-1,2
 64 147 64 147 64 160 c 2,3,-1
 64 800 l 2,4,5
 64 813 64 813 73.5 822.5 c 128,-1,6
 83 832 83 832 96 832 c 256,7,8
 109 832 109 832 118.5 822.5 c 128,-1,9
 128 813 128 813 128 800 c 2,10,-1
 128 160 l 2,11,12
 128 147 128 147 118.5 137.5 c 128,-1,13
 109 128 109 128 96 128 c 1,14,-1
 96 128 l 1,0,1
EndSplineSet
EndChar

StartChar: J
Encoding: 74 74 45
Width: 512
Flags: W
LayerCount: 2
Fore
SplineSet
224 128 m 1,0,1
 176 128 176 128 137.5 145 c 128,-1,2
 99 162 99 162 72 195 c 0,3,4
 63 205 63 205 64 218 c 128,-1,5
 65 231 65 231 75 240 c 0,6,7
 86 248 86 248 99 247 c 128,-1,8
 112 246 112 246 120 236 c 0,9,10
 139 214 139 214 164.5 203 c 128,-1,11
 190 192 190 192 224 192 c 0,12,13
 288 192 288 192 315 210 c 128,-1,14
 342 228 342 228 353 245 c 0,15,16
 369 270 369 270 376.5 311.5 c 128,-1,17
 384 353 384 353 384 416 c 2,18,-1
 384 800 l 2,19,20
 384 813 384 813 393.5 822.5 c 128,-1,21
 403 832 403 832 416 832 c 256,22,23
 429 832 429 832 438.5 822.5 c 128,-1,24
 448 813 448 813 448 800 c 2,25,-1
 448 416 l 2,26,27
 448 342 448 342 438.5 293.5 c 128,-1,28
 429 245 429 245 407 211 c 0,29,30
 380 169 380 169 335 148.5 c 128,-1,31
 290 128 290 128 224 128 c 1,32,-1
 224 128 l 1,0,1
EndSplineSet
EndChar

StartChar: K
Encoding: 75 75 46
Width: 640
Flags: W
LayerCount: 2
Fore
SplineSet
564 185 m 1,0,-1
 180 480 l 1,1,-1
 564 775 l 2,2,3
 574 783 574 783 575.5 796 c 128,-1,4
 577 809 577 809 569 820 c 0,5,6
 561 830 561 830 548 831.5 c 128,-1,7
 535 833 535 833 524 825 c 2,8,-1
 128 520 l 1,9,-1
 128 800 l 2,10,11
 128 813 128 813 118.5 822.5 c 128,-1,12
 109 832 109 832 96 832 c 256,13,14
 83 832 83 832 73.5 822.5 c 128,-1,15
 64 813 64 813 64 800 c 2,16,-1
 64 160 l 2,17,18
 64 147 64 147 73.5 137.5 c 128,-1,19
 83 128 83 128 96 128 c 256,20,21
 109 128 109 128 118.5 137.5 c 128,-1,22
 128 147 128 147 128 160 c 2,23,-1
 128 440 l 1,24,-1
 524 135 l 2,25,26
 529 131 529 131 534 129.5 c 128,-1,27
 539 128 539 128 544 128 c 0,28,29
 551 128 551 128 558 131 c 128,-1,30
 565 134 565 134 569 140 c 0,31,32
 577 151 577 151 575.5 164 c 128,-1,33
 574 177 574 177 564 185 c 1,34,-1
 564 185 l 1,0,-1
EndSplineSet
EndChar

StartChar: L
Encoding: 76 76 47
Width: 640
Flags: W
LayerCount: 2
Fore
SplineSet
544 128 m 1,0,-1
 96 128 l 2,1,2
 83 128 83 128 73.5 137.5 c 128,-1,3
 64 147 64 147 64 160 c 2,4,-1
 64 800 l 2,5,6
 64 813 64 813 73.5 822.5 c 128,-1,7
 83 832 83 832 96 832 c 256,8,9
 109 832 109 832 118.5 822.5 c 128,-1,10
 128 813 128 813 128 800 c 2,11,-1
 128 192 l 1,12,-1
 544 192 l 2,13,14
 557 192 557 192 566.5 182.5 c 128,-1,15
 576 173 576 173 576 160 c 256,16,17
 576 147 576 147 566.5 137.5 c 128,-1,18
 557 128 557 128 544 128 c 1,19,-1
 544 128 l 1,0,-1
EndSplineSet
EndChar

StartChar: M
Encoding: 77 77 48
Width: 960
Flags: W
LayerCount: 2
Fore
SplineSet
864 128 m 1,0,1
 853 128 853 128 844 135 c 128,-1,2
 835 142 835 142 833 154 c 2,3,-1
 724 695 l 1,4,-1
 509 211 l 2,5,6
 505 202 505 202 497 197 c 128,-1,7
 489 192 489 192 480 192 c 256,8,9
 471 192 471 192 463 197 c 128,-1,10
 455 202 455 202 451 211 c 2,11,-1
 236 695 l 1,12,-1
 127 154 l 2,13,14
 125 141 125 141 114 133.5 c 128,-1,15
 103 126 103 126 90 129 c 0,16,17
 77 131 77 131 69.5 142 c 128,-1,18
 62 153 62 153 65 166 c 2,19,-1
 193 806 l 2,20,21
 195 817 195 817 202.5 824 c 128,-1,22
 210 831 210 831 220 832 c 0,23,24
 231 833 231 833 240 828 c 128,-1,25
 249 823 249 823 253 813 c 2,26,-1
 480 303 l 1,27,-1
 707 813 l 2,28,29
 711 823 711 823 720 828 c 128,-1,30
 729 833 729 833 740 832 c 0,31,32
 750 831 750 831 757.5 824 c 128,-1,33
 765 817 765 817 767 806 c 2,34,-1
 895 166 l 2,35,36
 898 153 898 153 890.5 142 c 128,-1,37
 883 131 883 131 870 129 c 0,38,39
 869 128 869 128 867.5 128 c 128,-1,40
 866 128 866 128 864 128 c 1,41,-1
 864 128 l 1,0,1
EndSplineSet
EndChar

StartChar: N
Encoding: 78 78 49
Width: 640
Flags: W
LayerCount: 2
Fore
SplineSet
544 128 m 1,0,1
 536 128 536 128 529 131.5 c 128,-1,2
 522 135 522 135 518 142 c 2,3,-1
 128 698 l 1,4,-1
 128 160 l 2,5,6
 128 147 128 147 118.5 137.5 c 128,-1,7
 109 128 109 128 96 128 c 256,8,9
 83 128 83 128 73.5 137.5 c 128,-1,10
 64 147 64 147 64 160 c 2,11,-1
 64 800 l 2,12,13
 64 810 64 810 70 818.5 c 128,-1,14
 76 827 76 827 86 831 c 0,15,16
 96 834 96 834 106 830.5 c 128,-1,17
 116 827 116 827 122 818 c 2,18,-1
 512 262 l 1,19,-1
 512 800 l 2,20,21
 512 813 512 813 521.5 822.5 c 128,-1,22
 531 832 531 832 544 832 c 256,23,24
 557 832 557 832 566.5 822.5 c 128,-1,25
 576 813 576 813 576 800 c 2,26,-1
 576 160 l 2,27,28
 576 150 576 150 570 141.5 c 128,-1,29
 564 133 564 133 554 129 c 0,30,31
 551 129 551 129 548.5 128.5 c 128,-1,32
 546 128 546 128 544 128 c 1,33,-1
 544 128 l 1,0,1
EndSplineSet
EndChar

StartChar: O
Encoding: 79 79 50
Width: 768
Flags: W
LayerCount: 2
Fore
SplineSet
384 128 m 1,0,1
 303 128 303 128 244 149.5 c 128,-1,2
 185 171 185 171 144 214 c 0,3,4
 104 258 104 258 84 324 c 128,-1,5
 64 390 64 390 64 480 c 0,6,7
 64 576 64 576 80.5 639.5 c 128,-1,8
 97 703 97 703 132 745 c 0,9,10
 169 789 169 789 231 810.5 c 128,-1,11
 293 832 293 832 384 832 c 256,12,13
 475 832 475 832 537 810.5 c 128,-1,14
 599 789 599 789 636 745 c 0,15,16
 671 703 671 703 687.5 639.5 c 128,-1,17
 704 576 704 576 704 480 c 0,18,19
 704 390 704 390 684 324 c 128,-1,20
 664 258 664 258 624 214 c 0,21,22
 583 171 583 171 524 149.5 c 128,-1,23
 465 128 465 128 384 128 c 1,24,-1
 384 128 l 1,0,1
384 768 m 1,25,26
 284 768 284 768 241 746 c 128,-1,27
 198 724 198 724 180 703 c 0,28,29
 153 671 153 671 140.5 617.5 c 128,-1,30
 128 564 128 564 128 480 c 0,31,32
 128 403 128 403 143.5 347.5 c 128,-1,33
 159 292 159 292 192 258 c 0,34,35
 222 225 222 225 269.5 208.5 c 128,-1,36
 317 192 317 192 384 192 c 256,37,38
 451 192 451 192 498.5 208.5 c 128,-1,39
 546 225 546 225 576 258 c 0,40,41
 609 292 609 292 624.5 347.5 c 128,-1,42
 640 403 640 403 640 480 c 0,43,44
 640 564 640 564 627.5 617.5 c 128,-1,45
 615 671 615 671 588 703 c 0,46,47
 570 724 570 724 527 746 c 128,-1,48
 484 768 484 768 384 768 c 1,49,-1
 384 768 l 1,25,26
EndSplineSet
EndChar

StartChar: P
Encoding: 80 80 51
Width: 640
Flags: W
LayerCount: 2
Fore
SplineSet
96 128 m 1,0,1
 83 128 83 128 73.5 137.5 c 128,-1,2
 64 147 64 147 64 160 c 2,3,-1
 64 800 l 2,4,5
 64 813 64 813 73.5 822.5 c 128,-1,6
 83 832 83 832 96 832 c 2,7,-1
 320 832 l 2,8,9
 390 832 390 832 435 823 c 128,-1,10
 480 814 480 814 510 795 c 0,11,12
 544 772 544 772 560 734.5 c 128,-1,13
 576 697 576 697 576 640 c 256,14,15
 576 583 576 583 560 545.5 c 128,-1,16
 544 508 544 508 510 485 c 0,17,18
 480 466 480 466 435 457 c 128,-1,19
 390 448 390 448 320 448 c 2,20,-1
 128 448 l 1,21,-1
 128 160 l 2,22,23
 128 147 128 147 118.5 137.5 c 128,-1,24
 109 128 109 128 96 128 c 1,25,-1
 96 128 l 1,0,1
128 512 m 1,26,-1
 320 512 l 2,27,28
 442 512 442 512 477 540.5 c 128,-1,29
 512 569 512 569 512 640 c 0,30,31
 512 721 512 721 469 744.5 c 128,-1,32
 426 768 426 768 320 768 c 2,33,-1
 128 768 l 1,34,-1
 128 512 l 1,35,-1
 128 512 l 1,26,-1
EndSplineSet
EndChar

StartChar: Q
Encoding: 81 81 52
Width: 768
Flags: W
LayerCount: 2
Fore
SplineSet
605 63 m 1,0,1
 582 61 582 61 527 66.5 c 128,-1,2
 472 72 472 72 440 102 c 0,3,4
 433 108 433 108 428.5 115 c 128,-1,5
 424 122 424 122 421 129 c 1,6,7
 488 134 488 134 538 155 c 128,-1,8
 588 176 588 176 624 214 c 0,9,10
 664 258 664 258 684 324 c 128,-1,11
 704 390 704 390 704 480 c 0,12,13
 704 576 704 576 687.5 639.5 c 128,-1,14
 671 703 671 703 636 745 c 0,15,16
 599 789 599 789 537 810.5 c 128,-1,17
 475 832 475 832 384 832 c 256,18,19
 293 832 293 832 231 810.5 c 128,-1,20
 169 789 169 789 132 745 c 0,21,22
 97 703 97 703 80.5 639.5 c 128,-1,23
 64 576 64 576 64 480 c 0,24,25
 64 390 64 390 84 324 c 128,-1,26
 104 258 104 258 144 214 c 0,27,28
 181 175 181 175 233 153.5 c 128,-1,29
 285 132 285 132 355 129 c 1,30,31
 359 107 359 107 369.5 88.5 c 128,-1,32
 380 70 380 70 396 55 c 0,33,34
 420 34 420 34 454 20 c 128,-1,35
 488 6 488 6 533 1 c 0,36,37
 548 -1 548 -1 561.5 -1.5 c 128,-1,38
 575 -2 575 -2 586 -2 c 256,39,40
 597 -2 597 -2 603.5 -1.5 c 128,-1,41
 610 -1 610 -1 611 -1 c 0,42,43
 624 0 624 0 632.5 10 c 128,-1,44
 641 20 641 20 640 33 c 256,45,46
 639 46 639 46 629 55 c 128,-1,47
 619 64 619 64 605 63 c 1,48,-1
 605 63 l 1,0,1
192 258 m 1,49,50
 159 292 159 292 143.5 347.5 c 128,-1,51
 128 403 128 403 128 480 c 0,52,53
 128 564 128 564 140.5 617.5 c 128,-1,54
 153 671 153 671 180 703 c 0,55,56
 198 724 198 724 241 746 c 128,-1,57
 284 768 284 768 384 768 c 256,58,59
 484 768 484 768 527 746 c 128,-1,60
 570 724 570 724 588 703 c 0,61,62
 615 671 615 671 627.5 617.5 c 128,-1,63
 640 564 640 564 640 480 c 0,64,65
 640 403 640 403 624.5 347.5 c 128,-1,66
 609 292 609 292 576 258 c 0,67,68
 546 225 546 225 498.5 208.5 c 128,-1,69
 451 192 451 192 384 192 c 256,70,71
 317 192 317 192 269.5 208.5 c 128,-1,72
 222 225 222 225 192 258 c 1,73,-1
 192 258 l 1,49,50
EndSplineSet
EndChar

StartChar: R
Encoding: 82 82 53
Width: 640
Flags: W
LayerCount: 2
Fore
SplineSet
406 452 m 5,0,1
 440 456 440 456 465.5 464.5 c 132,-1,2
 491 473 491 473 510 485 c 4,3,4
 544 508 544 508 560 545.5 c 132,-1,5
 576 583 576 583 576 640 c 260,6,7
 576 697 576 697 560 734.5 c 132,-1,8
 544 772 544 772 510 795 c 4,9,10
 480 814 480 814 435 823 c 132,-1,11
 390 832 390 832 320 832 c 6,12,-1
 96 832 l 6,13,14
 83 832 83 832 73.5 822.5 c 132,-1,15
 64 813 64 813 64 800 c 6,16,-1
 64 160 l 6,17,18
 64 147 64 147 73.5 137.5 c 132,-1,19
 83 128 83 128 96 128 c 260,20,21
 109 128 109 128 118.5 137.5 c 132,-1,22
 128 147 128 147 128 160 c 6,23,-1
 128 448 l 5,24,-1
 320 448 l 6,25,26
 324 448 324 448 327.5 448 c 132,-1,27
 331 448 331 448 334 448 c 6,28,-1
 517 144 l 6,29,30
 521 136 521 136 528.5 132 c 132,-1,31
 536 128 536 128 544 128 c 4,32,33
 548 128 548 128 552.5 129 c 132,-1,34
 557 130 557 130 560 133 c 4,35,36
 572 139 572 139 575 152 c 132,-1,37
 578 165 578 165 571 176 c 6,38,-1
 406 452 l 5,39,-1
 406 452 l 5,0,1
128 512 m 5,40,-1
 128 768 l 5,41,-1
 320 768 l 6,42,43
 426 768 426 768 469 744.5 c 132,-1,44
 512 721 512 721 512 640 c 4,45,46
 512 569 512 569 477 540.5 c 132,-1,47
 442 512 442 512 320 512 c 6,48,-1
 128 512 l 5,49,-1
 128 512 l 5,40,-1
EndSplineSet
EndChar

StartChar: S
Encoding: 83 83 54
Width: 704
Flags: W
LayerCount: 2
Fore
SplineSet
352 128 m 1,0,1
 226 128 226 128 153.5 161.5 c 128,-1,2
 81 195 81 195 78 197 c 0,3,4
 67 205 67 205 64.5 218 c 128,-1,5
 62 231 62 231 69 242 c 0,6,7
 77 253 77 253 90 255.5 c 128,-1,8
 103 258 103 258 114 251 c 0,9,10
 114 250 114 250 130.5 241 c 128,-1,11
 147 232 147 232 177 221 c 0,12,13
 205 211 205 211 249.5 201.5 c 128,-1,14
 294 192 294 192 352 192 c 0,15,16
 420 192 420 192 468 204 c 128,-1,17
 516 216 516 216 543 240 c 0,18,19
 560 255 560 255 568 275 c 128,-1,20
 576 295 576 295 576 320 c 0,21,22
 576 349 576 349 555.5 367 c 128,-1,23
 535 385 535 385 514 395 c 0,24,25
 480 412 480 412 435 424.5 c 128,-1,26
 390 437 390 437 344 449 c 0,27,28
 296 461 296 461 248 474.5 c 128,-1,29
 200 488 200 488 162 507 c 0,30,31
 113 532 113 532 88.5 565 c 128,-1,32
 64 598 64 598 64 640 c 0,33,34
 64 679 64 679 77.5 711.5 c 128,-1,35
 91 744 91 744 119 768 c 0,36,37
 155 800 155 800 213.5 816 c 128,-1,38
 272 832 272 832 352 832 c 0,39,40
 478 832 478 832 550.5 798.5 c 128,-1,41
 623 765 623 765 626 763 c 0,42,43
 637 755 637 755 639.5 742 c 128,-1,44
 642 729 642 729 635 718 c 0,45,46
 627 707 627 707 614 704.5 c 128,-1,47
 601 702 601 702 590 709 c 2,48,49
 590 709 590 709 573.5 718.5 c 128,-1,50
 557 728 557 728 527 739 c 0,51,52
 499 749 499 749 454.5 758.5 c 128,-1,53
 410 768 410 768 352 768 c 0,54,55
 284 768 284 768 236 756 c 128,-1,56
 188 744 188 744 161 720 c 0,57,58
 144 705 144 705 136 685 c 128,-1,59
 128 665 128 665 128 640 c 0,60,61
 128 611 128 611 148.5 593.5 c 128,-1,62
 169 576 169 576 190 565 c 0,63,64
 224 548 224 548 269 535.5 c 128,-1,65
 314 523 314 523 360 511 c 0,66,67
 408 499 408 499 456 485.5 c 128,-1,68
 504 472 504 472 542 453 c 0,69,70
 591 428 591 428 615.5 395 c 128,-1,71
 640 362 640 362 640 320 c 0,72,73
 640 281 640 281 626.5 248.5 c 128,-1,74
 613 216 613 216 585 192 c 0,75,76
 549 160 549 160 490.5 144 c 128,-1,77
 432 128 432 128 352 128 c 1,78,-1
 352 128 l 1,0,1
EndSplineSet
EndChar

StartChar: T
Encoding: 84 84 55
Width: 704
Flags: W
LayerCount: 2
Fore
SplineSet
608 832 m 1,0,-1
 96 832 l 2,1,2
 83 832 83 832 73.5 822.5 c 128,-1,3
 64 813 64 813 64 800 c 256,4,5
 64 787 64 787 73.5 777.5 c 128,-1,6
 83 768 83 768 96 768 c 2,7,-1
 320 768 l 1,8,-1
 320 160 l 2,9,10
 320 147 320 147 329.5 137.5 c 128,-1,11
 339 128 339 128 352 128 c 256,12,13
 365 128 365 128 374.5 137.5 c 128,-1,14
 384 147 384 147 384 160 c 2,15,-1
 384 768 l 1,16,-1
 608 768 l 2,17,18
 621 768 621 768 630.5 777.5 c 128,-1,19
 640 787 640 787 640 800 c 256,20,21
 640 813 640 813 630.5 822.5 c 128,-1,22
 621 832 621 832 608 832 c 1,23,-1
 608 832 l 1,0,-1
EndSplineSet
EndChar

StartChar: U
Encoding: 85 85 56
Width: 704
Flags: W
LayerCount: 2
Fore
SplineSet
352 128 m 1,0,1
 264 128 264 128 206.5 147.5 c 128,-1,2
 149 167 149 167 115 208 c 256,3,4
 81 249 81 249 72.5 304 c 128,-1,5
 64 359 64 359 64 416 c 2,6,-1
 64 800 l 2,7,8
 64 813 64 813 73.5 822.5 c 128,-1,9
 83 832 83 832 96 832 c 256,10,11
 109 832 109 832 118.5 822.5 c 128,-1,12
 128 813 128 813 128 800 c 2,13,-1
 128 416 l 2,14,15
 128 351 128 351 136.5 311.5 c 128,-1,16
 145 272 145 272 165 248 c 0,17,18
 188 219 188 219 234 205.5 c 128,-1,19
 280 192 280 192 352 192 c 256,20,21
 424 192 424 192 470 205.5 c 128,-1,22
 516 219 516 219 539 248 c 0,23,24
 559 272 559 272 567.5 311.5 c 128,-1,25
 576 351 576 351 576 416 c 2,26,-1
 576 800 l 2,27,28
 576 813 576 813 585.5 822.5 c 128,-1,29
 595 832 595 832 608 832 c 256,30,31
 621 832 621 832 630.5 822.5 c 128,-1,32
 640 813 640 813 640 800 c 2,33,-1
 640 416 l 2,34,35
 640 359 640 359 631.5 304 c 128,-1,36
 623 249 623 249 589 208 c 256,37,38
 555 167 555 167 497.5 147.5 c 128,-1,39
 440 128 440 128 352 128 c 1,40,-1
 352 128 l 1,0,1
EndSplineSet
EndChar

StartChar: V
Encoding: 86 86 57
Width: 704
Flags: W
LayerCount: 2
Fore
SplineSet
352 128 m 1,0,1
 342 128 342 128 334 133.5 c 128,-1,2
 326 139 326 139 322 148 c 2,3,-1
 66 788 l 2,4,5
 61 800 61 800 66.5 812.5 c 128,-1,6
 72 825 72 825 84 830 c 256,7,8
 96 835 96 835 108.5 829.5 c 128,-1,9
 121 824 121 824 126 812 c 2,10,-1
 352 246 l 1,11,-1
 578 812 l 2,12,13
 583 824 583 824 595.5 829.5 c 128,-1,14
 608 835 608 835 620 830 c 256,15,16
 632 825 632 825 637.5 812.5 c 128,-1,17
 643 800 643 800 638 788 c 2,18,-1
 382 148 l 2,19,20
 378 139 378 139 370 133.5 c 128,-1,21
 362 128 362 128 352 128 c 1,22,-1
 352 128 l 1,0,1
EndSplineSet
EndChar

StartChar: W
Encoding: 87 87 58
Width: 960
Flags: W
LayerCount: 2
Fore
SplineSet
672 128 m 1,0,1
 662 128 662 128 653.5 134 c 128,-1,2
 645 140 645 140 642 150 c 2,3,-1
 480 635 l 1,4,-1
 318 150 l 2,5,6
 315 140 315 140 306.5 134 c 128,-1,7
 298 128 298 128 288 128 c 0,8,9
 277 128 277 128 268.5 134.5 c 128,-1,10
 260 141 260 141 257 151 c 2,11,-1
 65 791 l 2,12,13
 62 803 62 803 68 815 c 128,-1,14
 74 827 74 827 87 831 c 0,15,16
 100 834 100 834 111.5 828 c 128,-1,17
 123 822 123 822 127 809 c 2,18,-1
 290 266 l 1,19,-1
 450 746 l 2,20,21
 453 756 453 756 461.5 762 c 128,-1,22
 470 768 470 768 480 768 c 256,23,24
 490 768 490 768 498.5 762 c 128,-1,25
 507 756 507 756 510 746 c 2,26,-1
 670 266 l 1,27,-1
 833 809 l 2,28,29
 837 822 837 822 849 828 c 128,-1,30
 861 834 861 834 873 831 c 0,31,32
 886 827 886 827 892 815.5 c 128,-1,33
 898 804 898 804 895 791 c 2,34,-1
 703 151 l 2,35,36
 700 141 700 141 691.5 134.5 c 128,-1,37
 683 128 683 128 672 128 c 1,38,39
 672 128 672 128 672 128 c 129,-1,40
 672 128 672 128 672 128 c 1,41,-1
 672 128 l 1,0,1
EndSplineSet
EndChar

StartChar: X
Encoding: 88 88 59
Width: 640
Flags: W
LayerCount: 2
Fore
SplineSet
359 480 m 1,0,-1
 570 782 l 2,1,2
 578 793 578 793 575.5 806 c 128,-1,3
 573 819 573 819 562 826 c 0,4,5
 551 834 551 834 538 831.5 c 128,-1,6
 525 829 525 829 518 818 c 2,7,-1
 320 536 l 1,8,-1
 122 818 l 2,9,10
 115 829 115 829 102 831.5 c 128,-1,11
 89 834 89 834 78 826 c 0,12,13
 67 819 67 819 64.5 806 c 128,-1,14
 62 793 62 793 70 782 c 2,15,-1
 281 480 l 1,16,-1
 70 178 l 2,17,18
 62 167 62 167 64.5 154 c 128,-1,19
 67 141 67 141 78 134 c 0,20,21
 82 131 82 131 86.5 129.5 c 128,-1,22
 91 128 91 128 96 128 c 0,23,24
 104 128 104 128 111 131.5 c 128,-1,25
 118 135 118 135 122 142 c 2,26,-1
 320 424 l 1,27,-1
 518 142 l 2,28,29
 522 135 522 135 529 131.5 c 128,-1,30
 536 128 536 128 544 128 c 0,31,32
 549 128 549 128 553.5 129.5 c 128,-1,33
 558 131 558 131 562 134 c 0,34,35
 573 141 573 141 575.5 154 c 128,-1,36
 578 167 578 167 570 178 c 2,37,-1
 359 480 l 1,38,-1
 359 480 l 1,0,-1
EndSplineSet
EndChar

StartChar: Y
Encoding: 89 89 60
Width: 704
Flags: W
LayerCount: 2
Fore
SplineSet
626 827 m 1,0,1
 615 834 615 834 602 831.5 c 128,-1,2
 589 829 589 829 581 818 c 2,3,-1
 352 474 l 1,4,-1
 123 818 l 2,5,6
 115 829 115 829 102 831.5 c 128,-1,7
 89 834 89 834 78 827 c 0,8,9
 67 819 67 819 64.5 806 c 128,-1,10
 62 793 62 793 69 782 c 2,11,-1
 320 406 l 1,12,-1
 320 160 l 2,13,14
 320 147 320 147 329.5 137.5 c 128,-1,15
 339 128 339 128 352 128 c 256,16,17
 365 128 365 128 374.5 137.5 c 128,-1,18
 384 147 384 147 384 160 c 2,19,-1
 384 406 l 1,20,-1
 635 782 l 2,21,22
 642 793 642 793 639.5 806 c 128,-1,23
 637 819 637 819 626 827 c 1,24,-1
 626 827 l 1,0,1
EndSplineSet
EndChar

StartChar: Z
Encoding: 90 90 61
Width: 704
Flags: W
LayerCount: 2
Fore
SplineSet
608 128 m 1,0,-1
 96 128 l 2,1,2
 87 128 87 128 79 133 c 128,-1,3
 71 138 71 138 67 146 c 256,4,5
 63 154 63 154 64 163.5 c 128,-1,6
 65 173 65 173 71 180 c 2,7,-1
 541 768 l 1,8,-1
 96 768 l 2,9,10
 83 768 83 768 73.5 777.5 c 128,-1,11
 64 787 64 787 64 800 c 256,12,13
 64 813 64 813 73.5 822.5 c 128,-1,14
 83 832 83 832 96 832 c 2,15,-1
 608 832 l 2,16,17
 617 832 617 832 625 827 c 128,-1,18
 633 822 633 822 637 814 c 256,19,20
 641 806 641 806 640 796.5 c 128,-1,21
 639 787 639 787 633 780 c 2,22,-1
 163 192 l 1,23,-1
 608 192 l 2,24,25
 621 192 621 192 630.5 182.5 c 128,-1,26
 640 173 640 173 640 160 c 256,27,28
 640 147 640 147 630.5 137.5 c 128,-1,29
 621 128 621 128 608 128 c 1,30,-1
 608 128 l 1,0,-1
EndSplineSet
EndChar

StartChar: bracketleft
Encoding: 91 91 62
Width: 320
Flags: W
LayerCount: 2
Fore
SplineSet
224 -64 m 1,0,-1
 96 -64 l 2,1,2
 83 -64 83 -64 73.5 -54.5 c 128,-1,3
 64 -45 64 -45 64 -32 c 2,4,-1
 64 928 l 2,5,6
 64 941 64 941 73.5 950.5 c 128,-1,7
 83 960 83 960 96 960 c 2,8,-1
 224 960 l 2,9,10
 237 960 237 960 246.5 950.5 c 128,-1,11
 256 941 256 941 256 928 c 256,12,13
 256 915 256 915 246.5 905.5 c 128,-1,14
 237 896 237 896 224 896 c 2,15,-1
 128 896 l 1,16,-1
 128 0 l 1,17,-1
 224 0 l 2,18,19
 237 0 237 0 246.5 -9.5 c 128,-1,20
 256 -19 256 -19 256 -32 c 256,21,22
 256 -45 256 -45 246.5 -54.5 c 128,-1,23
 237 -64 237 -64 224 -64 c 1,24,-1
 224 -64 l 1,0,-1
EndSplineSet
EndChar

StartChar: backslash
Encoding: 92 92 63
Width: 576
Flags: W
LayerCount: 2
Fore
SplineSet
480 -64 m 1,0,1
 483 -64 483 -64 486 -63.5 c 128,-1,2
 489 -63 489 -63 492 -62 c 0,3,4
 504 -57 504 -57 509.5 -44.5 c 128,-1,5
 515 -32 515 -32 510 -20 c 2,6,-1
 126 940 l 2,7,8
 121 952 121 952 108.5 957.5 c 128,-1,9
 96 963 96 963 84 958 c 256,10,11
 72 953 72 953 66.5 940.5 c 128,-1,12
 61 928 61 928 66 916 c 2,13,-1
 450 -44 l 2,14,15
 454 -53 454 -53 462 -58.5 c 128,-1,16
 470 -64 470 -64 480 -64 c 1,17,-1
 480 -64 l 1,0,1
EndSplineSet
EndChar

StartChar: bracketright
Encoding: 93 93 64
Width: 320
Flags: W
LayerCount: 2
Fore
SplineSet
96 -64 m 1,0,-1
 224 -64 l 2,1,2
 237 -64 237 -64 246.5 -54.5 c 128,-1,3
 256 -45 256 -45 256 -32 c 2,4,-1
 256 928 l 2,5,6
 256 941 256 941 246.5 950.5 c 128,-1,7
 237 960 237 960 224 960 c 2,8,-1
 96 960 l 2,9,10
 83 960 83 960 73.5 950.5 c 128,-1,11
 64 941 64 941 64 928 c 256,12,13
 64 915 64 915 73.5 905.5 c 128,-1,14
 83 896 83 896 96 896 c 2,15,-1
 192 896 l 1,16,-1
 192 0 l 1,17,-1
 96 0 l 2,18,19
 83 0 83 0 73.5 -9.5 c 128,-1,20
 64 -19 64 -19 64 -32 c 256,21,22
 64 -45 64 -45 73.5 -54.5 c 128,-1,23
 83 -64 83 -64 96 -64 c 1,24,-1
 96 -64 l 1,0,-1
EndSplineSet
EndChar

StartChar: asciicircum
Encoding: 94 94 65
Width: 576
Flags: W
LayerCount: 2
Fore
SplineSet
480 512 m 1,0,1
 473 512 473 512 466 515.5 c 128,-1,2
 459 519 459 519 454 525 c 2,3,-1
 288 747 l 1,4,-1
 122 525 l 2,5,6
 114 514 114 514 100.5 512 c 128,-1,7
 87 510 87 510 77 518 c 0,8,9
 66 526 66 526 64 539.5 c 128,-1,10
 62 553 62 553 70 563 c 2,11,-1
 262 819 l 2,12,13
 267 825 267 825 273.5 828.5 c 128,-1,14
 280 832 280 832 288 832 c 256,15,16
 296 832 296 832 302.5 828.5 c 128,-1,17
 309 825 309 825 314 819 c 2,18,-1
 506 563 l 2,19,20
 514 553 514 553 512 539.5 c 128,-1,21
 510 526 510 526 499 518 c 0,22,23
 495 515 495 515 490 513.5 c 128,-1,24
 485 512 485 512 480 512 c 1,25,-1
 480 512 l 1,0,1
EndSplineSet
EndChar

StartChar: underscore
Encoding: 95 95 66
Width: 512
Flags: W
LayerCount: 2
Fore
SplineSet
480 64 m 1,0,-1
 32 64 l 2,1,2
 19 64 19 64 9.5 54.5 c 128,-1,3
 0 45 0 45 0 32 c 256,4,5
 0 19 0 19 9.5 9.5 c 128,-1,6
 19 0 19 0 32 0 c 2,7,-1
 480 0 l 2,8,9
 493 0 493 0 502.5 9.5 c 128,-1,10
 512 19 512 19 512 32 c 256,11,12
 512 45 512 45 502.5 54.5 c 128,-1,13
 493 64 493 64 480 64 c 1,14,-1
 480 64 l 1,0,-1
EndSplineSet
EndChar

StartChar: grave
Encoding: 96 96 67
Width: 320
Flags: W
LayerCount: 2
Fore
SplineSet
224 640 m 5,0,1
 216 640 216 640 209 643.5 c 132,-1,2
 202 647 202 647 197 654 c 6,3,-1
 69 846 l 6,4,5
 62 857 62 857 64.5 870 c 132,-1,6
 67 883 67 883 78 891 c 4,7,8
 89 898 89 898 102 895.5 c 132,-1,9
 115 893 115 893 123 882 c 6,10,-1
 251 690 l 6,11,12
 258 679 258 679 255.5 666 c 132,-1,13
 253 653 253 653 242 645 c 4,14,15
 238 643 238 643 233.5 641.5 c 132,-1,16
 229 640 229 640 224 640 c 5,17,-1
 224 640 l 5,0,1
EndSplineSet
EndChar

StartChar: a
Encoding: 97 97 68
Width: 576
Flags: W
LayerCount: 2
Fore
SplineSet
449 607 m 1,0,1
 422 624 422 624 382.5 632 c 128,-1,2
 343 640 343 640 288 640 c 0,3,4
 242 640 242 640 207.5 634.5 c 128,-1,5
 173 629 173 629 147 618 c 0,6,7
 135 612 135 612 130 600 c 128,-1,8
 125 588 125 588 131 575 c 0,9,10
 136 563 136 563 148.5 558.5 c 128,-1,11
 161 554 161 554 173 559 c 0,12,13
 192 568 192 568 220.5 572 c 128,-1,14
 249 576 249 576 288 576 c 0,15,16
 388 576 388 576 418 551 c 128,-1,17
 448 526 448 526 448 480 c 2,18,-1
 448 429 l 1,19,20
 424 439 424 439 385.5 443.5 c 128,-1,21
 347 448 347 448 288 448 c 0,22,23
 236 448 236 448 195.5 438 c 128,-1,24
 155 428 155 428 126 408 c 0,25,26
 96 387 96 387 80 356.5 c 128,-1,27
 64 326 64 326 64 288 c 256,28,29
 64 250 64 250 80 219.5 c 128,-1,30
 96 189 96 189 126 168 c 0,31,32
 155 148 155 148 195.5 138 c 128,-1,33
 236 128 236 128 288 128 c 0,34,35
 349 128 349 128 387.5 132.5 c 128,-1,36
 426 137 426 137 450 148 c 1,37,38
 454 139 454 139 462 133.5 c 128,-1,39
 470 128 470 128 480 128 c 0,40,41
 493 128 493 128 502.5 137.5 c 128,-1,42
 512 147 512 147 512 160 c 2,43,-1
 512 480 l 2,44,45
 512 524 512 524 496 556 c 128,-1,46
 480 588 480 588 449 607 c 1,47,-1
 449 607 l 1,0,1
436 213 m 1,48,49
 419 199 419 199 373.5 195.5 c 128,-1,50
 328 192 328 192 288 192 c 0,51,52
 246 192 246 192 214 199 c 128,-1,53
 182 206 182 206 162 220 c 0,54,55
 145 232 145 232 136.5 249 c 128,-1,56
 128 266 128 266 128 288 c 256,57,58
 128 310 128 310 136.5 327 c 128,-1,59
 145 344 145 344 162 356 c 0,60,61
 182 370 182 370 214 377 c 128,-1,62
 246 384 246 384 288 384 c 0,63,64
 328 384 328 384 373.5 380.5 c 128,-1,65
 419 377 419 377 436 363 c 0,66,67
 444 356 444 356 446 339.5 c 128,-1,68
 448 323 448 323 448 288 c 256,69,70
 448 253 448 253 446 236.5 c 128,-1,71
 444 220 444 220 436 213 c 1,72,-1
 436 213 l 1,48,49
EndSplineSet
EndChar

StartChar: b
Encoding: 98 98 69
Width: 640
Flags: W
LayerCount: 2
Fore
SplineSet
515 579 m 1,0,1
 483 610 483 610 435.5 625 c 128,-1,2
 388 640 388 640 320 640 c 0,3,4
 253 640 253 640 206 625.5 c 128,-1,5
 159 611 159 611 128 581 c 1,6,-1
 128 800 l 2,7,8
 128 813 128 813 118.5 822.5 c 128,-1,9
 109 832 109 832 96 832 c 256,10,11
 83 832 83 832 73.5 822.5 c 128,-1,12
 64 813 64 813 64 800 c 2,13,-1
 64 160 l 2,14,15
 64 147 64 147 73.5 137.5 c 128,-1,16
 83 128 83 128 96 128 c 256,17,18
 109 128 109 128 118.5 137.5 c 128,-1,19
 128 147 128 147 128 160 c 2,20,-1
 128 187 l 1,21,22
 159 157 159 157 206 142.5 c 128,-1,23
 253 128 253 128 320 128 c 0,24,25
 388 128 388 128 435.5 143 c 128,-1,26
 483 158 483 158 515 189 c 0,27,28
 546 221 546 221 561 268.5 c 128,-1,29
 576 316 576 316 576 384 c 256,30,31
 576 452 576 452 561 499.5 c 128,-1,32
 546 547 546 547 515 579 c 1,33,-1
 515 579 l 1,0,1
469 235 m 1,34,35
 448 213 448 213 411.5 202.5 c 128,-1,36
 375 192 375 192 320 192 c 256,37,38
 265 192 265 192 228.5 202.5 c 128,-1,39
 192 213 192 213 171 235 c 0,40,41
 149 256 149 256 138.5 292.5 c 128,-1,42
 128 329 128 329 128 384 c 256,43,44
 128 439 128 439 138.5 475.5 c 128,-1,45
 149 512 149 512 171 533 c 0,46,47
 192 555 192 555 228.5 565.5 c 128,-1,48
 265 576 265 576 320 576 c 256,49,50
 375 576 375 576 411.5 565.5 c 128,-1,51
 448 555 448 555 469 533 c 0,52,53
 491 512 491 512 501.5 475.5 c 128,-1,54
 512 439 512 439 512 384 c 256,55,56
 512 329 512 329 501.5 292.5 c 128,-1,57
 491 256 491 256 469 235 c 1,58,-1
 469 235 l 1,34,35
EndSplineSet
EndChar

StartChar: c
Encoding: 99 99 70
Width: 576
Flags: W
LayerCount: 2
Fore
SplineSet
320 128 m 1,0,1
 252 128 252 128 204.5 143 c 128,-1,2
 157 158 157 158 125 189 c 0,3,4
 94 221 94 221 79 268.5 c 128,-1,5
 64 316 64 316 64 384 c 256,6,7
 64 452 64 452 79 499.5 c 128,-1,8
 94 547 94 547 125 579 c 0,9,10
 157 610 157 610 204.5 625 c 128,-1,11
 252 640 252 640 320 640 c 0,12,13
 381 640 381 640 425 628 c 128,-1,14
 469 616 469 616 500 592 c 0,15,16
 510 584 510 584 511.5 570.5 c 128,-1,17
 513 557 513 557 505 547 c 0,18,19
 497 536 497 536 484 534.5 c 128,-1,20
 471 533 471 533 460 542 c 0,21,22
 438 559 438 559 403.5 567.5 c 128,-1,23
 369 576 369 576 320 576 c 0,24,25
 265 576 265 576 228.5 565.5 c 128,-1,26
 192 555 192 555 171 533 c 0,27,28
 149 512 149 512 138.5 475.5 c 128,-1,29
 128 439 128 439 128 384 c 256,30,31
 128 329 128 329 138.5 292.5 c 128,-1,32
 149 256 149 256 171 235 c 0,33,34
 192 213 192 213 228.5 202.5 c 128,-1,35
 265 192 265 192 320 192 c 0,36,37
 369 192 369 192 403.5 200.5 c 128,-1,38
 438 209 438 209 460 226 c 0,39,40
 471 235 471 235 484 233.5 c 128,-1,41
 497 232 497 232 505 221 c 0,42,43
 513 211 513 211 511.5 197.5 c 128,-1,44
 510 184 510 184 500 176 c 0,45,46
 469 152 469 152 425 140 c 128,-1,47
 381 128 381 128 320 128 c 1,48,-1
 320 128 l 1,0,1
EndSplineSet
EndChar

StartChar: d
Encoding: 100 100 71
Width: 640
Flags: W
LayerCount: 2
Fore
SplineSet
544 832 m 1,0,1
 531 832 531 832 521.5 822.5 c 128,-1,2
 512 813 512 813 512 800 c 2,3,-1
 512 581 l 1,4,5
 481 611 481 611 434 625.5 c 128,-1,6
 387 640 387 640 320 640 c 0,7,8
 252 640 252 640 204.5 625 c 128,-1,9
 157 610 157 610 125 579 c 0,10,11
 94 547 94 547 79 499.5 c 128,-1,12
 64 452 64 452 64 384 c 256,13,14
 64 316 64 316 79 268.5 c 128,-1,15
 94 221 94 221 125 189 c 0,16,17
 157 158 157 158 204.5 143 c 128,-1,18
 252 128 252 128 320 128 c 0,19,20
 387 128 387 128 434 142.5 c 128,-1,21
 481 157 481 157 512 187 c 1,22,-1
 512 160 l 2,23,24
 512 147 512 147 521.5 137.5 c 128,-1,25
 531 128 531 128 544 128 c 256,26,27
 557 128 557 128 566.5 137.5 c 128,-1,28
 576 147 576 147 576 160 c 2,29,-1
 576 800 l 2,30,31
 576 813 576 813 566.5 822.5 c 128,-1,32
 557 832 557 832 544 832 c 1,33,-1
 544 832 l 1,0,1
469 235 m 1,34,35
 448 213 448 213 411.5 202.5 c 128,-1,36
 375 192 375 192 320 192 c 256,37,38
 265 192 265 192 228.5 202.5 c 128,-1,39
 192 213 192 213 171 235 c 0,40,41
 149 256 149 256 138.5 292.5 c 128,-1,42
 128 329 128 329 128 384 c 256,43,44
 128 439 128 439 138.5 475.5 c 128,-1,45
 149 512 149 512 171 533 c 0,46,47
 192 555 192 555 228.5 565.5 c 128,-1,48
 265 576 265 576 320 576 c 256,49,50
 375 576 375 576 411.5 565.5 c 128,-1,51
 448 555 448 555 469 533 c 0,52,53
 491 512 491 512 501.5 475.5 c 128,-1,54
 512 439 512 439 512 384 c 256,55,56
 512 329 512 329 501.5 292.5 c 128,-1,57
 491 256 491 256 469 235 c 1,58,-1
 469 235 l 1,34,35
EndSplineSet
EndChar

StartChar: e
Encoding: 101 101 72
Width: 640
Flags: W
LayerCount: 2
Fore
SplineSet
320 128 m 1,0,1
 241 128 241 128 191 143 c 128,-1,2
 141 158 141 158 112 191 c 0,3,4
 82 224 82 224 73 272.5 c 128,-1,5
 64 321 64 321 64 384 c 0,6,7
 64 452 64 452 79 499.5 c 128,-1,8
 94 547 94 547 125 579 c 0,9,10
 157 610 157 610 204.5 625 c 128,-1,11
 252 640 252 640 320 640 c 0,12,13
 383 640 383 640 428.5 627 c 128,-1,14
 474 614 474 614 505 588 c 0,15,16
 537 560 537 560 554 518 c 128,-1,17
 571 476 571 476 575 418 c 0,18,19
 575 411 575 411 573 405 c 128,-1,20
 571 399 571 399 566 394 c 0,21,22
 562 389 562 389 556 386.5 c 128,-1,23
 550 384 550 384 543 384 c 2,24,-1
 128 384 l 1,25,26
 128 323 128 323 135.5 287.5 c 128,-1,27
 143 252 143 252 160 233 c 0,28,29
 179 212 179 212 217.5 202 c 128,-1,30
 256 192 256 192 320 192 c 0,31,32
 408 192 408 192 441 208 c 128,-1,33
 474 224 474 224 486 241 c 0,34,35
 493 251 493 251 506.5 253.5 c 128,-1,36
 520 256 520 256 530 248 c 0,37,38
 541 241 541 241 543.5 228 c 128,-1,39
 546 215 546 215 538 204 c 0,40,41
 510 164 510 164 458.5 146 c 128,-1,42
 407 128 407 128 320 128 c 1,43,-1
 320 128 l 1,0,1
320 576 m 1,44,45
 265 576 265 576 228.5 565.5 c 128,-1,46
 192 555 192 555 171 533 c 0,47,48
 156 519 156 519 146.5 498 c 128,-1,49
 137 477 137 477 132 448 c 1,50,-1
 507 448 l 1,51,52
 502 479 502 479 491.5 501.5 c 128,-1,53
 481 524 481 524 463 539 c 0,54,55
 442 558 442 558 406.5 567 c 128,-1,56
 371 576 371 576 320 576 c 1,57,-1
 320 576 l 1,44,45
EndSplineSet
EndChar

StartChar: f
Encoding: 102 102 73
Width: 384
Flags: W
LayerCount: 2
Fore
SplineSet
288 640 m 1,0,-1
 129 640 l 1,1,2
 130 681 130 681 136.5 705 c 128,-1,3
 143 729 143 729 155 741 c 0,4,5
 169 756 169 756 200 762 c 128,-1,6
 231 768 231 768 288 768 c 0,7,8
 301 768 301 768 310.5 777.5 c 128,-1,9
 320 787 320 787 320 800 c 256,10,11
 320 813 320 813 310.5 822.5 c 128,-1,12
 301 832 301 832 288 832 c 0,13,14
 226 832 226 832 182 823.5 c 128,-1,15
 138 815 138 815 109 787 c 0,16,17
 81 758 81 758 72.5 714 c 128,-1,18
 64 670 64 670 64 608 c 2,19,-1
 64 160 l 2,20,21
 64 147 64 147 73.5 137.5 c 128,-1,22
 83 128 83 128 96 128 c 256,23,24
 109 128 109 128 118.5 137.5 c 128,-1,25
 128 147 128 147 128 160 c 2,26,-1
 128 576 l 1,27,-1
 288 576 l 2,28,29
 301 576 301 576 310.5 585.5 c 128,-1,30
 320 595 320 595 320 608 c 256,31,32
 320 621 320 621 310.5 630.5 c 128,-1,33
 301 640 301 640 288 640 c 1,34,-1
 288 640 l 1,0,-1
EndSplineSet
EndChar

StartChar: g
Encoding: 103 103 74
Width: 640
Flags: W
LayerCount: 2
Fore
SplineSet
544 640 m 1,0,1
 531 640 531 640 521.5 630.5 c 128,-1,2
 512 621 512 621 512 608 c 2,3,-1
 512 581 l 1,4,5
 481 611 481 611 434 625.5 c 128,-1,6
 387 640 387 640 320 640 c 0,7,8
 252 640 252 640 204.5 625 c 128,-1,9
 157 610 157 610 125 579 c 0,10,11
 94 547 94 547 79 499.5 c 128,-1,12
 64 452 64 452 64 384 c 256,13,14
 64 316 64 316 79 268.5 c 128,-1,15
 94 221 94 221 125 189 c 0,16,17
 157 158 157 158 204.5 143 c 128,-1,18
 252 128 252 128 320 128 c 0,19,20
 387 128 387 128 434 142.5 c 128,-1,21
 481 157 481 157 512 187 c 1,22,-1
 512 129 l 2,23,24
 512 105 512 105 488 52.5 c 128,-1,25
 464 0 464 0 320 0 c 0,26,27
 258 0 258 0 216 13 c 128,-1,28
 174 26 174 26 152 52 c 0,29,30
 144 62 144 62 131 63 c 128,-1,31
 118 64 118 64 107 56 c 0,32,33
 97 47 97 47 96 34 c 128,-1,34
 95 21 95 21 104 11 c 0,35,36
 135 -26 135 -26 189.5 -45 c 128,-1,37
 244 -64 244 -64 320 -64 c 0,38,39
 383 -64 383 -64 431 -51 c 128,-1,40
 479 -38 479 -38 512 -13 c 0,41,42
 544 12 544 12 560 47.5 c 128,-1,43
 576 83 576 83 576 129 c 2,44,-1
 576 608 l 2,45,46
 576 621 576 621 566.5 630.5 c 128,-1,47
 557 640 557 640 544 640 c 1,48,-1
 544 640 l 1,0,1
469 235 m 1,49,50
 448 213 448 213 411.5 202.5 c 128,-1,51
 375 192 375 192 320 192 c 256,52,53
 265 192 265 192 228.5 202.5 c 128,-1,54
 192 213 192 213 171 235 c 0,55,56
 149 256 149 256 138.5 292.5 c 128,-1,57
 128 329 128 329 128 384 c 256,58,59
 128 439 128 439 138.5 475.5 c 128,-1,60
 149 512 149 512 171 533 c 0,61,62
 192 555 192 555 228.5 565.5 c 128,-1,63
 265 576 265 576 320 576 c 256,64,65
 375 576 375 576 411.5 565.5 c 128,-1,66
 448 555 448 555 469 533 c 0,67,68
 491 512 491 512 501.5 475.5 c 128,-1,69
 512 439 512 439 512 384 c 256,70,71
 512 329 512 329 501.5 292.5 c 128,-1,72
 491 256 491 256 469 235 c 1,73,-1
 469 235 l 1,49,50
EndSplineSet
EndChar

StartChar: h
Encoding: 104 104 75
Width: 576
Flags: W
LayerCount: 2
Fore
SplineSet
460 577 m 1,0,1
 432 609 432 609 389.5 624.5 c 128,-1,2
 347 640 347 640 288 640 c 0,3,4
 235 640 235 640 195 627.5 c 128,-1,5
 155 615 155 615 128 589 c 1,6,-1
 128 800 l 2,7,8
 128 813 128 813 118.5 822.5 c 128,-1,9
 109 832 109 832 96 832 c 256,10,11
 83 832 83 832 73.5 822.5 c 128,-1,12
 64 813 64 813 64 800 c 2,13,-1
 64 160 l 2,14,15
 64 147 64 147 73.5 137.5 c 128,-1,16
 83 128 83 128 96 128 c 256,17,18
 109 128 109 128 118.5 137.5 c 128,-1,19
 128 147 128 147 128 160 c 2,20,-1
 128 384 l 2,21,22
 128 439 128 439 137 476 c 128,-1,23
 146 513 146 513 165 535 c 0,24,25
 183 556 183 556 213 566 c 128,-1,26
 243 576 243 576 288 576 c 256,27,28
 333 576 333 576 363 566 c 128,-1,29
 393 556 393 556 411 535 c 0,30,31
 430 513 430 513 439 476 c 128,-1,32
 448 439 448 439 448 384 c 2,33,-1
 448 160 l 2,34,35
 448 147 448 147 457.5 137.5 c 128,-1,36
 467 128 467 128 480 128 c 256,37,38
 493 128 493 128 502.5 137.5 c 128,-1,39
 512 147 512 147 512 160 c 2,40,-1
 512 384 l 2,41,42
 512 451 512 451 499 498.5 c 128,-1,43
 486 546 486 546 460 577 c 1,44,-1
 460 577 l 1,0,1
EndSplineSet
EndChar

StartChar: i
Encoding: 105 105 76
Width: 192
Flags: W
LayerCount: 2
Fore
SplineSet
96 128 m 1,0,1
 83 128 83 128 73.5 137.5 c 128,-1,2
 64 147 64 147 64 160 c 2,3,-1
 64 608 l 2,4,5
 64 621 64 621 73.5 630.5 c 128,-1,6
 83 640 83 640 96 640 c 256,7,8
 109 640 109 640 118.5 630.5 c 128,-1,9
 128 621 128 621 128 608 c 2,10,-1
 128 160 l 2,11,12
 128 147 128 147 118.5 137.5 c 128,-1,13
 109 128 109 128 96 128 c 1,14,-1
 96 128 l 1,0,1
96 704 m 1,15,16
 83 704 83 704 73.5 713.5 c 128,-1,17
 64 723 64 723 64 736 c 2,18,-1
 64 800 l 2,19,20
 64 813 64 813 73.5 822.5 c 128,-1,21
 83 832 83 832 96 832 c 256,22,23
 109 832 109 832 118.5 822.5 c 128,-1,24
 128 813 128 813 128 800 c 2,25,-1
 128 736 l 2,26,27
 128 723 128 723 118.5 713.5 c 128,-1,28
 109 704 109 704 96 704 c 1,29,-1
 96 704 l 1,15,16
EndSplineSet
EndChar

StartChar: j
Encoding: 106 106 77
Width: 256
Flags: W
LayerCount: 2
Fore
SplineSet
-32 -63 m 1,0,1
 -45 -63 -45 -63 -54 -54.5 c 128,-1,2
 -63 -46 -63 -46 -64 -33 c 256,3,4
 -65 -20 -65 -20 -56 -10 c 128,-1,5
 -47 0 -47 0 -34 1 c 0,6,7
 12 3 12 3 43 14 c 128,-1,8
 74 25 74 25 92 44 c 0,9,10
 110 65 110 65 119 101 c 128,-1,11
 128 137 128 137 128 192 c 2,12,-1
 128 608 l 2,13,14
 128 621 128 621 137.5 630.5 c 128,-1,15
 147 640 147 640 160 640 c 256,16,17
 173 640 173 640 182.5 630.5 c 128,-1,18
 192 621 192 621 192 608 c 2,19,-1
 192 192 l 2,20,21
 192 125 192 125 179 78.5 c 128,-1,22
 166 32 166 32 139 2 c 0,23,24
 113 -28 113 -28 71.5 -44 c 128,-1,25
 30 -60 30 -60 -30 -63 c 0,26,27
 -31 -63 -31 -63 -31.5 -63 c 128,-1,28
 -32 -63 -32 -63 -32 -63 c 1,29,-1
 -32 -63 l 1,0,1
160 704 m 1,30,31
 147 704 147 704 137.5 713.5 c 128,-1,32
 128 723 128 723 128 736 c 2,33,-1
 128 800 l 2,34,35
 128 813 128 813 137.5 822.5 c 128,-1,36
 147 832 147 832 160 832 c 256,37,38
 173 832 173 832 182.5 822.5 c 128,-1,39
 192 813 192 813 192 800 c 2,40,-1
 192 736 l 2,41,42
 192 723 192 723 182.5 713.5 c 128,-1,43
 173 704 173 704 160 704 c 1,44,-1
 160 704 l 1,30,31
EndSplineSet
EndChar

StartChar: k
Encoding: 107 107 78
Width: 448
Flags: W
LayerCount: 2
Fore
SplineSet
202 413 m 1,0,-1
 375 585 l 2,1,2
 384 595 384 595 384 608 c 128,-1,3
 384 621 384 621 375 631 c 0,4,5
 365 640 365 640 352 640 c 128,-1,6
 339 640 339 640 329 631 c 2,7,-1
 128 429 l 1,8,-1
 128 800 l 2,9,10
 128 813 128 813 118.5 822.5 c 128,-1,11
 109 832 109 832 96 832 c 256,12,13
 83 832 83 832 73.5 822.5 c 128,-1,14
 64 813 64 813 64 800 c 2,15,-1
 64 160 l 2,16,17
 64 147 64 147 73.5 137.5 c 128,-1,18
 83 128 83 128 96 128 c 256,19,20
 109 128 109 128 118.5 137.5 c 128,-1,21
 128 147 128 147 128 160 c 2,22,-1
 128 405 l 1,23,-1
 326 141 l 2,24,25
 331 135 331 135 338 131.5 c 128,-1,26
 345 128 345 128 352 128 c 0,27,28
 357 128 357 128 362 129.5 c 128,-1,29
 367 131 367 131 371 134 c 0,30,31
 382 142 382 142 384 155.5 c 128,-1,32
 386 169 386 169 378 179 c 2,33,-1
 202 413 l 1,34,-1
 202 413 l 1,0,-1
EndSplineSet
EndChar

StartChar: l
Encoding: 108 108 79
Width: 192
Flags: W
LayerCount: 2
Fore
SplineSet
160 192 m 1,0,-1
 160 192 l 1,1,2
 158 192 158 192 152 193 c 128,-1,3
 146 194 146 194 141 197 c 256,4,5
 136 200 136 200 132 205.5 c 128,-1,6
 128 211 128 211 128 224 c 2,7,-1
 128 800 l 2,8,9
 128 813 128 813 118.5 822.5 c 128,-1,10
 109 832 109 832 96 832 c 256,11,12
 83 832 83 832 73.5 822.5 c 128,-1,13
 64 813 64 813 64 800 c 2,14,-1
 64 224 l 2,15,16
 64 171 64 171 97.5 149.5 c 128,-1,17
 131 128 131 128 160 128 c 0,18,19
 173 128 173 128 182.5 137.5 c 128,-1,20
 192 147 192 147 192 160 c 256,21,22
 192 173 192 173 182.5 182.5 c 128,-1,23
 173 192 173 192 160 192 c 1,24,-1
 160 192 l 1,0,-1
EndSplineSet
EndChar

StartChar: m
Encoding: 109 109 80
Width: 960
Flags: W
LayerCount: 2
Fore
SplineSet
844 577 m 1,0,1
 816 609 816 609 773.5 624.5 c 128,-1,2
 731 640 731 640 672 640 c 256,3,4
 613 640 613 640 570.5 624.5 c 128,-1,5
 528 609 528 609 500 577 c 0,6,7
 495 570 495 570 489.5 562.5 c 128,-1,8
 484 555 484 555 480 547 c 1,9,10
 476 555 476 555 470.5 562.5 c 128,-1,11
 465 570 465 570 460 577 c 0,12,13
 432 609 432 609 389.5 624.5 c 128,-1,14
 347 640 347 640 288 640 c 0,15,16
 235 640 235 640 195 627.5 c 128,-1,17
 155 615 155 615 128 589 c 1,18,-1
 128 608 l 2,19,20
 128 621 128 621 118.5 630.5 c 128,-1,21
 109 640 109 640 96 640 c 256,22,23
 83 640 83 640 73.5 630.5 c 128,-1,24
 64 621 64 621 64 608 c 2,25,-1
 64 160 l 2,26,27
 64 147 64 147 73.5 137.5 c 128,-1,28
 83 128 83 128 96 128 c 256,29,30
 109 128 109 128 118.5 137.5 c 128,-1,31
 128 147 128 147 128 160 c 2,32,-1
 128 384 l 2,33,34
 128 439 128 439 137 476 c 128,-1,35
 146 513 146 513 165 535 c 0,36,37
 183 556 183 556 213 566 c 128,-1,38
 243 576 243 576 288 576 c 256,39,40
 333 576 333 576 363 566 c 128,-1,41
 393 556 393 556 411 535 c 0,42,43
 430 513 430 513 439 476 c 128,-1,44
 448 439 448 439 448 384 c 2,45,-1
 448 160 l 2,46,47
 448 147 448 147 457.5 137.5 c 128,-1,48
 467 128 467 128 480 128 c 256,49,50
 493 128 493 128 502.5 137.5 c 128,-1,51
 512 147 512 147 512 160 c 2,52,-1
 512 384 l 2,53,54
 512 439 512 439 521 476 c 128,-1,55
 530 513 530 513 549 535 c 0,56,57
 567 556 567 556 597 566 c 128,-1,58
 627 576 627 576 672 576 c 256,59,60
 717 576 717 576 747 566 c 128,-1,61
 777 556 777 556 795 535 c 0,62,63
 814 513 814 513 823 476 c 128,-1,64
 832 439 832 439 832 384 c 2,65,-1
 832 160 l 2,66,67
 832 147 832 147 841.5 137.5 c 128,-1,68
 851 128 851 128 864 128 c 256,69,70
 877 128 877 128 886.5 137.5 c 128,-1,71
 896 147 896 147 896 160 c 2,72,-1
 896 384 l 2,73,74
 896 451 896 451 883 498.5 c 128,-1,75
 870 546 870 546 844 577 c 1,76,-1
 844 577 l 1,0,1
EndSplineSet
EndChar

StartChar: n
Encoding: 110 110 81
Width: 576
Flags: W
LayerCount: 2
Fore
SplineSet
460 577 m 1,0,1
 432 609 432 609 389.5 624.5 c 128,-1,2
 347 640 347 640 288 640 c 0,3,4
 235 640 235 640 195 627.5 c 128,-1,5
 155 615 155 615 128 589 c 1,6,-1
 128 608 l 2,7,8
 128 621 128 621 118.5 630.5 c 128,-1,9
 109 640 109 640 96 640 c 256,10,11
 83 640 83 640 73.5 630.5 c 128,-1,12
 64 621 64 621 64 608 c 2,13,-1
 64 160 l 2,14,15
 64 147 64 147 73.5 137.5 c 128,-1,16
 83 128 83 128 96 128 c 256,17,18
 109 128 109 128 118.5 137.5 c 128,-1,19
 128 147 128 147 128 160 c 2,20,-1
 128 384 l 2,21,22
 128 439 128 439 137 476 c 128,-1,23
 146 513 146 513 165 535 c 0,24,25
 183 556 183 556 213 566 c 128,-1,26
 243 576 243 576 288 576 c 256,27,28
 333 576 333 576 363 566 c 128,-1,29
 393 556 393 556 411 535 c 0,30,31
 430 513 430 513 439 476 c 128,-1,32
 448 439 448 439 448 384 c 2,33,-1
 448 160 l 2,34,35
 448 147 448 147 457.5 137.5 c 128,-1,36
 467 128 467 128 480 128 c 256,37,38
 493 128 493 128 502.5 137.5 c 128,-1,39
 512 147 512 147 512 160 c 2,40,-1
 512 384 l 2,41,42
 512 451 512 451 499 498.5 c 128,-1,43
 486 546 486 546 460 577 c 1,44,-1
 460 577 l 1,0,1
EndSplineSet
EndChar

StartChar: o
Encoding: 111 111 82
Width: 640
Flags: W
LayerCount: 2
Fore
SplineSet
320 128 m 1,0,1
 252 128 252 128 204.5 143 c 128,-1,2
 157 158 157 158 125 189 c 0,3,4
 94 221 94 221 79 268.5 c 128,-1,5
 64 316 64 316 64 384 c 256,6,7
 64 452 64 452 79 499.5 c 128,-1,8
 94 547 94 547 125 579 c 0,9,10
 157 610 157 610 204.5 625 c 128,-1,11
 252 640 252 640 320 640 c 256,12,13
 388 640 388 640 435.5 625 c 128,-1,14
 483 610 483 610 515 579 c 0,15,16
 546 547 546 547 561 499.5 c 128,-1,17
 576 452 576 452 576 384 c 256,18,19
 576 316 576 316 561 268.5 c 128,-1,20
 546 221 546 221 515 189 c 0,21,22
 483 158 483 158 435.5 143 c 128,-1,23
 388 128 388 128 320 128 c 1,24,-1
 320 128 l 1,0,1
320 576 m 1,25,26
 265 576 265 576 228.5 565.5 c 128,-1,27
 192 555 192 555 171 533 c 0,28,29
 149 512 149 512 138.5 475.5 c 128,-1,30
 128 439 128 439 128 384 c 256,31,32
 128 329 128 329 138.5 292.5 c 128,-1,33
 149 256 149 256 171 235 c 0,34,35
 192 213 192 213 228.5 202.5 c 128,-1,36
 265 192 265 192 320 192 c 256,37,38
 375 192 375 192 411.5 202.5 c 128,-1,39
 448 213 448 213 469 235 c 0,40,41
 491 256 491 256 501.5 292.5 c 128,-1,42
 512 329 512 329 512 384 c 256,43,44
 512 439 512 439 501.5 475.5 c 128,-1,45
 491 512 491 512 469 533 c 0,46,47
 448 555 448 555 411.5 565.5 c 128,-1,48
 375 576 375 576 320 576 c 1,49,-1
 320 576 l 1,25,26
EndSplineSet
EndChar

StartChar: p
Encoding: 112 112 83
Width: 640
Flags: W
LayerCount: 2
Fore
SplineSet
515 579 m 1,0,1
 483 610 483 610 435.5 625 c 128,-1,2
 388 640 388 640 320 640 c 0,3,4
 253 640 253 640 206 625.5 c 128,-1,5
 159 611 159 611 128 581 c 1,6,-1
 128 608 l 2,7,8
 128 621 128 621 118.5 630.5 c 128,-1,9
 109 640 109 640 96 640 c 256,10,11
 83 640 83 640 73.5 630.5 c 128,-1,12
 64 621 64 621 64 608 c 2,13,-1
 64 -32 l 2,14,15
 64 -45 64 -45 73.5 -54.5 c 128,-1,16
 83 -64 83 -64 96 -64 c 256,17,18
 109 -64 109 -64 118.5 -54.5 c 128,-1,19
 128 -45 128 -45 128 -32 c 2,20,-1
 128 187 l 1,21,22
 159 157 159 157 206 142.5 c 128,-1,23
 253 128 253 128 320 128 c 0,24,25
 388 128 388 128 435.5 143 c 128,-1,26
 483 158 483 158 515 189 c 0,27,28
 546 221 546 221 561 268.5 c 128,-1,29
 576 316 576 316 576 384 c 256,30,31
 576 452 576 452 561 499.5 c 128,-1,32
 546 547 546 547 515 579 c 1,33,-1
 515 579 l 1,0,1
469 235 m 1,34,35
 448 213 448 213 411.5 202.5 c 128,-1,36
 375 192 375 192 320 192 c 256,37,38
 265 192 265 192 228.5 202.5 c 128,-1,39
 192 213 192 213 171 235 c 0,40,41
 149 256 149 256 138.5 292.5 c 128,-1,42
 128 329 128 329 128 384 c 256,43,44
 128 439 128 439 138.5 475.5 c 128,-1,45
 149 512 149 512 171 533 c 0,46,47
 192 555 192 555 228.5 565.5 c 128,-1,48
 265 576 265 576 320 576 c 256,49,50
 375 576 375 576 411.5 565.5 c 128,-1,51
 448 555 448 555 469 533 c 0,52,53
 491 512 491 512 501.5 475.5 c 128,-1,54
 512 439 512 439 512 384 c 256,55,56
 512 329 512 329 501.5 292.5 c 128,-1,57
 491 256 491 256 469 235 c 1,58,-1
 469 235 l 1,34,35
EndSplineSet
EndChar

StartChar: q
Encoding: 113 113 84
Width: 640
Flags: W
LayerCount: 2
Fore
SplineSet
544 640 m 1,0,1
 531 640 531 640 521.5 630.5 c 128,-1,2
 512 621 512 621 512 608 c 2,3,-1
 512 581 l 1,4,5
 481 611 481 611 434 625.5 c 128,-1,6
 387 640 387 640 320 640 c 0,7,8
 252 640 252 640 204.5 625 c 128,-1,9
 157 610 157 610 125 579 c 0,10,11
 94 547 94 547 79 499.5 c 128,-1,12
 64 452 64 452 64 384 c 256,13,14
 64 316 64 316 79 268.5 c 128,-1,15
 94 221 94 221 125 189 c 0,16,17
 157 158 157 158 204.5 143 c 128,-1,18
 252 128 252 128 320 128 c 0,19,20
 387 128 387 128 434 142.5 c 128,-1,21
 481 157 481 157 512 187 c 1,22,-1
 512 -32 l 2,23,24
 512 -45 512 -45 521.5 -54.5 c 128,-1,25
 531 -64 531 -64 544 -64 c 256,26,27
 557 -64 557 -64 566.5 -54.5 c 128,-1,28
 576 -45 576 -45 576 -32 c 2,29,-1
 576 608 l 2,30,31
 576 621 576 621 566.5 630.5 c 128,-1,32
 557 640 557 640 544 640 c 1,33,-1
 544 640 l 1,0,1
469 235 m 1,34,35
 448 213 448 213 411.5 202.5 c 128,-1,36
 375 192 375 192 320 192 c 256,37,38
 265 192 265 192 228.5 202.5 c 128,-1,39
 192 213 192 213 171 235 c 0,40,41
 149 256 149 256 138.5 292.5 c 128,-1,42
 128 329 128 329 128 384 c 256,43,44
 128 439 128 439 138.5 475.5 c 128,-1,45
 149 512 149 512 171 533 c 0,46,47
 192 555 192 555 228.5 565.5 c 128,-1,48
 265 576 265 576 320 576 c 256,49,50
 375 576 375 576 411.5 565.5 c 128,-1,51
 448 555 448 555 469 533 c 0,52,53
 491 512 491 512 501.5 475.5 c 128,-1,54
 512 439 512 439 512 384 c 256,55,56
 512 329 512 329 501.5 292.5 c 128,-1,57
 491 256 491 256 469 235 c 1,58,-1
 469 235 l 1,34,35
EndSplineSet
EndChar

StartChar: r
Encoding: 114 114 85
Width: 384
Flags: W
LayerCount: 2
Fore
SplineSet
288 640 m 1,0,1
 235 640 235 640 195 627.5 c 128,-1,2
 155 615 155 615 128 589 c 1,3,-1
 128 608 l 2,4,5
 128 621 128 621 118.5 630.5 c 128,-1,6
 109 640 109 640 96 640 c 256,7,8
 83 640 83 640 73.5 630.5 c 128,-1,9
 64 621 64 621 64 608 c 2,10,-1
 64 160 l 2,11,12
 64 147 64 147 73.5 137.5 c 128,-1,13
 83 128 83 128 96 128 c 256,14,15
 109 128 109 128 118.5 137.5 c 128,-1,16
 128 147 128 147 128 160 c 2,17,-1
 128 384 l 2,18,19
 128 439 128 439 137 476 c 128,-1,20
 146 513 146 513 165 535 c 0,21,22
 183 556 183 556 213 566 c 128,-1,23
 243 576 243 576 288 576 c 0,24,25
 301 576 301 576 310.5 585.5 c 128,-1,26
 320 595 320 595 320 608 c 256,27,28
 320 621 320 621 310.5 630.5 c 128,-1,29
 301 640 301 640 288 640 c 1,30,-1
 288 640 l 1,0,1
EndSplineSet
EndChar

StartChar: s
Encoding: 115 115 86
Width: 512
Flags: W
LayerCount: 2
Fore
SplineSet
256 128 m 1,0,1
 200 128 200 128 150 151.5 c 128,-1,2
 100 175 100 175 73 201 c 0,3,4
 64 211 64 211 64 224 c 128,-1,5
 64 237 64 237 73 247 c 0,6,7
 83 256 83 256 96 256 c 128,-1,8
 109 256 109 256 119 247 c 0,9,10
 139 226 139 226 177 209 c 128,-1,11
 215 192 215 192 256 192 c 0,12,13
 292 192 292 192 319.5 199.5 c 128,-1,14
 347 207 347 207 362 222 c 0,15,16
 376 234 376 234 380 248 c 128,-1,17
 384 262 384 262 384 272 c 0,18,19
 384 305 384 305 348 321 c 128,-1,20
 312 337 312 337 248 353 c 0,21,22
 217 361 217 361 186.5 370 c 128,-1,23
 156 379 156 379 131 392 c 0,24,25
 97 411 97 411 80.5 437 c 128,-1,26
 64 463 64 463 64 496 c 0,27,28
 64 548 64 548 107 594 c 128,-1,29
 150 640 150 640 256 640 c 0,30,31
 313 640 313 640 362.5 616.5 c 128,-1,32
 412 593 412 593 435 564 c 0,33,34
 444 554 444 554 442.5 541 c 128,-1,35
 441 528 441 528 431 519 c 0,36,37
 421 511 421 511 407.5 512 c 128,-1,38
 394 513 394 513 386 524 c 0,39,40
 370 542 370 542 333 559 c 128,-1,41
 296 576 296 576 256 576 c 0,42,43
 220 576 220 576 192.5 568.5 c 128,-1,44
 165 561 165 561 150 546 c 0,45,46
 136 534 136 534 132 520 c 128,-1,47
 128 506 128 506 128 496 c 0,48,49
 128 463 128 463 164 447 c 128,-1,50
 200 431 200 431 264 415 c 0,51,52
 295 407 295 407 325.5 398 c 128,-1,53
 356 389 356 389 381 376 c 0,54,55
 415 357 415 357 431.5 331 c 128,-1,56
 448 305 448 305 448 272 c 0,57,58
 448 220 448 220 405 174 c 128,-1,59
 362 128 362 128 256 128 c 1,60,-1
 256 128 l 1,0,1
EndSplineSet
EndChar

StartChar: t
Encoding: 116 116 87
Width: 384
Flags: W
LayerCount: 2
Fore
SplineSet
288 192 m 1,0,1
 231 192 231 192 200 198 c 128,-1,2
 169 204 169 204 155 219 c 0,3,4
 140 233 140 233 134 264 c 128,-1,5
 128 295 128 295 128 352 c 2,6,-1
 128 576 l 1,7,-1
 288 576 l 2,8,9
 301 576 301 576 310.5 585.5 c 128,-1,10
 320 595 320 595 320 608 c 256,11,12
 320 621 320 621 310.5 630.5 c 128,-1,13
 301 640 301 640 288 640 c 2,14,-1
 128 640 l 1,15,-1
 128 800 l 2,16,17
 128 813 128 813 118.5 822.5 c 128,-1,18
 109 832 109 832 96 832 c 256,19,20
 83 832 83 832 73.5 822.5 c 128,-1,21
 64 813 64 813 64 800 c 2,22,-1
 64 352 l 2,23,24
 64 290 64 290 72.5 246 c 128,-1,25
 81 202 81 202 109 173 c 0,26,27
 138 145 138 145 182 136.5 c 128,-1,28
 226 128 226 128 288 128 c 0,29,30
 301 128 301 128 310.5 137.5 c 128,-1,31
 320 147 320 147 320 160 c 256,32,33
 320 173 320 173 310.5 182.5 c 128,-1,34
 301 192 301 192 288 192 c 1,35,-1
 288 192 l 1,0,1
EndSplineSet
EndChar

StartChar: u
Encoding: 117 117 88
Width: 576
Flags: W
LayerCount: 2
Fore
SplineSet
480 640 m 1,0,1
 467 640 467 640 457.5 630.5 c 128,-1,2
 448 621 448 621 448 608 c 2,3,-1
 448 384 l 2,4,5
 448 329 448 329 439 292 c 128,-1,6
 430 255 430 255 411 233 c 0,7,8
 393 212 393 212 363 202 c 128,-1,9
 333 192 333 192 288 192 c 256,10,11
 243 192 243 192 213 202 c 128,-1,12
 183 212 183 212 165 233 c 0,13,14
 146 255 146 255 137 292 c 128,-1,15
 128 329 128 329 128 384 c 2,16,-1
 128 608 l 2,17,18
 128 621 128 621 118.5 630.5 c 128,-1,19
 109 640 109 640 96 640 c 256,20,21
 83 640 83 640 73.5 630.5 c 128,-1,22
 64 621 64 621 64 608 c 2,23,-1
 64 384 l 2,24,25
 64 317 64 317 77 269.5 c 128,-1,26
 90 222 90 222 116 191 c 0,27,28
 144 159 144 159 186.5 143.5 c 128,-1,29
 229 128 229 128 288 128 c 0,30,31
 341 128 341 128 381 140.5 c 128,-1,32
 421 153 421 153 448 179 c 1,33,-1
 448 160 l 2,34,35
 448 147 448 147 457.5 137.5 c 128,-1,36
 467 128 467 128 480 128 c 256,37,38
 493 128 493 128 502.5 137.5 c 128,-1,39
 512 147 512 147 512 160 c 2,40,-1
 512 608 l 2,41,42
 512 621 512 621 502.5 630.5 c 128,-1,43
 493 640 493 640 480 640 c 1,44,-1
 480 640 l 1,0,1
EndSplineSet
EndChar

StartChar: v
Encoding: 118 118 89
Width: 576
Flags: W
LayerCount: 2
Fore
SplineSet
288 128 m 1,0,1
 278 128 278 128 270 133.5 c 128,-1,2
 262 139 262 139 259 147 c 2,3,-1
 67 595 l 2,4,5
 61 608 61 608 66 620 c 128,-1,6
 71 632 71 632 83 637 c 0,7,8
 96 643 96 643 108 638 c 128,-1,9
 120 633 120 633 125 621 c 2,10,-1
 288 241 l 1,11,-1
 451 621 l 2,12,13
 456 633 456 633 468 638 c 128,-1,14
 480 643 480 643 493 637 c 0,15,16
 505 632 505 632 510 620 c 128,-1,17
 515 608 515 608 509 595 c 2,18,-1
 317 147 l 2,19,20
 314 139 314 139 306 133.5 c 128,-1,21
 298 128 298 128 288 128 c 1,22,-1
 288 128 l 1,0,1
EndSplineSet
EndChar

StartChar: w
Encoding: 119 119 90
Width: 960
Flags: W
LayerCount: 2
Fore
SplineSet
877 637 m 1,0,1
 864 643 864 643 852 638 c 128,-1,2
 840 633 840 633 835 621 c 2,3,-1
 672 241 l 1,4,-1
 509 621 l 2,5,6
 507 626 507 626 503 630.5 c 128,-1,7
 499 635 499 635 493 637 c 0,8,9
 480 643 480 643 468 638 c 128,-1,10
 456 633 456 633 451 621 c 2,11,-1
 288 241 l 1,12,-1
 125 621 l 2,13,14
 120 633 120 633 108 638 c 128,-1,15
 96 643 96 643 83 637 c 0,16,17
 71 632 71 632 66 620 c 128,-1,18
 61 608 61 608 67 595 c 2,19,-1
 259 147 l 2,20,21
 262 139 262 139 270 133.5 c 128,-1,22
 278 128 278 128 288 128 c 256,23,24
 298 128 298 128 306 133.5 c 128,-1,25
 314 139 314 139 317 147 c 2,26,-1
 480 527 l 1,27,-1
 643 147 l 2,28,29
 646 139 646 139 654 133.5 c 128,-1,30
 662 128 662 128 672 128 c 256,31,32
 682 128 682 128 690 133.5 c 128,-1,33
 698 139 698 139 701 147 c 2,34,-1
 893 595 l 2,35,36
 899 608 899 608 894 620 c 128,-1,37
 889 632 889 632 877 637 c 1,38,-1
 877 637 l 1,0,1
EndSplineSet
EndChar

StartChar: x
Encoding: 120 120 91
Width: 576
Flags: W
LayerCount: 2
Fore
SplineSet
330 384 m 1,0,-1
 504 587 l 2,1,2
 513 597 513 597 512 610.5 c 128,-1,3
 511 624 511 624 501 632 c 0,4,5
 491 641 491 641 477.5 640 c 128,-1,6
 464 639 464 639 456 629 c 2,7,-1
 288 433 l 1,8,-1
 120 629 l 2,9,10
 112 639 112 639 98.5 640 c 128,-1,11
 85 641 85 641 75 632 c 0,12,13
 65 624 65 624 64 610.5 c 128,-1,14
 63 597 63 597 72 587 c 2,15,-1
 246 384 l 1,16,-1
 72 181 l 2,17,18
 63 171 63 171 64 157.5 c 128,-1,19
 65 144 65 144 75 136 c 0,20,21
 80 132 80 132 85 130 c 128,-1,22
 90 128 90 128 96 128 c 0,23,24
 103 128 103 128 109.5 131 c 128,-1,25
 116 134 116 134 120 139 c 2,26,-1
 288 335 l 1,27,-1
 456 139 l 2,28,29
 460 134 460 134 466.5 131 c 128,-1,30
 473 128 473 128 480 128 c 0,31,32
 486 128 486 128 491 130 c 128,-1,33
 496 132 496 132 501 136 c 0,34,35
 511 144 511 144 512 157.5 c 128,-1,36
 513 171 513 171 504 181 c 2,37,-1
 330 384 l 1,38,-1
 330 384 l 1,0,-1
EndSplineSet
EndChar

StartChar: y
Encoding: 121 121 92
Width: 576
Flags: W
LayerCount: 2
Fore
SplineSet
493 637 m 1,0,1
 480 643 480 643 468 638 c 128,-1,2
 456 633 456 633 451 621 c 2,3,-1
 288 241 l 1,4,-1
 125 621 l 2,5,6
 120 633 120 633 108 638 c 128,-1,7
 96 643 96 643 83 637 c 0,8,9
 71 632 71 632 66 620 c 128,-1,10
 61 608 61 608 67 595 c 2,11,-1
 253 160 l 1,12,13
 205 50 205 50 177.5 25 c 128,-1,14
 150 0 150 0 96 0 c 0,15,16
 83 0 83 0 73.5 -9.5 c 128,-1,17
 64 -19 64 -19 64 -32 c 256,18,19
 64 -45 64 -45 73.5 -54.5 c 128,-1,20
 83 -64 83 -64 96 -64 c 0,21,22
 129 -64 129 -64 162.5 -56 c 128,-1,23
 196 -48 196 -48 225 -18 c 0,24,25
 249 6 249 6 270 45.5 c 128,-1,26
 291 85 291 85 317 147 c 2,27,-1
 509 595 l 2,28,29
 515 608 515 608 510 620 c 128,-1,30
 505 632 505 632 493 637 c 1,31,-1
 493 637 l 1,0,1
EndSplineSet
EndChar

StartChar: z
Encoding: 122 122 93
Width: 576
Flags: W
LayerCount: 2
Fore
SplineSet
480 128 m 1,0,-1
 96 128 l 2,1,2
 87 128 87 128 79 133 c 128,-1,3
 71 138 71 138 67 147 c 0,4,5
 63 155 63 155 64.5 164.5 c 128,-1,6
 66 174 66 174 72 181 c 2,7,-1
 410 576 l 1,8,-1
 96 576 l 2,9,10
 83 576 83 576 73.5 585.5 c 128,-1,11
 64 595 64 595 64 608 c 256,12,13
 64 621 64 621 73.5 630.5 c 128,-1,14
 83 640 83 640 96 640 c 2,15,-1
 480 640 l 2,16,17
 489 640 489 640 497 635 c 128,-1,18
 505 630 505 630 509 621 c 0,19,20
 513 613 513 613 511.5 603.5 c 128,-1,21
 510 594 510 594 504 587 c 2,22,-1
 166 192 l 1,23,-1
 480 192 l 2,24,25
 493 192 493 192 502.5 182.5 c 128,-1,26
 512 173 512 173 512 160 c 256,27,28
 512 147 512 147 502.5 137.5 c 128,-1,29
 493 128 493 128 480 128 c 1,30,-1
 480 128 l 1,0,-1
EndSplineSet
EndChar

StartChar: braceleft
Encoding: 123 123 94
Width: 448
Flags: W
LayerCount: 2
Fore
SplineSet
352 0 m 1,0,-1
 320 0 l 2,1,2
 294 0 294 0 275 19 c 128,-1,3
 256 38 256 38 256 64 c 2,4,-1
 256 384 l 2,5,6
 256 413 256 413 244 437.5 c 128,-1,7
 232 462 232 462 213 480 c 1,8,9
 232 498 232 498 244 522.5 c 128,-1,10
 256 547 256 547 256 576 c 2,11,-1
 256 832 l 2,12,13
 256 858 256 858 275 877 c 128,-1,14
 294 896 294 896 320 896 c 2,15,-1
 352 896 l 2,16,17
 365 896 365 896 374.5 905.5 c 128,-1,18
 384 915 384 915 384 928 c 256,19,20
 384 941 384 941 374.5 950.5 c 128,-1,21
 365 960 365 960 352 960 c 2,22,-1
 320 960 l 2,23,24
 267 960 267 960 229.5 922.5 c 128,-1,25
 192 885 192 885 192 832 c 2,26,-1
 192 576 l 2,27,28
 192 550 192 550 173 531 c 128,-1,29
 154 512 154 512 128 512 c 2,30,-1
 96 512 l 2,31,32
 83 512 83 512 73.5 502.5 c 128,-1,33
 64 493 64 493 64 480 c 256,34,35
 64 467 64 467 73.5 457.5 c 128,-1,36
 83 448 83 448 96 448 c 2,37,-1
 128 448 l 2,38,39
 154 448 154 448 173 429 c 128,-1,40
 192 410 192 410 192 384 c 2,41,-1
 192 64 l 2,42,43
 192 11 192 11 229.5 -26.5 c 128,-1,44
 267 -64 267 -64 320 -64 c 2,45,-1
 352 -64 l 2,46,47
 365 -64 365 -64 374.5 -54.5 c 128,-1,48
 384 -45 384 -45 384 -32 c 256,49,50
 384 -19 384 -19 374.5 -9.5 c 128,-1,51
 365 0 365 0 352 0 c 1,52,-1
 352 0 l 1,0,-1
EndSplineSet
EndChar

StartChar: bar
Encoding: 124 124 95
Width: 192
Flags: W
LayerCount: 2
Fore
SplineSet
96 -64 m 1,0,1
 83 -64 83 -64 73.5 -54.5 c 128,-1,2
 64 -45 64 -45 64 -32 c 2,3,-1
 64 928 l 2,4,5
 64 941 64 941 73.5 950.5 c 128,-1,6
 83 960 83 960 96 960 c 256,7,8
 109 960 109 960 118.5 950.5 c 128,-1,9
 128 941 128 941 128 928 c 2,10,-1
 128 -32 l 2,11,12
 128 -45 128 -45 118.5 -54.5 c 128,-1,13
 109 -64 109 -64 96 -64 c 1,14,-1
 96 -64 l 1,0,1
EndSplineSet
EndChar

StartChar: braceright
Encoding: 125 125 96
Width: 448
Flags: W
LayerCount: 2
Fore
SplineSet
96 0 m 1,0,-1
 128 0 l 2,1,2
 154 0 154 0 173 19 c 128,-1,3
 192 38 192 38 192 64 c 2,4,-1
 192 384 l 2,5,6
 192 413 192 413 204 437.5 c 128,-1,7
 216 462 216 462 235 480 c 1,8,9
 216 498 216 498 204 522.5 c 128,-1,10
 192 547 192 547 192 576 c 2,11,-1
 192 832 l 2,12,13
 192 858 192 858 173 877 c 128,-1,14
 154 896 154 896 128 896 c 2,15,-1
 96 896 l 2,16,17
 83 896 83 896 73.5 905.5 c 128,-1,18
 64 915 64 915 64 928 c 256,19,20
 64 941 64 941 73.5 950.5 c 128,-1,21
 83 960 83 960 96 960 c 2,22,-1
 128 960 l 2,23,24
 181 960 181 960 218.5 922.5 c 128,-1,25
 256 885 256 885 256 832 c 2,26,-1
 256 576 l 2,27,28
 256 550 256 550 275 531 c 128,-1,29
 294 512 294 512 320 512 c 2,30,-1
 352 512 l 2,31,32
 365 512 365 512 374.5 502.5 c 128,-1,33
 384 493 384 493 384 480 c 256,34,35
 384 467 384 467 374.5 457.5 c 128,-1,36
 365 448 365 448 352 448 c 2,37,-1
 320 448 l 2,38,39
 294 448 294 448 275 429 c 128,-1,40
 256 410 256 410 256 384 c 2,41,-1
 256 64 l 2,42,43
 256 11 256 11 218.5 -26.5 c 128,-1,44
 181 -64 181 -64 128 -64 c 2,45,-1
 96 -64 l 2,46,47
 83 -64 83 -64 73.5 -54.5 c 128,-1,48
 64 -45 64 -45 64 -32 c 256,49,50
 64 -19 64 -19 73.5 -9.5 c 128,-1,51
 83 0 83 0 96 0 c 1,52,-1
 96 0 l 1,0,-1
EndSplineSet
EndChar

StartChar: asciitilde
Encoding: 126 126 97
Width: 640
Flags: W
LayerCount: 2
Fore
SplineSet
96 320 m 5,0,1
 93 320 93 320 90.5 320.5 c 132,-1,2
 88 321 88 321 85 322 c 4,3,4
 73 326 73 326 67 338 c 132,-1,5
 61 350 61 350 66 363 c 4,6,7
 87 422 87 422 113.5 455 c 132,-1,8
 140 488 140 488 173 498 c 4,9,10
 217 512 217 512 259 490 c 132,-1,11
 301 468 301 468 338 442 c 4,12,13
 368 421 368 421 397 404.5 c 132,-1,14
 426 388 426 388 448 395 c 4,15,16
 465 400 465 400 482 424.5 c 132,-1,17
 499 449 499 449 514 491 c 4,18,19
 518 503 518 503 530 509 c 132,-1,20
 542 515 542 515 555 510 c 4,21,22
 567 506 567 506 573 494 c 132,-1,23
 579 482 579 482 574 469 c 4,24,25
 553 410 553 410 526.5 377 c 132,-1,26
 500 344 500 344 467 334 c 4,27,28
 459 331 459 331 451.5 330 c 132,-1,29
 444 329 444 329 436 329 c 4,30,31
 400 329 400 329 366.5 348.5 c 132,-1,32
 333 368 333 368 302 390 c 4,33,34
 272 411 272 411 243 427.5 c 132,-1,35
 214 444 214 444 192 437 c 4,36,37
 175 432 175 432 158 407.5 c 132,-1,38
 141 383 141 383 126 341 c 4,39,40
 123 331 123 331 114.5 325.5 c 132,-1,41
 106 320 106 320 96 320 c 5,42,-1
 96 320 l 5,0,1
EndSplineSet
EndChar

StartChar: copyright
Encoding: 169 169 98
Width: 832
Flags: W
LayerCount: 2
Fore
SplineSet
416 320 m 1,0,1
 372 320 372 320 342.5 329 c 128,-1,2
 313 338 313 338 293 357 c 0,3,4
 274 377 274 377 265 406.5 c 128,-1,5
 256 436 256 436 256 480 c 256,6,7
 256 524 256 524 265 553.5 c 128,-1,8
 274 583 274 583 293 603 c 0,9,10
 313 622 313 622 342.5 631 c 128,-1,11
 372 640 372 640 416 640 c 256,12,13
 460 640 460 640 505 625.5 c 128,-1,14
 550 611 550 611 567 553 c 0,15,16
 571 541 571 541 564.5 529 c 128,-1,17
 558 517 558 517 546 513 c 0,18,19
 533 510 533 510 521.5 516 c 128,-1,20
 510 522 510 522 506 535 c 0,21,22
 501 552 501 552 485.5 564 c 128,-1,23
 470 576 470 576 416 576 c 0,24,25
 386 576 386 576 367 571.5 c 128,-1,26
 348 567 348 567 339 557 c 0,27,28
 329 548 329 548 324.5 529 c 128,-1,29
 320 510 320 510 320 480 c 256,30,31
 320 450 320 450 324.5 431 c 128,-1,32
 329 412 329 412 339 403 c 0,33,34
 348 393 348 393 367 388.5 c 128,-1,35
 386 384 386 384 416 384 c 0,36,37
 470 384 470 384 485.5 396 c 128,-1,38
 501 408 501 408 506 425 c 0,39,40
 510 438 510 438 521.5 444 c 128,-1,41
 533 450 533 450 546 447 c 0,42,43
 558 443 558 443 564.5 431 c 128,-1,44
 571 419 571 419 567 407 c 0,45,46
 550 349 550 349 505 334.5 c 128,-1,47
 460 320 460 320 416 320 c 1,48,-1
 416 320 l 1,0,1
416 128 m 1,49,50
 325 128 325 128 258.5 149 c 128,-1,51
 192 170 192 170 149 213 c 256,52,53
 106 256 106 256 85 322.5 c 128,-1,54
 64 389 64 389 64 480 c 256,55,56
 64 571 64 571 85 637.5 c 128,-1,57
 106 704 106 704 149 747 c 256,58,59
 192 790 192 790 258.5 811 c 128,-1,60
 325 832 325 832 416 832 c 256,61,62
 507 832 507 832 573.5 811 c 128,-1,63
 640 790 640 790 683 747 c 256,64,65
 726 704 726 704 747 637.5 c 128,-1,66
 768 571 768 571 768 480 c 256,67,68
 768 389 768 389 747 322.5 c 128,-1,69
 726 256 726 256 683 213 c 256,70,71
 640 170 640 170 573.5 149 c 128,-1,72
 507 128 507 128 416 128 c 1,73,-1
 416 128 l 1,49,50
416 768 m 1,74,75
 338 768 338 768 283 751.5 c 128,-1,76
 228 735 228 735 195 701 c 0,77,78
 161 668 161 668 144.5 613 c 128,-1,79
 128 558 128 558 128 480 c 256,80,81
 128 402 128 402 144.5 347 c 128,-1,82
 161 292 161 292 195 259 c 0,83,84
 228 225 228 225 283 208.5 c 128,-1,85
 338 192 338 192 416 192 c 256,86,87
 494 192 494 192 549 208.5 c 128,-1,88
 604 225 604 225 637 259 c 0,89,90
 671 292 671 292 687.5 347 c 128,-1,91
 704 402 704 402 704 480 c 256,92,93
 704 558 704 558 687.5 613 c 128,-1,94
 671 668 671 668 637 701 c 0,95,96
 604 735 604 735 549 751.5 c 128,-1,97
 494 768 494 768 416 768 c 1,98,-1
 416 768 l 1,74,75
EndSplineSet
EndChar

StartChar: uniE900
Encoding: 59648 59648 99
Width: 1024
Flags: W
LayerCount: 2
Fore
SplineSet
1024 370 m 1,0,-1
 512 767 l 1,1,-1
 0 370 l 1,2,-1
 0 532 l 1,3,-1
 512 929 l 1,4,-1
 1024 532 l 1,5,-1
 1024 370 l 1,0,-1
896 384 m 1,6,-1
 896 0 l 1,7,-1
 640 0 l 1,8,-1
 640 256 l 1,9,-1
 384 256 l 1,10,-1
 384 0 l 1,11,-1
 128 0 l 1,12,-1
 128 384 l 1,13,-1
 512 672 l 1,14,-1
 896 384 l 1,6,-1
EndSplineSet
Ligature2: "'liga' Ligaduras est+AOEA-ndar in Latin lookup 0 subtable" h o m e
Ligature2: "'liga' Ligaduras est+AOEA-ndar in Latin lookup 0 subtable" h o u s e
EndChar

StartChar: uniE901
Encoding: 59649 59649 100
Width: 1024
Flags: W
LayerCount: 2
Fore
SplineSet
512 928 m 1,0,-1
 0 416 l 1,1,-1
 96 320 l 1,2,-1
 192 416 l 1,3,-1
 192 0 l 1,4,-1
 448 0 l 1,5,-1
 448 192 l 1,6,-1
 576 192 l 1,7,-1
 576 0 l 1,8,-1
 832 0 l 1,9,-1
 832 416 l 1,10,-1
 928 320 l 1,11,-1
 1024 416 l 1,12,-1
 512 928 l 1,13,-1
 512 928 l 1,0,-1
512 512 m 1,14,15
 485 512 485 512 466.5 530.5 c 128,-1,16
 448 549 448 549 448 576 c 256,17,18
 448 603 448 603 466.5 621.5 c 128,-1,19
 485 640 485 640 512 640 c 256,20,21
 539 640 539 640 557.5 621.5 c 128,-1,22
 576 603 576 603 576 576 c 256,23,24
 576 549 576 549 557.5 530.5 c 128,-1,25
 539 512 539 512 512 512 c 1,26,-1
 512 512 l 1,14,15
EndSplineSet
Ligature2: "'liga' Ligaduras est+AOEA-ndar in Latin lookup 0 subtable" h o m e two
Ligature2: "'liga' Ligaduras est+AOEA-ndar in Latin lookup 0 subtable" h o u s e two
EndChar

StartChar: uniE902
Encoding: 59650 59650 101
Width: 1024
Flags: W
LayerCount: 2
Fore
SplineSet
1024 352 m 1,0,-1
 832 544 l 1,1,-1
 832 832 l 1,2,-1
 704 832 l 1,3,-1
 704 672 l 1,4,-1
 512 864 l 1,5,-1
 0 352 l 1,6,-1
 0 320 l 1,7,-1
 128 320 l 1,8,-1
 128 0 l 1,9,-1
 448 0 l 1,10,-1
 448 192 l 1,11,-1
 576 192 l 1,12,-1
 576 0 l 1,13,-1
 896 0 l 1,14,-1
 896 320 l 1,15,-1
 1024 320 l 1,16,-1
 1024 352 l 1,0,-1
EndSplineSet
Ligature2: "'liga' Ligaduras est+AOEA-ndar in Latin lookup 0 subtable" h o m e three
Ligature2: "'liga' Ligaduras est+AOEA-ndar in Latin lookup 0 subtable" h o u s e three
EndChar

StartChar: uniE903
Encoding: 59651 59651 102
Width: 1024
Flags: W
LayerCount: 2
Fore
SplineSet
0 -64 m 1,0,-1
 512 -64 l 1,1,-1
 512 960 l 1,2,-1
 0 960 l 1,3,-1
 0 -64 l 1,4,-1
 0 -64 l 1,0,-1
320 832 m 1,5,-1
 448 832 l 1,6,-1
 448 704 l 1,7,-1
 320 704 l 1,8,-1
 320 832 l 1,9,-1
 320 832 l 1,5,-1
320 576 m 1,10,-1
 448 576 l 1,11,-1
 448 448 l 1,12,-1
 320 448 l 1,13,-1
 320 576 l 1,14,-1
 320 576 l 1,10,-1
320 320 m 1,15,-1
 448 320 l 1,16,-1
 448 192 l 1,17,-1
 320 192 l 1,18,-1
 320 320 l 1,19,-1
 320 320 l 1,15,-1
64 832 m 1,20,-1
 192 832 l 1,21,-1
 192 704 l 1,22,-1
 64 704 l 1,23,-1
 64 832 l 1,24,-1
 64 832 l 1,20,-1
64 576 m 1,25,-1
 192 576 l 1,26,-1
 192 448 l 1,27,-1
 64 448 l 1,28,-1
 64 576 l 1,29,-1
 64 576 l 1,25,-1
64 320 m 1,30,-1
 192 320 l 1,31,-1
 192 192 l 1,32,-1
 64 192 l 1,33,-1
 64 320 l 1,34,-1
 64 320 l 1,30,-1
576 640 m 1,35,-1
 1024 640 l 1,36,-1
 1024 576 l 1,37,-1
 576 576 l 1,38,-1
 576 640 l 1,35,-1
576 -64 m 1,39,-1
 704 -64 l 1,40,-1
 704 192 l 1,41,-1
 896 192 l 1,42,-1
 896 -64 l 1,43,-1
 1024 -64 l 1,44,-1
 1024 512 l 1,45,-1
 576 512 l 1,46,-1
 576 -64 l 1,39,-1
EndSplineSet
Ligature2: "'liga' Ligaduras est+AOEA-ndar in Latin lookup 0 subtable" o f f i c e
Ligature2: "'liga' Ligaduras est+AOEA-ndar in Latin lookup 0 subtable" b u i l d i n g s
EndChar

StartChar: uniE904
Encoding: 59652 59652 103
Width: 1024
Flags: W
LayerCount: 2
Fore
SplineSet
896 704 m 1,0,-1
 896 832 l 1,1,-1
 0 832 l 1,2,-1
 0 128 l 2,3,4
 0 101 0 101 18.5 82.5 c 128,-1,5
 37 64 37 64 64 64 c 2,6,-1
 928 64 l 2,7,8
 968 64 968 64 996 92 c 128,-1,9
 1024 120 1024 120 1024 160 c 2,10,-1
 1024 704 l 1,11,-1
 896 704 l 1,12,-1
 896 704 l 1,0,-1
832 128 m 1,13,-1
 64 128 l 1,14,-1
 64 768 l 1,15,-1
 832 768 l 1,16,-1
 832 128 l 1,17,-1
 832 128 l 1,13,-1
128 640 m 1,18,-1
 768 640 l 1,19,-1
 768 576 l 1,20,-1
 128 576 l 1,21,-1
 128 640 l 1,18,-1
512 512 m 1,22,-1
 768 512 l 1,23,-1
 768 448 l 1,24,-1
 512 448 l 1,25,-1
 512 512 l 1,22,-1
512 384 m 1,26,-1
 768 384 l 1,27,-1
 768 320 l 1,28,-1
 512 320 l 1,29,-1
 512 384 l 1,26,-1
512 256 m 1,30,-1
 704 256 l 1,31,-1
 704 192 l 1,32,-1
 512 192 l 1,33,-1
 512 256 l 1,30,-1
128 512 m 1,34,-1
 448 512 l 1,35,-1
 448 192 l 1,36,-1
 128 192 l 1,37,-1
 128 512 l 1,34,-1
EndSplineSet
Ligature2: "'liga' Ligaduras est+AOEA-ndar in Latin lookup 0 subtable" n e w s
Ligature2: "'liga' Ligaduras est+AOEA-ndar in Latin lookup 0 subtable" n e w s p a p e r
EndChar

StartChar: uniE905
Encoding: 59653 59653 104
Width: 1024
Flags: W
LayerCount: 2
Fore
SplineSet
864 960 m 1,0,1
 930 960 930 960 977 913 c 128,-1,2
 1024 866 1024 866 1024 800 c 0,3,4
 1024 773 1024 773 1015.5 748.5 c 128,-1,5
 1007 724 1007 724 992 704 c 2,6,-1
 928 640 l 1,7,-1
 704 864 l 1,8,-1
 768 928 l 2,9,10
 788 943 788 943 812.5 951.5 c 128,-1,11
 837 960 837 960 864 960 c 1,12,-1
 864 960 l 1,0,1
64 224 m 1,13,-1
 0 -64 l 1,14,-1
 288 0 l 1,15,-1
 880 592 l 1,16,-1
 656 816 l 1,17,-1
 64 224 l 1,18,-1
 64 224 l 1,13,-1
716 596 m 1,19,-1
 268 148 l 1,20,-1
 212 204 l 1,21,-1
 660 652 l 1,22,-1
 716 596 l 1,23,-1
 716 596 l 1,19,-1
EndSplineSet
Ligature2: "'liga' Ligaduras est+AOEA-ndar in Latin lookup 0 subtable" w r i t e
Ligature2: "'liga' Ligaduras est+AOEA-ndar in Latin lookup 0 subtable" p e n c i l
EndChar

StartChar: uniE906
Encoding: 59654 59654 105
Width: 1024
Flags: W
LayerCount: 2
Fore
SplineSet
384 320 m 1,0,-1
 512 384 l 1,1,-1
 960 832 l 1,2,-1
 896 896 l 1,3,-1
 448 448 l 1,4,-1
 384 320 l 1,5,-1
 384 320 l 1,0,-1
289 93 m 1,6,7
 266 143 266 143 236.5 172.5 c 128,-1,8
 207 202 207 202 157 225 c 1,9,-1
 256 498 l 1,10,-1
 384 576 l 1,11,-1
 768 960 l 1,12,-1
 576 960 l 1,13,-1
 192 576 l 1,14,-1
 0 -64 l 1,15,-1
 640 128 l 1,16,-1
 1024 512 l 1,17,-1
 1024 704 l 1,18,-1
 640 320 l 1,19,-1
 562 192 l 1,20,-1
 289 93 l 1,6,7
EndSplineSet
Ligature2: "'liga' Ligaduras est+AOEA-ndar in Latin lookup 0 subtable" w r i t e two
Ligature2: "'liga' Ligaduras est+AOEA-ndar in Latin lookup 0 subtable" p e n c i l two
EndChar

StartChar: uniE907
Encoding: 59655 59655 106
Width: 1024
Flags: W
LayerCount: 2
Fore
SplineSet
0 -64 m 1,0,1
 48 80 48 80 135 258 c 128,-1,2
 222 436 222 436 349.5 592 c 128,-1,3
 477 748 477 748 645.5 854 c 128,-1,4
 814 960 814 960 1024 960 c 1,5,6
 925 881 925 881 850 761 c 128,-1,7
 775 641 775 641 709.5 529 c 128,-1,8
 644 417 644 417 582 336.5 c 128,-1,9
 520 256 520 256 448 256 c 0,10,11
 304 256 304 256 280 256 c 128,-1,12
 256 256 256 256 256 256 c 1,13,-1
 64 -64 l 1,14,-1
 0 -64 l 1,15,-1
 0 -64 l 1,0,1
EndSplineSet
Ligature2: "'liga' Ligaduras est+AOEA-ndar in Latin lookup 0 subtable" q u i l l
Ligature2: "'liga' Ligaduras est+AOEA-ndar in Latin lookup 0 subtable" f e a t h e r
EndChar

StartChar: uniE908
Encoding: 59656 59656 107
Width: 1024
Flags: W
LayerCount: 2
Fore
SplineSet
1018 668 m 1,0,-1
 732 954 l 2,1,2
 725 961 725 961 717 959.5 c 128,-1,3
 709 958 709 958 705 950 c 2,4,-1
 666 870 l 1,5,-1
 934 602 l 1,6,-1
 1014 641 l 2,7,8
 1022 645 1022 645 1023.5 653 c 128,-1,9
 1025 661 1025 661 1018 668 c 1,10,-1
 1018 668 l 1,0,-1
615 825 m 1,11,-1
 352 803 l 2,12,13
 339 801 339 801 329 796 c 128,-1,14
 319 791 319 791 315 774 c 1,15,16
 315 774 315 774 315 774 c 129,-1,17
 315 774 315 774 315 774 c 1,18,19
 288 645 288 645 235.5 523 c 128,-1,20
 183 401 183 401 130.5 306 c 128,-1,21
 78 211 78 211 39 153.5 c 128,-1,22
 0 96 0 96 0 96 c 1,23,-1
 57 39 l 1,24,-1
 329 311 l 1,25,26
 325 320 325 320 322.5 330.5 c 128,-1,27
 320 341 320 341 320 352 c 0,28,29
 320 392 320 392 348 420 c 128,-1,30
 376 448 376 448 416 448 c 256,31,32
 456 448 456 448 484 420 c 128,-1,33
 512 392 512 392 512 352 c 256,34,35
 512 312 512 312 484 284 c 128,-1,36
 456 256 456 256 416 256 c 0,37,38
 405 256 405 256 394.5 258.5 c 128,-1,39
 384 261 384 261 375 265 c 1,40,-1
 103 -7 l 1,41,-1
 160 -64 l 1,42,43
 160 -64 160 -64 217.5 -25 c 128,-1,44
 275 14 275 14 370 66.5 c 128,-1,45
 465 119 465 119 587 171.5 c 128,-1,46
 709 224 709 224 838 251 c 1,47,48
 838 251 838 251 838 251 c 129,-1,49
 838 251 838 251 838 251 c 1,50,51
 855 255 855 255 860 265 c 128,-1,52
 865 275 865 275 867 288 c 2,53,-1
 889 551 l 1,54,-1
 615 825 l 1,55,-1
 615 825 l 1,11,-1
EndSplineSet
Ligature2: "'liga' Ligaduras est+AOEA-ndar in Latin lookup 0 subtable" w r i t e three
Ligature2: "'liga' Ligaduras est+AOEA-ndar in Latin lookup 0 subtable" p e n
EndChar

StartChar: uniE909
Encoding: 59657 59657 108
Width: 1024
Flags: W
LayerCount: 2
Fore
SplineSet
384 960 m 1,0,-1
 384 864 l 1,1,2
 439 864 439 864 492 853.5 c 128,-1,3
 545 843 545 843 596 821 c 0,4,5
 644 801 644 801 687.5 771.5 c 128,-1,6
 731 742 731 742 769 705 c 0,7,8
 806 667 806 667 835.5 623.5 c 128,-1,9
 865 580 865 580 885 532 c 0,10,11
 907 481 907 481 917.5 428 c 128,-1,12
 928 375 928 375 928 320 c 1,13,-1
 1024 320 l 1,14,15
 1024 453 1024 453 973.5 569.5 c 128,-1,16
 923 686 923 686 836.5 772.5 c 128,-1,17
 750 859 750 859 633.5 909.5 c 128,-1,18
 517 960 517 960 384 960 c 1,19,-1
 384 960 l 1,0,-1
384 768 m 1,20,-1
 384 672 l 1,21,22
 455 672 455 672 519 645.5 c 128,-1,23
 583 619 583 619 633 569 c 256,24,25
 683 519 683 519 709.5 455 c 128,-1,26
 736 391 736 391 736 320 c 1,27,-1
 832 320 l 1,28,29
 832 413 832 413 797 494.5 c 128,-1,30
 762 576 762 576 701 637 c 128,-1,31
 640 698 640 698 558.5 733 c 128,-1,32
 477 768 477 768 384 768 c 1,33,-1
 384 768 l 1,20,-1
480 576 m 1,34,-1
 416 512 l 1,35,-1
 192 448 l 1,36,-1
 0 32 l 1,37,-1
 25 7 l 1,38,-1
 258 239 l 2,39,40
 257 243 257 243 256.5 247.5 c 128,-1,41
 256 252 256 252 256 256 c 0,42,43
 256 283 256 283 274.5 301.5 c 128,-1,44
 293 320 293 320 320 320 c 256,45,46
 347 320 347 320 365.5 301.5 c 128,-1,47
 384 283 384 283 384 256 c 256,48,49
 384 229 384 229 365.5 210.5 c 128,-1,50
 347 192 347 192 320 192 c 0,51,52
 316 192 316 192 311.5 192.5 c 128,-1,53
 307 193 307 193 303 194 c 2,54,-1
 71 -39 l 1,55,-1
 96 -64 l 1,56,-1
 512 128 l 1,57,-1
 576 352 l 1,58,-1
 640 416 l 1,59,-1
 480 576 l 1,60,-1
 480 576 l 1,34,-1
EndSplineSet
Ligature2: "'liga' Ligaduras est+AOEA-ndar in Latin lookup 0 subtable" p e n two
Ligature2: "'liga' Ligaduras est+AOEA-ndar in Latin lookup 0 subtable" b l o g
EndChar

StartChar: uniE90A
Encoding: 59658 59658 109
Width: 1024
Flags: W
LayerCount: 2
Fore
SplineSet
987 923 m 1,0,1
 949 960 949 960 896 960 c 128,-1,2
 843 960 843 960 805 923 c 2,3,-1
 633 750 l 1,4,-1
 512 872 l 1,5,-1
 376 736 l 1,6,-1
 483 630 l 1,7,-1
 11 157 l 2,8,9
 5 151 5 151 2 143.5 c 128,-1,10
 -1 136 -1 136 0 128 c 1,11,-1
 0 128 l 1,12,-1
 0 -32 l 2,13,14
 0 -45 0 -45 9.5 -54.5 c 128,-1,15
 19 -64 19 -64 32 -64 c 2,16,-1
 192 -64 l 1,17,18
 192 -64 192 -64 193.5 -64 c 128,-1,19
 195 -64 195 -64 196 -64 c 0,20,21
 203 -64 203 -64 209.5 -61.5 c 128,-1,22
 216 -59 216 -59 221 -53 c 2,23,-1
 694 419 l 1,24,-1
 800 312 l 1,25,-1
 936 448 l 1,26,-1
 814 569 l 1,27,-1
 987 741 l 2,28,29
 1024 779 1024 779 1024 832 c 128,-1,30
 1024 885 1024 885 987 923 c 1,31,-1
 987 923 l 1,0,1
173 0 m 1,32,-1
 64 0 l 1,33,-1
 64 109 l 1,34,-1
 534 579 l 1,35,-1
 643 470 l 1,36,-1
 173 0 l 1,37,-1
 173 0 l 1,32,-1
EndSplineSet
Ligature2: "'liga' Ligaduras est+AOEA-ndar in Latin lookup 0 subtable" e y e d r o p p e r
Ligature2: "'liga' Ligaduras est+AOEA-ndar in Latin lookup 0 subtable" c o l o r
EndChar

StartChar: uniE90B
Encoding: 59659 59659 110
Width: 1024
Flags: W
LayerCount: 2
Fore
SplineSet
865 487 m 1,0,1
 840 556 840 556 802.5 621 c 128,-1,2
 765 686 765 686 719 745.5 c 128,-1,3
 673 805 673 805 620 859 c 128,-1,4
 567 913 567 913 512 960 c 1,5,6
 457 913 457 913 404 859 c 128,-1,7
 351 805 351 805 305 745.5 c 128,-1,8
 259 686 259 686 221.5 621 c 128,-1,9
 184 556 184 556 159 487 c 0,10,11
 144 444 144 444 136 400 c 128,-1,12
 128 356 128 356 129 312 c 128,-1,13
 130 268 130 268 140 225 c 128,-1,14
 150 182 150 182 172 141 c 0,15,16
 197 95 197 95 233 57 c 128,-1,17
 269 19 269 19 313.5 -8 c 128,-1,18
 358 -35 358 -35 408.5 -49.5 c 128,-1,19
 459 -64 459 -64 512 -64 c 256,20,21
 565 -64 565 -64 615.5 -49.5 c 128,-1,22
 666 -35 666 -35 710.5 -8 c 128,-1,23
 755 19 755 19 791 57 c 128,-1,24
 827 95 827 95 852 141 c 0,25,26
 874 182 874 182 884 225 c 128,-1,27
 894 268 894 268 895 312 c 128,-1,28
 896 356 896 356 888 400 c 128,-1,29
 880 444 880 444 865 487 c 1,30,-1
 865 487 l 1,0,1
739 201 m 1,31,32
 706 139 706 139 644 101.5 c 128,-1,33
 582 64 582 64 512 64 c 0,34,35
 471 64 471 64 432 77.5 c 128,-1,36
 393 91 393 91 360 115 c 1,37,38
 370 113 370 113 380 112.5 c 128,-1,39
 390 112 390 112 400 112 c 0,40,41
 444 112 444 112 486 124 c 128,-1,42
 528 136 528 136 565 158.5 c 128,-1,43
 602 181 602 181 632.5 212.5 c 128,-1,44
 663 244 663 244 683 283 c 0,45,46
 717 347 717 347 718.5 411 c 128,-1,47
 720 475 720 475 707 528 c 1,48,49
 718 506 718 506 727.5 485 c 128,-1,50
 737 464 737 464 744 444 c 0,51,52
 761 396 761 396 767 331 c 128,-1,53
 773 266 773 266 739 201 c 1,54,-1
 739 201 l 1,31,32
EndSplineSet
Ligature2: "'liga' Ligaduras est+AOEA-ndar in Latin lookup 0 subtable" d r o p l e t
Ligature2: "'liga' Ligaduras est+AOEA-ndar in Latin lookup 0 subtable" c o l o r two
EndChar

StartChar: uniE90C
Encoding: 59660 59660 111
Width: 1024
Flags: W
LayerCount: 2
Fore
SplineSet
1024 384 m 1,0,-1
 1024 768 l 1,1,-1
 832 768 l 1,2,-1
 832 832 l 2,3,4
 832 858 832 858 813 877 c 128,-1,5
 794 896 794 896 768 896 c 2,6,-1
 64 896 l 2,7,8
 38 896 38 896 19 877 c 128,-1,9
 0 858 0 858 0 832 c 2,10,-1
 0 640 l 2,11,12
 0 614 0 614 19 595 c 128,-1,13
 38 576 38 576 64 576 c 2,14,-1
 768 576 l 2,15,16
 794 576 794 576 813 595 c 128,-1,17
 832 614 832 614 832 640 c 2,18,-1
 832 704 l 1,19,-1
 960 704 l 1,20,-1
 960 448 l 1,21,-1
 384 448 l 1,22,-1
 384 320 l 1,23,-1
 352 320 l 2,24,25
 339 320 339 320 329.5 310.5 c 128,-1,26
 320 301 320 301 320 288 c 2,27,-1
 320 -32 l 2,28,29
 320 -45 320 -45 329.5 -54.5 c 128,-1,30
 339 -64 339 -64 352 -64 c 2,31,-1
 480 -64 l 2,32,33
 493 -64 493 -64 502.5 -54.5 c 128,-1,34
 512 -45 512 -45 512 -32 c 2,35,-1
 512 288 l 2,36,37
 512 301 512 301 502.5 310.5 c 128,-1,38
 493 320 493 320 480 320 c 2,39,-1
 448 320 l 1,40,-1
 448 384 l 1,41,-1
 1024 384 l 1,42,-1
 1024 384 l 1,0,-1
768 768 m 1,43,-1
 64 768 l 1,44,-1
 64 832 l 1,45,-1
 768 832 l 1,46,-1
 768 768 l 1,47,-1
 768 768 l 1,43,-1
EndSplineSet
Ligature2: "'liga' Ligaduras est+AOEA-ndar in Latin lookup 0 subtable" p a i n t hyphen f o r m a t
Ligature2: "'liga' Ligaduras est+AOEA-ndar in Latin lookup 0 subtable" f o r m a t
EndChar

StartChar: uniE90D
Encoding: 59661 59661 112
Width: 1024
Flags: W
LayerCount: 2
Fore
SplineSet
960 832 m 1,0,1
 960 832 960 832 960 832 c 129,-1,2
 960 832 960 832 960 832 c 1,3,-1
 960 64 l 1,4,5
 960 64 960 64 960 64 c 129,-1,6
 960 64 960 64 960 64 c 1,7,-1
 64 64 l 1,8,9
 64 64 64 64 64 64 c 129,-1,10
 64 64 64 64 64 64 c 1,11,-1
 64 832 l 1,12,13
 64 832 64 832 64 832 c 129,-1,14
 64 832 64 832 64 832 c 1,15,-1
 960 832 l 1,16,-1
 960 832 l 1,0,1
960 896 m 1,17,-1
 64 896 l 2,18,19
 38 896 38 896 19 877 c 128,-1,20
 0 858 0 858 0 832 c 2,21,-1
 0 64 l 2,22,23
 0 38 0 38 19 19 c 128,-1,24
 38 0 38 0 64 0 c 2,25,-1
 960 0 l 2,26,27
 986 0 986 0 1005 19 c 128,-1,28
 1024 38 1024 38 1024 64 c 2,29,-1
 1024 832 l 2,30,31
 1024 858 1024 858 1005 877 c 128,-1,32
 986 896 986 896 960 896 c 1,33,-1
 960 896 l 1,34,-1
 960 896 l 1,17,-1
832 672 m 1,35,36
 832 632 832 632 804 604 c 128,-1,37
 776 576 776 576 736 576 c 256,38,39
 696 576 696 576 668 604 c 128,-1,40
 640 632 640 632 640 672 c 256,41,42
 640 712 640 712 668 740 c 128,-1,43
 696 768 696 768 736 768 c 256,44,45
 776 768 776 768 804 740 c 128,-1,46
 832 712 832 712 832 672 c 1,47,-1
 832 672 l 1,35,36
896 128 m 1,48,-1
 128 128 l 1,49,-1
 128 256 l 1,50,-1
 352 640 l 1,51,-1
 608 320 l 1,52,-1
 672 320 l 1,53,-1
 896 512 l 1,54,-1
 896 128 l 1,48,-1
EndSplineSet
Ligature2: "'liga' Ligaduras est+AOEA-ndar in Latin lookup 0 subtable" p i c t u r e
Ligature2: "'liga' Ligaduras est+AOEA-ndar in Latin lookup 0 subtable" i m a g e
EndChar

StartChar: uniE90E
Encoding: 59662 59662 113
Width: 1152
Flags: W
LayerCount: 2
Fore
SplineSet
1088 832 m 1,0,-1
 1024 832 l 1,1,-1
 1024 896 l 2,2,3
 1024 922 1024 922 1005 941 c 128,-1,4
 986 960 986 960 960 960 c 2,5,-1
 64 960 l 2,6,7
 38 960 38 960 19 941 c 128,-1,8
 0 922 0 922 0 896 c 2,9,-1
 0 128 l 2,10,11
 0 102 0 102 19 83 c 128,-1,12
 38 64 38 64 64 64 c 2,13,-1
 128 64 l 1,14,-1
 128 0 l 2,15,16
 128 -26 128 -26 147 -45 c 128,-1,17
 166 -64 166 -64 192 -64 c 2,18,-1
 1088 -64 l 2,19,20
 1114 -64 1114 -64 1133 -45 c 128,-1,21
 1152 -26 1152 -26 1152 0 c 2,22,-1
 1152 768 l 2,23,24
 1152 794 1152 794 1133 813 c 128,-1,25
 1114 832 1114 832 1088 832 c 1,26,-1
 1088 832 l 1,0,-1
128 768 m 1,27,-1
 128 128 l 1,28,-1
 64 128 l 1,29,30
 64 128 64 128 64 128 c 129,-1,31
 64 128 64 128 64 128 c 1,32,-1
 64 896 l 1,33,34
 64 896 64 896 64 896 c 129,-1,35
 64 896 64 896 64 896 c 1,36,-1
 960 896 l 1,37,38
 960 896 960 896 960 896 c 129,-1,39
 960 896 960 896 960 896 c 1,40,-1
 960 832 l 1,41,-1
 192 832 l 2,42,43
 166 832 166 832 147 813 c 128,-1,44
 128 794 128 794 128 768 c 1,45,-1
 128 768 l 1,46,-1
 128 768 l 1,27,-1
1088 0 m 1,47,48
 1088 0 1088 0 1088 0 c 129,-1,49
 1088 0 1088 0 1088 0 c 1,50,-1
 192 0 l 1,51,52
 192 0 192 0 192 0 c 129,-1,53
 192 0 192 0 192 0 c 1,54,-1
 192 768 l 1,55,56
 192 768 192 768 192 768 c 129,-1,57
 192 768 192 768 192 768 c 1,58,-1
 1088 768 l 1,59,60
 1088 768 1088 768 1088 768 c 129,-1,61
 1088 768 1088 768 1088 768 c 1,62,-1
 1088 0 l 1,63,-1
 1088 0 l 1,47,48
960 608 m 1,64,65
 960 568 960 568 932 540 c 128,-1,66
 904 512 904 512 864 512 c 256,67,68
 824 512 824 512 796 540 c 128,-1,69
 768 568 768 568 768 608 c 256,70,71
 768 648 768 648 796 676 c 128,-1,72
 824 704 824 704 864 704 c 256,73,74
 904 704 904 704 932 676 c 128,-1,75
 960 648 960 648 960 608 c 1,76,-1
 960 608 l 1,64,65
1024 64 m 1,77,-1
 256 64 l 1,78,-1
 256 192 l 1,79,-1
 480 576 l 1,80,-1
 736 256 l 1,81,-1
 800 256 l 1,82,-1
 1024 448 l 1,83,-1
 1024 64 l 1,77,-1
EndSplineSet
Ligature2: "'liga' Ligaduras est+AOEA-ndar in Latin lookup 0 subtable" p i c t u r e s
Ligature2: "'liga' Ligaduras est+AOEA-ndar in Latin lookup 0 subtable" i m a g e s
EndChar

StartChar: uniE90F
Encoding: 59663 59663 114
Width: 1024
Flags: W
LayerCount: 2
Fore
SplineSet
304 352 m 1,0,1
 304 309 304 309 320.5 271 c 128,-1,2
 337 233 337 233 365 205 c 128,-1,3
 393 177 393 177 431 160.5 c 128,-1,4
 469 144 469 144 512 144 c 256,5,6
 555 144 555 144 593 160.5 c 128,-1,7
 631 177 631 177 659 205 c 128,-1,8
 687 233 687 233 703.5 271 c 128,-1,9
 720 309 720 309 720 352 c 256,10,11
 720 395 720 395 703.5 433 c 128,-1,12
 687 471 687 471 659 499 c 128,-1,13
 631 527 631 527 593 543.5 c 128,-1,14
 555 560 555 560 512 560 c 256,15,16
 469 560 469 560 431 543.5 c 128,-1,17
 393 527 393 527 365 499 c 128,-1,18
 337 471 337 471 320.5 433 c 128,-1,19
 304 395 304 395 304 352 c 1,20,-1
 304 352 l 1,0,1
960 704 m 1,21,-1
 736 704 l 1,22,23
 724 752 724 752 706 792 c 128,-1,24
 688 832 688 832 640 832 c 2,25,-1
 384 832 l 2,26,27
 336 832 336 832 318 792 c 128,-1,28
 300 752 300 752 288 704 c 1,29,-1
 64 704 l 2,30,31
 38 704 38 704 19 685 c 128,-1,32
 0 666 0 666 0 640 c 2,33,-1
 0 64 l 2,34,35
 0 38 0 38 19 19 c 128,-1,36
 38 0 38 0 64 0 c 2,37,-1
 960 0 l 2,38,39
 986 0 986 0 1005 19 c 128,-1,40
 1024 38 1024 38 1024 64 c 2,41,-1
 1024 640 l 2,42,43
 1024 666 1024 666 1005 685 c 128,-1,44
 986 704 986 704 960 704 c 1,45,-1
 960 704 l 1,21,-1
512 68 m 1,46,47
 453 68 453 68 401.5 90.5 c 128,-1,48
 350 113 350 113 311.5 151.5 c 128,-1,49
 273 190 273 190 250.5 241.5 c 128,-1,50
 228 293 228 293 228 352 c 256,51,52
 228 411 228 411 250.5 462.5 c 128,-1,53
 273 514 273 514 311.5 552.5 c 128,-1,54
 350 591 350 591 401.5 613.5 c 128,-1,55
 453 636 453 636 512 636 c 256,56,57
 571 636 571 636 622.5 613.5 c 128,-1,58
 674 591 674 591 712.5 552.5 c 128,-1,59
 751 514 751 514 773.5 462.5 c 128,-1,60
 796 411 796 411 796 352 c 256,61,62
 796 293 796 293 773.5 241.5 c 128,-1,63
 751 190 751 190 712.5 151.5 c 128,-1,64
 674 113 674 113 622.5 90.5 c 128,-1,65
 571 68 571 68 512 68 c 1,66,-1
 512 68 l 1,46,47
960 512 m 1,67,-1
 832 512 l 1,68,-1
 832 576 l 1,69,-1
 960 576 l 1,70,-1
 960 512 l 1,71,-1
 960 512 l 1,67,-1
EndSplineSet
Ligature2: "'liga' Ligaduras est+AOEA-ndar in Latin lookup 0 subtable" p h o t o
Ligature2: "'liga' Ligaduras est+AOEA-ndar in Latin lookup 0 subtable" c a m e r a
EndChar

StartChar: uniE910
Encoding: 59664 59664 115
Width: 1024
Flags: W
LayerCount: 2
Fore
SplineSet
288 384 m 1,0,-1
 224 384 l 1,1,-1
 224 -64 l 1,2,-1
 288 -64 l 2,3,4
 301 -64 301 -64 310.5 -54.5 c 128,-1,5
 320 -45 320 -45 320 -32 c 2,6,-1
 320 352 l 2,7,8
 320 365 320 365 310.5 374.5 c 128,-1,9
 301 384 301 384 288 384 c 1,10,-1
 288 384 l 1,0,-1
736 384 m 1,11,12
 723 384 723 384 713.5 374.5 c 128,-1,13
 704 365 704 365 704 352 c 2,14,-1
 704 -32 l 2,15,16
 704 -45 704 -45 713.5 -54.5 c 128,-1,17
 723 -64 723 -64 736 -64 c 2,18,-1
 800 -64 l 1,19,-1
 800 384 l 1,20,-1
 736 384 l 1,21,-1
 736 384 l 1,11,12
1024 448 m 1,22,23
 1024 554 1024 554 984 647.5 c 128,-1,24
 944 741 944 741 874.5 810.5 c 128,-1,25
 805 880 805 880 711.5 920 c 128,-1,26
 618 960 618 960 512 960 c 256,27,28
 406 960 406 960 312.5 920 c 128,-1,29
 219 880 219 880 149.5 810.5 c 128,-1,30
 80 741 80 741 40 647.5 c 128,-1,31
 0 554 0 554 0 448 c 0,32,33
 0 402 0 402 8 358 c 128,-1,34
 16 314 16 314 31 273 c 1,35,36
 16 248 16 248 8 219.5 c 128,-1,37
 0 191 0 191 0 160 c 0,38,39
 0 118 0 118 14.5 80 c 128,-1,40
 29 42 29 42 55 12.5 c 128,-1,41
 81 -17 81 -17 116 -36.5 c 128,-1,42
 151 -56 151 -56 192 -62 c 1,43,-1
 192 382 l 1,44,45
 168 378 168 378 146 370 c 128,-1,46
 124 362 124 362 104 349 c 1,47,48
 100 369 100 369 98 390 c 128,-1,49
 96 411 96 411 96 432 c 0,50,51
 96 518 96 518 128.5 594 c 128,-1,52
 161 670 161 670 217.5 726.5 c 128,-1,53
 274 783 274 783 350 815.5 c 128,-1,54
 426 848 426 848 512 848 c 256,55,56
 598 848 598 848 674 815.5 c 128,-1,57
 750 783 750 783 806.5 726.5 c 128,-1,58
 863 670 863 670 895.5 594 c 128,-1,59
 928 518 928 518 928 432 c 0,60,61
 928 411 928 411 926 390 c 128,-1,62
 924 369 924 369 920 349 c 1,63,64
 900 362 900 362 878 370 c 128,-1,65
 856 378 856 378 832 382 c 1,66,-1
 832 -62 l 1,67,68
 873 -56 873 -56 908 -36.5 c 128,-1,69
 943 -17 943 -17 969 12.5 c 128,-1,70
 995 42 995 42 1009.5 80 c 128,-1,71
 1024 118 1024 118 1024 160 c 0,72,73
 1024 191 1024 191 1016 219.5 c 128,-1,74
 1008 248 1008 248 993 273 c 1,75,76
 1008 314 1008 314 1016 358 c 128,-1,77
 1024 402 1024 402 1024 448 c 1,78,-1
 1024 448 l 1,22,23
EndSplineSet
Ligature2: "'liga' Ligaduras est+AOEA-ndar in Latin lookup 0 subtable" h e a d p h o n e s
Ligature2: "'liga' Ligaduras est+AOEA-ndar in Latin lookup 0 subtable" h e a d s e t
EndChar

StartChar: uniE911
Encoding: 59665 59665 116
Width: 1024
Flags: W
LayerCount: 2
Fore
SplineSet
960 960 m 1,0,-1
 1024 960 l 1,1,-1
 1024 224 l 2,2,3
 1024 191 1024 191 1006.5 162 c 128,-1,4
 989 133 989 133 958.5 111 c 128,-1,5
 928 89 928 89 887 76.5 c 128,-1,6
 846 64 846 64 800 64 c 256,7,8
 754 64 754 64 713 76.5 c 128,-1,9
 672 89 672 89 641.5 111 c 128,-1,10
 611 133 611 133 593.5 162 c 128,-1,11
 576 191 576 191 576 224 c 256,12,13
 576 257 576 257 593.5 286 c 128,-1,14
 611 315 611 315 641.5 337 c 128,-1,15
 672 359 672 359 713 371.5 c 128,-1,16
 754 384 754 384 800 384 c 0,17,18
 847 384 847 384 888.5 371 c 128,-1,19
 930 358 930 358 960 336 c 1,20,-1
 960 704 l 1,21,-1
 448 590 l 1,22,-1
 448 96 l 2,23,24
 448 63 448 63 430.5 34 c 128,-1,25
 413 5 413 5 382.5 -17 c 128,-1,26
 352 -39 352 -39 311 -51.5 c 128,-1,27
 270 -64 270 -64 224 -64 c 256,28,29
 178 -64 178 -64 137 -51.5 c 128,-1,30
 96 -39 96 -39 65.5 -17 c 128,-1,31
 35 5 35 5 17.5 34 c 128,-1,32
 0 63 0 63 0 96 c 256,33,34
 0 129 0 129 17.5 158 c 128,-1,35
 35 187 35 187 65.5 209 c 128,-1,36
 96 231 96 231 137 243.5 c 128,-1,37
 178 256 178 256 224 256 c 0,38,39
 271 256 271 256 312.5 243 c 128,-1,40
 354 230 354 230 384 208 c 1,41,-1
 384 832 l 1,42,-1
 960 960 l 1,43,-1
 960 960 l 1,0,-1
EndSplineSet
Ligature2: "'liga' Ligaduras est+AOEA-ndar in Latin lookup 0 subtable" s o n g
Ligature2: "'liga' Ligaduras est+AOEA-ndar in Latin lookup 0 subtable" m u s i c
EndChar

StartChar: uniE912
Encoding: 59666 59666 117
Width: 1024
Flags: W
LayerCount: 2
Fore
SplineSet
981 800 m 1,0,1
 927 808 927 808 870.5 814 c 128,-1,2
 814 820 814 820 755 824 c 128,-1,3
 696 828 696 828 635.5 830 c 128,-1,4
 575 832 575 832 512 832 c 256,5,6
 449 832 449 832 388.5 830 c 128,-1,7
 328 828 328 828 269 824 c 128,-1,8
 210 820 210 820 153.5 814 c 128,-1,9
 97 808 97 808 43 800 c 1,10,11
 32 759 32 759 24.5 717 c 128,-1,12
 17 675 17 675 11.5 630.5 c 128,-1,13
 6 586 6 586 3 540.5 c 128,-1,14
 0 495 0 495 0 448 c 256,15,16
 0 401 0 401 3 355.5 c 128,-1,17
 6 310 6 310 11.5 265.5 c 128,-1,18
 17 221 17 221 24.5 179 c 128,-1,19
 32 137 32 137 43 96 c 1,20,21
 97 88 97 88 153.5 82 c 128,-1,22
 210 76 210 76 269 72 c 128,-1,23
 328 68 328 68 388.5 66 c 128,-1,24
 449 64 449 64 512 64 c 256,25,26
 575 64 575 64 635.5 66 c 128,-1,27
 696 68 696 68 755 72 c 128,-1,28
 814 76 814 76 870.5 82 c 128,-1,29
 927 88 927 88 981 96 c 1,30,31
 992 137 992 137 999.5 179 c 128,-1,32
 1007 221 1007 221 1012.5 265.5 c 128,-1,33
 1018 310 1018 310 1021 355.5 c 128,-1,34
 1024 401 1024 401 1024 448 c 256,35,36
 1024 495 1024 495 1021 540.5 c 128,-1,37
 1018 586 1018 586 1012.5 630.5 c 128,-1,38
 1007 675 1007 675 999.5 717 c 128,-1,39
 992 759 992 759 981 800 c 1,40,-1
 981 800 l 1,0,1
384 256 m 1,41,-1
 384 640 l 1,42,-1
 704 448 l 1,43,-1
 384 256 l 1,44,-1
 384 256 l 1,41,-1
EndSplineSet
Ligature2: "'liga' Ligaduras est+AOEA-ndar in Latin lookup 0 subtable" v i d e o
Ligature2: "'liga' Ligaduras est+AOEA-ndar in Latin lookup 0 subtable" p l a y
EndChar

StartChar: uniE913
Encoding: 59667 59667 118
Width: 1024
Flags: W
LayerCount: 2
Fore
SplineSet
0 832 m 1,0,-1
 0 64 l 1,1,-1
 1024 64 l 1,2,-1
 1024 832 l 1,3,-1
 0 832 l 1,4,-1
 0 832 l 1,0,-1
192 128 m 1,5,-1
 64 128 l 1,6,-1
 64 256 l 1,7,-1
 192 256 l 1,8,-1
 192 128 l 1,9,-1
 192 128 l 1,5,-1
192 384 m 1,10,-1
 64 384 l 1,11,-1
 64 512 l 1,12,-1
 192 512 l 1,13,-1
 192 384 l 1,14,-1
 192 384 l 1,10,-1
192 640 m 1,15,-1
 64 640 l 1,16,-1
 64 768 l 1,17,-1
 192 768 l 1,18,-1
 192 640 l 1,19,-1
 192 640 l 1,15,-1
768 128 m 1,20,-1
 256 128 l 1,21,-1
 256 768 l 1,22,-1
 768 768 l 1,23,-1
 768 128 l 1,24,-1
 768 128 l 1,20,-1
960 128 m 1,25,-1
 832 128 l 1,26,-1
 832 256 l 1,27,-1
 960 256 l 1,28,-1
 960 128 l 1,29,-1
 960 128 l 1,25,-1
960 384 m 1,30,-1
 832 384 l 1,31,-1
 832 512 l 1,32,-1
 960 512 l 1,33,-1
 960 384 l 1,34,-1
 960 384 l 1,30,-1
960 640 m 1,35,-1
 832 640 l 1,36,-1
 832 768 l 1,37,-1
 960 768 l 1,38,-1
 960 640 l 1,39,-1
 960 640 l 1,35,-1
384 640 m 1,40,-1
 384 256 l 1,41,-1
 640 448 l 1,42,-1
 384 640 l 1,40,-1
EndSplineSet
Ligature2: "'liga' Ligaduras est+AOEA-ndar in Latin lookup 0 subtable" v i d e o two
Ligature2: "'liga' Ligaduras est+AOEA-ndar in Latin lookup 0 subtable" f i l m
EndChar

StartChar: uniE914
Encoding: 59668 59668 119
Width: 1024
Flags: W
LayerCount: 2
Fore
SplineSet
384 672 m 1,0,1
 384 738 384 738 431 785 c 128,-1,2
 478 832 478 832 544 832 c 256,3,4
 610 832 610 832 657 785 c 128,-1,5
 704 738 704 738 704 672 c 256,6,7
 704 606 704 606 657 559 c 128,-1,8
 610 512 610 512 544 512 c 256,9,10
 478 512 478 512 431 559 c 128,-1,11
 384 606 384 606 384 672 c 1,12,-1
 384 672 l 1,0,1
0 672 m 1,13,14
 0 738 0 738 47 785 c 128,-1,15
 94 832 94 832 160 832 c 256,16,17
 226 832 226 832 273 785 c 128,-1,18
 320 738 320 738 320 672 c 256,19,20
 320 606 320 606 273 559 c 128,-1,21
 226 512 226 512 160 512 c 256,22,23
 94 512 94 512 47 559 c 128,-1,24
 0 606 0 606 0 672 c 1,25,-1
 0 672 l 1,13,14
768 352 m 1,26,-1
 768 448 l 2,27,28
 768 474 768 474 749 493 c 128,-1,29
 730 512 730 512 704 512 c 2,30,-1
 64 512 l 2,31,32
 38 512 38 512 19 493 c 128,-1,33
 0 474 0 474 0 448 c 2,34,-1
 0 128 l 2,35,36
 0 102 0 102 19 83 c 128,-1,37
 38 64 38 64 64 64 c 2,38,-1
 704 64 l 2,39,40
 730 64 730 64 749 83 c 128,-1,41
 768 102 768 102 768 128 c 2,42,-1
 768 224 l 1,43,-1
 1024 64 l 1,44,-1
 1024 512 l 1,45,-1
 768 352 l 1,46,-1
 768 352 l 1,26,-1
640 192 m 1,47,-1
 128 192 l 1,48,-1
 128 384 l 1,49,-1
 640 384 l 1,50,-1
 640 192 l 1,51,-1
 640 192 l 1,47,-1
EndSplineSet
Ligature2: "'liga' Ligaduras est+AOEA-ndar in Latin lookup 0 subtable" v i d e o hyphen c a m e r a
Ligature2: "'liga' Ligaduras est+AOEA-ndar in Latin lookup 0 subtable" v i d e o three
EndChar

StartChar: uniE915
Encoding: 59669 59669 120
Width: 1024
Flags: W
LayerCount: 2
Fore
SplineSet
864 768 m 1,0,-1
 352 768 l 2,1,2
 286 768 286 768 239 721 c 128,-1,3
 192 674 192 674 192 608 c 2,4,-1
 192 96 l 2,5,6
 192 30 192 30 239 -17 c 128,-1,7
 286 -64 286 -64 352 -64 c 2,8,-1
 864 -64 l 2,9,10
 930 -64 930 -64 977 -17 c 128,-1,11
 1024 30 1024 30 1024 96 c 2,12,-1
 1024 608 l 2,13,14
 1024 674 1024 674 977 721 c 128,-1,15
 930 768 930 768 864 768 c 1,16,-1
 864 768 l 1,0,-1
416 64 m 1,17,18
 376 64 376 64 348 92 c 128,-1,19
 320 120 320 120 320 160 c 256,20,21
 320 200 320 200 348 228 c 128,-1,22
 376 256 376 256 416 256 c 256,23,24
 456 256 456 256 484 228 c 128,-1,25
 512 200 512 200 512 160 c 256,26,27
 512 120 512 120 484 92 c 128,-1,28
 456 64 456 64 416 64 c 1,29,-1
 416 64 l 1,17,18
416 448 m 1,30,31
 376 448 376 448 348 476 c 128,-1,32
 320 504 320 504 320 544 c 256,33,34
 320 584 320 584 348 612 c 128,-1,35
 376 640 376 640 416 640 c 256,36,37
 456 640 456 640 484 612 c 128,-1,38
 512 584 512 584 512 544 c 256,39,40
 512 504 512 504 484 476 c 128,-1,41
 456 448 456 448 416 448 c 1,42,-1
 416 448 l 1,30,31
608 256 m 1,43,44
 568 256 568 256 540 284 c 128,-1,45
 512 312 512 312 512 352 c 256,46,47
 512 392 512 392 540 420 c 128,-1,48
 568 448 568 448 608 448 c 256,49,50
 648 448 648 448 676 420 c 128,-1,51
 704 392 704 392 704 352 c 256,52,53
 704 312 704 312 676 284 c 128,-1,54
 648 256 648 256 608 256 c 1,55,-1
 608 256 l 1,43,44
800 64 m 1,56,57
 760 64 760 64 732 92 c 128,-1,58
 704 120 704 120 704 160 c 256,59,60
 704 200 704 200 732 228 c 128,-1,61
 760 256 760 256 800 256 c 256,62,63
 840 256 840 256 868 228 c 128,-1,64
 896 200 896 200 896 160 c 256,65,66
 896 120 896 120 868 92 c 128,-1,67
 840 64 840 64 800 64 c 1,68,-1
 800 64 l 1,56,57
800 448 m 1,69,70
 760 448 760 448 732 476 c 128,-1,71
 704 504 704 504 704 544 c 256,72,73
 704 584 704 584 732 612 c 128,-1,74
 760 640 760 640 800 640 c 256,75,76
 840 640 840 640 868 612 c 128,-1,77
 896 584 896 584 896 544 c 256,78,79
 896 504 896 504 868 476 c 128,-1,80
 840 448 840 448 800 448 c 1,81,-1
 800 448 l 1,69,70
829 832 m 1,82,83
 818 887 818 887 774 923.5 c 128,-1,84
 730 960 730 960 672 960 c 2,85,-1
 160 960 l 2,86,87
 94 960 94 960 47 913 c 128,-1,88
 0 866 0 866 0 800 c 2,89,-1
 0 288 l 2,90,91
 0 230 0 230 36.5 186 c 128,-1,92
 73 142 73 142 128 131 c 1,93,-1
 128 768 l 2,94,95
 128 794 128 794 147 813 c 128,-1,96
 166 832 166 832 192 832 c 2,97,-1
 829 832 l 1,98,-1
 829 832 l 1,82,83
EndSplineSet
Ligature2: "'liga' Ligaduras est+AOEA-ndar in Latin lookup 0 subtable" g a m e
Ligature2: "'liga' Ligaduras est+AOEA-ndar in Latin lookup 0 subtable" d i c e
EndChar

StartChar: uniE916
Encoding: 59670 59670 121
Width: 1024
Flags: W
LayerCount: 2
Fore
SplineSet
965 781 m 1,0,1
 930 822 930 822 886.5 855 c 128,-1,2
 843 888 843 888 793.5 911.5 c 128,-1,3
 744 935 744 935 689 947.5 c 128,-1,4
 634 960 634 960 576 960 c 0,5,6
 470 960 470 960 376.5 920 c 128,-1,7
 283 880 283 880 213.5 810.5 c 128,-1,8
 144 741 144 741 104 647.5 c 128,-1,9
 64 554 64 554 64 448 c 256,10,11
 64 342 64 342 104 248.5 c 128,-1,12
 144 155 144 155 213.5 85.5 c 128,-1,13
 283 16 283 16 376.5 -24 c 128,-1,14
 470 -64 470 -64 576 -64 c 0,15,16
 634 -64 634 -64 689 -51.5 c 128,-1,17
 744 -39 744 -39 793.5 -15.5 c 128,-1,18
 843 8 843 8 886.5 41 c 128,-1,19
 930 74 930 74 965 115 c 1,20,-1
 640 448 l 1,21,-1
 965 781 l 1,22,-1
 965 781 l 1,0,1
704 839 m 1,23,24
 734 839 734 839 754.5 818.5 c 128,-1,25
 775 798 775 798 775 768 c 256,26,27
 775 738 775 738 754.5 717.5 c 128,-1,28
 734 697 734 697 704 697 c 256,29,30
 674 697 674 697 653.5 717.5 c 128,-1,31
 633 738 633 738 633 768 c 256,32,33
 633 798 633 798 653.5 818.5 c 128,-1,34
 674 839 674 839 704 839 c 1,35,-1
 704 839 l 1,23,24
EndSplineSet
Ligature2: "'liga' Ligaduras est+AOEA-ndar in Latin lookup 0 subtable" p a c m a n
Ligature2: "'liga' Ligaduras est+AOEA-ndar in Latin lookup 0 subtable" g a m e two
EndChar

StartChar: uniE917
Encoding: 59671 59671 122
Width: 1024
Flags: W
LayerCount: 2
Fore
SplineSet
818 612 m 1,0,1
 745 666 745 666 694.5 714.5 c 128,-1,2
 644 763 644 763 609 806.5 c 128,-1,3
 574 850 574 850 551.5 888.5 c 128,-1,4
 529 927 529 927 512 960 c 1,5,-1
 512 960 l 1,6,7
 512 960 512 960 512 960 c 129,-1,8
 512 960 512 960 512 960 c 1,9,-1
 512 960 l 1,10,11
 495 927 495 927 472.5 888.5 c 128,-1,12
 450 850 450 850 415 806.5 c 128,-1,13
 380 763 380 763 329.5 714.5 c 128,-1,14
 279 666 279 666 206 612 c 0,15,16
 83 520 83 520 68.5 419.5 c 128,-1,17
 54 319 54 319 107 249.5 c 128,-1,18
 160 180 160 180 259 161 c 128,-1,19
 358 142 358 142 460 213 c 1,20,21
 447 125 447 125 406.5 63 c 128,-1,22
 366 1 366 1 320 -26 c 1,23,-1
 320 -64 l 1,24,-1
 704 -64 l 1,25,-1
 704 -26 l 1,26,27
 658 1 658 1 617.5 63 c 128,-1,28
 577 125 577 125 564 213 c 1,29,30
 666 142 666 142 765 161 c 128,-1,31
 864 180 864 180 917 249.5 c 128,-1,32
 970 319 970 319 955.5 419.5 c 128,-1,33
 941 520 941 520 818 612 c 1,34,-1
 818 612 l 1,0,1
EndSplineSet
Ligature2: "'liga' Ligaduras est+AOEA-ndar in Latin lookup 0 subtable" s p a d e s
Ligature2: "'liga' Ligaduras est+AOEA-ndar in Latin lookup 0 subtable" c a r d s
EndChar

StartChar: uniE918
Encoding: 59672 59672 123
Width: 1024
Flags: W
LayerCount: 2
Fore
SplineSet
787 567 m 1,0,1
 743 567 743 567 704 550 c 128,-1,2
 665 533 665 533 637 503 c 0,3,4
 625 490 625 490 605.5 475.5 c 128,-1,5
 586 461 586 461 563 448 c 1,6,7
 574 488 574 488 602 532.5 c 128,-1,8
 630 577 630 577 653 599 c 0,9,10
 683 628 683 628 700 667 c 128,-1,11
 717 706 717 706 717 751 c 0,12,13
 717 794 717 794 701 832 c 128,-1,14
 685 870 685 870 657 898 c 128,-1,15
 629 926 629 926 591.5 943 c 128,-1,16
 554 960 554 960 512 960 c 256,17,18
 470 960 470 960 432.5 943 c 128,-1,19
 395 926 395 926 367 898 c 128,-1,20
 339 870 339 870 323 832 c 128,-1,21
 307 794 307 794 307 751 c 0,22,23
 307 706 307 706 324 667 c 128,-1,24
 341 628 341 628 371 599 c 0,25,26
 394 577 394 577 422 532.5 c 128,-1,27
 450 488 450 488 461 448 c 1,28,29
 438 461 438 461 418.5 475.5 c 128,-1,30
 399 490 399 490 387 503 c 0,31,32
 359 533 359 533 320 550 c 128,-1,33
 281 567 281 567 237 567 c 0,34,35
 194 567 194 567 156.5 550.5 c 128,-1,36
 119 534 119 534 91 506 c 128,-1,37
 63 478 63 478 46.5 439.5 c 128,-1,38
 30 401 30 401 30 358 c 256,39,40
 30 315 30 315 46.5 276.5 c 128,-1,41
 63 238 63 238 91 209.5 c 128,-1,42
 119 181 119 181 156.5 165 c 128,-1,43
 194 149 194 149 237 149 c 0,44,45
 281 149 281 149 320 166.5 c 128,-1,46
 359 184 359 184 387 214 c 0,47,48
 400 227 400 227 420.5 243 c 128,-1,49
 441 259 441 259 465 273 c 1,50,51
 464 217 464 217 451.5 169.5 c 128,-1,52
 439 122 439 122 418.5 84 c 128,-1,53
 398 46 398 46 372.5 18 c 128,-1,54
 347 -10 347 -10 320 -26 c 1,55,-1
 320 -64 l 1,56,-1
 704 -64 l 1,57,-1
 704 -26 l 1,58,59
 677 -10 677 -10 651.5 18 c 128,-1,60
 626 46 626 46 605.5 84 c 128,-1,61
 585 122 585 122 572.5 169.5 c 128,-1,62
 560 217 560 217 559 273 c 1,63,64
 583 259 583 259 603.5 243 c 128,-1,65
 624 227 624 227 637 214 c 0,66,67
 665 184 665 184 704 166.5 c 128,-1,68
 743 149 743 149 787 149 c 0,69,70
 830 149 830 149 867.5 165 c 128,-1,71
 905 181 905 181 933 209.5 c 128,-1,72
 961 238 961 238 977.5 276.5 c 128,-1,73
 994 315 994 315 994 358 c 256,74,75
 994 401 994 401 977.5 439.5 c 128,-1,76
 961 478 961 478 933 506 c 128,-1,77
 905 534 905 534 867.5 550.5 c 128,-1,78
 830 567 830 567 787 567 c 1,79,-1
 787 567 l 1,0,1
EndSplineSet
Ligature2: "'liga' Ligaduras est+AOEA-ndar in Latin lookup 0 subtable" c a r d s two
Ligature2: "'liga' Ligaduras est+AOEA-ndar in Latin lookup 0 subtable" c l u b s
EndChar

StartChar: uniE919
Encoding: 59673 59673 124
Width: 1024
Flags: W
LayerCount: 2
Fore
SplineSet
512 960 m 1,0,-1
 192 448 l 1,1,-1
 512 -64 l 1,2,-1
 832 448 l 1,3,-1
 512 960 l 1,0,-1
EndSplineSet
Ligature2: "'liga' Ligaduras est+AOEA-ndar in Latin lookup 0 subtable" d i a m o n d s
Ligature2: "'liga' Ligaduras est+AOEA-ndar in Latin lookup 0 subtable" c a r d s three
EndChar

StartChar: uniE91A
Encoding: 59674 59674 125
Width: 1024
Flags: W
LayerCount: 2
Fore
SplineSet
1024 531 m 1,0,1
 1024 606 1024 606 1013.5 672.5 c 128,-1,2
 1003 739 1003 739 985.5 788.5 c 128,-1,3
 968 838 968 838 944 866.5 c 128,-1,4
 920 895 920 895 893 896 c 1,5,6
 893 896 893 896 893 896 c 129,-1,7
 893 896 893 896 893 896 c 1,8,-1
 810 896 l 1,9,10
 810 896 810 896 775.5 872 c 128,-1,11
 741 848 741 848 678 815.5 c 128,-1,12
 615 783 615 783 527.5 748.5 c 128,-1,13
 440 714 440 714 335 692 c 1,14,15
 329 658 329 658 325 617.5 c 128,-1,16
 321 577 321 577 321 531 c 0,17,18
 321 484 321 484 325 443.5 c 128,-1,19
 329 403 329 403 335 369 c 1,20,21
 440 348 440 348 527.5 313.5 c 128,-1,22
 615 279 615 279 678 246 c 128,-1,23
 741 213 741 213 775.5 189 c 128,-1,24
 810 165 810 165 810 165 c 1,25,-1
 893 165 l 1,26,27
 893 165 893 165 893 165.5 c 128,-1,28
 893 166 893 166 893 166 c 1,29,30
 920 166 920 166 944 195 c 128,-1,31
 968 224 968 224 985.5 273.5 c 128,-1,32
 1003 323 1003 323 1013.5 389 c 128,-1,33
 1024 455 1024 455 1024 531 c 1,34,-1
 1024 531 l 1,0,1
865 221 m 1,35,36
 858 221 858 221 851 226.5 c 128,-1,37
 844 232 844 232 840 236 c 0,38,39
 831 247 831 247 822 263 c 128,-1,40
 813 279 813 279 805 300 c 0,41,42
 787 346 787 346 778 405.5 c 128,-1,43
 769 465 769 465 769 531 c 256,44,45
 769 597 769 597 778 656.5 c 128,-1,46
 787 716 787 716 805 762 c 0,47,48
 813 782 813 782 822 798.5 c 128,-1,49
 831 815 831 815 840 825 c 0,50,51
 844 830 844 830 851 835.5 c 128,-1,52
 858 841 858 841 865 841 c 256,53,54
 872 841 872 841 879 835.5 c 128,-1,55
 886 830 886 830 890 825 c 0,56,57
 899 815 899 815 908 798.5 c 128,-1,58
 917 782 917 782 925 762 c 0,59,60
 942 716 942 716 951.5 656.5 c 128,-1,61
 961 597 961 597 961 531 c 256,62,63
 961 465 961 465 951.5 405.5 c 128,-1,64
 942 346 942 346 925 300 c 0,65,66
 917 279 917 279 908 263 c 128,-1,67
 899 247 899 247 890 236 c 0,68,69
 886 232 886 232 879 226.5 c 128,-1,70
 872 221 872 221 865 221 c 1,71,-1
 865 221 l 1,35,36
252 531 m 1,72,73
 252 570 252 570 254.5 607.5 c 128,-1,74
 257 645 257 645 263 680 c 1,75,76
 227 675 227 675 194 672.5 c 128,-1,77
 161 670 161 670 123 670 c 0,78,79
 72 670 72 670 63.5 670 c 128,-1,80
 55 670 55 670 55 670 c 1,81,-1
 0 575 l 1,82,-1
 0 487 l 1,83,-1
 55 392 l 1,84,85
 55 392 55 392 63.5 392 c 128,-1,86
 72 392 72 392 123 392 c 0,87,88
 161 392 161 392 194 389.5 c 128,-1,89
 227 387 227 387 263 382 c 1,90,91
 257 417 257 417 254.5 454.5 c 128,-1,92
 252 492 252 492 252 531 c 1,93,-1
 252 531 l 1,72,73
368 318 m 1,94,-1
 240 342 l 1,95,-1
 322 21 l 2,96,97
 325 8 325 8 336 2.5 c 128,-1,98
 347 -3 347 -3 359 2 c 2,99,-1
 477 50 l 2,100,101
 489 54 489 54 493.5 65.5 c 128,-1,102
 498 77 498 77 491 89 c 2,103,-1
 368 318 l 1,104,-1
 368 318 l 1,94,-1
865 411 m 1,105,106
 862 411 862 411 859.5 413.5 c 128,-1,107
 857 416 857 416 855 417 c 0,108,109
 852 421 852 421 848.5 427.5 c 128,-1,110
 845 434 845 434 842 442 c 0,111,112
 835 459 835 459 831.5 482 c 128,-1,113
 828 505 828 505 828 531 c 0,114,115
 828 556 828 556 831.5 579 c 128,-1,116
 835 602 835 602 842 620 c 0,117,118
 845 628 845 628 848.5 634 c 128,-1,119
 852 640 852 640 855 644 c 0,120,121
 857 646 857 646 859.5 648 c 128,-1,122
 862 650 862 650 865 650 c 256,123,124
 868 650 868 650 870.5 648 c 128,-1,125
 873 646 873 646 874 644 c 0,126,127
 878 640 878 640 881.5 634 c 128,-1,128
 885 628 885 628 888 620 c 0,129,130
 895 602 895 602 898.5 579 c 128,-1,131
 902 556 902 556 902 531 c 0,132,133
 902 505 902 505 898.5 482 c 128,-1,134
 895 459 895 459 888 442 c 0,135,136
 885 434 885 434 881.5 427.5 c 128,-1,137
 878 421 878 421 874 417 c 0,138,139
 873 416 873 416 870.5 413.5 c 128,-1,140
 868 411 868 411 865 411 c 1,141,-1
 865 411 l 1,105,106
EndSplineSet
Ligature2: "'liga' Ligaduras est+AOEA-ndar in Latin lookup 0 subtable" m e g a p h o n e
Ligature2: "'liga' Ligaduras est+AOEA-ndar in Latin lookup 0 subtable" b u l l h o r n
EndChar

StartChar: uniE91B
Encoding: 59675 59675 126
Width: 1280
Flags: W
LayerCount: 2
Fore
SplineSet
640 384 m 1,0,1
 719 384 719 384 789 354 c 128,-1,2
 859 324 859 324 911 271 c 1,3,-1
 821 181 l 1,4,5
 786 216 786 216 739.5 236 c 128,-1,6
 693 256 693 256 640 256 c 256,7,8
 587 256 587 256 540.5 236 c 128,-1,9
 494 216 494 216 459 181 c 1,10,-1
 369 271 l 1,11,12
 421 324 421 324 491 354 c 128,-1,13
 561 384 561 384 640 384 c 1,14,-1
 640 384 l 1,0,1
187 453 m 1,15,16
 233 498 233 498 285 533 c 128,-1,17
 337 568 337 568 394.5 591.5 c 128,-1,18
 452 615 452 615 514 627.5 c 128,-1,19
 576 640 576 640 640 640 c 256,20,21
 704 640 704 640 766 627.5 c 128,-1,22
 828 615 828 615 885.5 591.5 c 128,-1,23
 943 568 943 568 995 533 c 128,-1,24
 1047 498 1047 498 1093 453 c 1,25,-1
 1002 362 l 1,26,27
 966 398 966 398 924 426 c 128,-1,28
 882 454 882 454 836 473 c 128,-1,29
 790 492 790 492 740.5 502 c 128,-1,30
 691 512 691 512 640 512 c 256,31,32
 589 512 589 512 539.5 502 c 128,-1,33
 490 492 490 492 444 473 c 128,-1,34
 398 454 398 454 356 426 c 128,-1,35
 314 398 314 398 278 362 c 1,36,-1
 187 453 l 1,37,-1
 187 453 l 1,15,16
989 826 m 1,38,39
 1029 809 1029 809 1067 788.5 c 128,-1,40
 1105 768 1105 768 1140.5 743.5 c 128,-1,41
 1176 719 1176 719 1209.5 691.5 c 128,-1,42
 1243 664 1243 664 1274 634 c 1,43,-1
 1274 634 l 1,44,-1
 1183 543 l 1,45,46
 1129 597 1129 597 1066 639 c 128,-1,47
 1003 681 1003 681 934 710 c 128,-1,48
 865 739 865 739 791 753.5 c 128,-1,49
 717 768 717 768 640 768 c 256,50,51
 563 768 563 768 489 753.5 c 128,-1,52
 415 739 415 739 346 710 c 128,-1,53
 277 681 277 681 214 639 c 128,-1,54
 151 597 151 597 97 543 c 1,55,-1
 6 634 l 1,56,57
 37 664 37 664 70.5 691.5 c 128,-1,58
 104 719 104 719 139.5 743.5 c 128,-1,59
 175 768 175 768 213 788.5 c 128,-1,60
 251 809 251 809 291 826 c 0,61,62
 333 843 333 843 375.5 856 c 128,-1,63
 418 869 418 869 461.5 878 c 128,-1,64
 505 887 505 887 550 891.5 c 128,-1,65
 595 896 595 896 640 896 c 256,66,67
 685 896 685 896 730 891.5 c 128,-1,68
 775 887 775 887 818.5 878 c 128,-1,69
 862 869 862 869 904.5 856 c 128,-1,70
 947 843 947 843 989 826 c 1,71,-1
 989 826 l 1,38,39
576 64 m 1,72,73
 576 91 576 91 594.5 109.5 c 128,-1,74
 613 128 613 128 640 128 c 256,75,76
 667 128 667 128 685.5 109.5 c 128,-1,77
 704 91 704 91 704 64 c 256,78,79
 704 37 704 37 685.5 18.5 c 128,-1,80
 667 0 667 0 640 0 c 256,81,82
 613 0 613 0 594.5 18.5 c 128,-1,83
 576 37 576 37 576 64 c 1,84,-1
 576 64 l 1,72,73
EndSplineSet
Ligature2: "'liga' Ligaduras est+AOEA-ndar in Latin lookup 0 subtable" w i f i
Ligature2: "'liga' Ligaduras est+AOEA-ndar in Latin lookup 0 subtable" c o n n e c t i o n
EndChar

StartChar: uniE91C
Encoding: 59676 59676 127
Width: 1024
Flags: W
LayerCount: 2
Fore
SplineSet
1024 448 m 1,0,1
 1024 554 1024 554 984 647.5 c 128,-1,2
 944 741 944 741 874.5 810.5 c 128,-1,3
 805 880 805 880 711.5 920 c 128,-1,4
 618 960 618 960 512 960 c 256,5,6
 406 960 406 960 312.5 920 c 128,-1,7
 219 880 219 880 149.5 810.5 c 128,-1,8
 80 741 80 741 40 647.5 c 128,-1,9
 0 554 0 554 0 448 c 0,10,11
 0 365 0 365 24.5 290 c 128,-1,12
 49 215 49 215 93.5 152.5 c 128,-1,13
 138 90 138 90 199.5 42.5 c 128,-1,14
 261 -5 261 -5 334 -32 c 1,15,-1
 320 -64 l 1,16,-1
 704 -64 l 1,17,-1
 690 -32 l 1,18,19
 763 -5 763 -5 824.5 42.5 c 128,-1,20
 886 90 886 90 930.5 152.5 c 128,-1,21
 975 215 975 215 999.5 290 c 128,-1,22
 1024 365 1024 365 1024 448 c 1,23,-1
 1024 448 l 1,0,1
487 325 m 1,24,25
 470 333 470 333 459 348.5 c 128,-1,26
 448 364 448 364 448 384 c 0,27,28
 448 411 448 411 466.5 429.5 c 128,-1,29
 485 448 485 448 512 448 c 256,30,31
 539 448 539 448 557.5 429.5 c 128,-1,32
 576 411 576 411 576 384 c 0,33,34
 576 364 576 364 565 348.5 c 128,-1,35
 554 333 554 333 537 325 c 1,36,-1
 512 384 l 1,37,-1
 487 325 l 1,38,-1
 487 325 l 1,24,25
538 323 m 1,39,40
 582 332 582 332 611 367 c 128,-1,41
 640 402 640 402 640 448 c 0,42,43
 640 501 640 501 602.5 538.5 c 128,-1,44
 565 576 565 576 512 576 c 256,45,46
 459 576 459 576 421.5 538.5 c 128,-1,47
 384 501 384 501 384 448 c 0,48,49
 384 402 384 402 413 367 c 128,-1,50
 442 332 442 332 486 323 c 1,51,-1
 411 149 l 1,52,53
 343 178 343 178 299.5 241.5 c 128,-1,54
 256 305 256 305 256 384 c 0,55,56
 256 437 256 437 276 485.5 c 128,-1,57
 296 534 296 534 331 571 c 128,-1,58
 366 608 366 608 412.5 630 c 128,-1,59
 459 652 459 652 512 652 c 256,60,61
 565 652 565 652 611.5 630 c 128,-1,62
 658 608 658 608 693 571 c 128,-1,63
 728 534 728 534 748 485.5 c 128,-1,64
 768 437 768 437 768 384 c 0,65,66
 768 305 768 305 724.5 241.5 c 128,-1,67
 681 178 681 178 613 149 c 1,68,-1
 538 323 l 1,69,-1
 538 323 l 1,39,40
688 -28 m 1,70,-1
 615 145 l 1,71,72
 662 161 662 161 702 190.5 c 128,-1,73
 742 220 742 220 771 259.5 c 128,-1,74
 800 299 800 299 816 347 c 128,-1,75
 832 395 832 395 832 448 c 0,76,77
 832 514 832 514 807 572.5 c 128,-1,78
 782 631 782 631 738.5 674.5 c 128,-1,79
 695 718 695 718 636.5 743 c 128,-1,80
 578 768 578 768 512 768 c 256,81,82
 446 768 446 768 387.5 743 c 128,-1,83
 329 718 329 718 285.5 674.5 c 128,-1,84
 242 631 242 631 217 572.5 c 128,-1,85
 192 514 192 514 192 448 c 0,86,87
 192 395 192 395 208 347 c 128,-1,88
 224 299 224 299 253 259.5 c 128,-1,89
 282 220 282 220 322 190.5 c 128,-1,90
 362 161 362 161 409 145 c 1,91,-1
 336 -28 l 1,92,93
 276 -2 276 -2 226 39.5 c 128,-1,94
 176 81 176 81 140 134.5 c 128,-1,95
 104 188 104 188 84 251.5 c 128,-1,96
 64 315 64 315 64 384 c 0,97,98
 64 477 64 477 99.5 560.5 c 128,-1,99
 135 644 135 644 195.5 707 c 128,-1,100
 256 770 256 770 337.5 807 c 128,-1,101
 419 844 419 844 512 844 c 256,102,103
 605 844 605 844 686.5 807 c 128,-1,104
 768 770 768 770 828.5 707 c 128,-1,105
 889 644 889 644 924.5 560.5 c 128,-1,106
 960 477 960 477 960 384 c 0,107,108
 960 315 960 315 940 251.5 c 128,-1,109
 920 188 920 188 884 134.5 c 128,-1,110
 848 81 848 81 798 39.5 c 128,-1,111
 748 -2 748 -2 688 -28 c 1,112,-1
 688 -28 l 1,70,-1
EndSplineSet
Ligature2: "'liga' Ligaduras est+AOEA-ndar in Latin lookup 0 subtable" p o d c a s t
Ligature2: "'liga' Ligaduras est+AOEA-ndar in Latin lookup 0 subtable" b r o a d c a s t
EndChar

StartChar: uniE91D
Encoding: 59677 59677 128
Width: 1024
Flags: W
LayerCount: 2
Fore
SplineSet
384 448 m 1,0,1
 384 501 384 501 421.5 538.5 c 128,-1,2
 459 576 459 576 512 576 c 256,3,4
 565 576 565 576 602.5 538.5 c 128,-1,5
 640 501 640 501 640 448 c 256,6,7
 640 395 640 395 602.5 357.5 c 128,-1,8
 565 320 565 320 512 320 c 256,9,10
 459 320 459 320 421.5 357.5 c 128,-1,11
 384 395 384 395 384 448 c 1,12,-1
 384 448 l 1,0,1
664 729 m 1,13,14
 702 709 702 709 733 679.5 c 128,-1,15
 764 650 764 650 786 614 c 128,-1,16
 808 578 808 578 820 536 c 128,-1,17
 832 494 832 494 832 448 c 256,18,19
 832 402 832 402 820 360 c 128,-1,20
 808 318 808 318 786 282 c 128,-1,21
 764 246 764 246 733 216.5 c 128,-1,22
 702 187 702 187 664 167 c 1,23,24
 697 219 697 219 716.5 292 c 128,-1,25
 736 365 736 365 736 448 c 256,26,27
 736 531 736 531 716.5 604 c 128,-1,28
 697 677 697 677 664 729 c 1,29,-1
 664 729 l 1,13,14
288 448 m 1,30,31
 288 365 288 365 307.5 292 c 128,-1,32
 327 219 327 219 360 167 c 1,33,34
 322 187 322 187 291 216.5 c 128,-1,35
 260 246 260 246 238 282 c 128,-1,36
 216 318 216 318 204 360 c 128,-1,37
 192 402 192 402 192 448 c 256,38,39
 192 494 192 494 204 536 c 128,-1,40
 216 578 216 578 238 614 c 128,-1,41
 260 650 260 650 291 679.5 c 128,-1,42
 322 709 322 709 360 729 c 1,43,44
 327 677 327 677 307.5 604 c 128,-1,45
 288 531 288 531 288 448 c 1,46,-1
 288 448 l 1,30,31
96 448 m 1,47,48
 96 384 96 384 106 323 c 128,-1,49
 116 262 116 262 134 207 c 128,-1,50
 152 152 152 152 178 104 c 128,-1,51
 204 56 204 56 237 16 c 1,52,53
 183 50 183 50 139.5 96.5 c 128,-1,54
 96 143 96 143 65 198.5 c 128,-1,55
 34 254 34 254 17 317 c 128,-1,56
 0 380 0 380 0 448 c 256,57,58
 0 516 0 516 17 579 c 128,-1,59
 34 642 34 642 65 697.5 c 128,-1,60
 96 753 96 753 139.5 799.5 c 128,-1,61
 183 846 183 846 237 880 c 1,62,63
 204 840 204 840 178 792 c 128,-1,64
 152 744 152 744 134 689 c 128,-1,65
 116 634 116 634 106 573 c 128,-1,66
 96 512 96 512 96 448 c 1,67,-1
 96 448 l 1,47,48
787 880 m 1,68,69
 841 846 841 846 884.5 799.5 c 128,-1,70
 928 753 928 753 959 697.5 c 128,-1,71
 990 642 990 642 1007 579 c 128,-1,72
 1024 516 1024 516 1024 448 c 256,73,74
 1024 380 1024 380 1007 317 c 128,-1,75
 990 254 990 254 959 198.5 c 128,-1,76
 928 143 928 143 884.5 96.5 c 128,-1,77
 841 50 841 50 787 16 c 1,78,79
 820 56 820 56 846 104 c 128,-1,80
 872 152 872 152 890 207 c 128,-1,81
 908 262 908 262 918 323 c 128,-1,82
 928 384 928 384 928 448 c 256,83,84
 928 512 928 512 918 573 c 128,-1,85
 908 634 908 634 890 689 c 128,-1,86
 872 744 872 744 846 792 c 128,-1,87
 820 840 820 840 787 880 c 1,88,-1
 787 880 l 1,68,69
EndSplineSet
Ligature2: "'liga' Ligaduras est+AOEA-ndar in Latin lookup 0 subtable" w a v e
Ligature2: "'liga' Ligaduras est+AOEA-ndar in Latin lookup 0 subtable" f e e d
EndChar

StartChar: uniE91E
Encoding: 59678 59678 129
Width: 1024
Flags: W
LayerCount: 2
Fore
SplineSet
480 256 m 1,0,1
 546 256 546 256 593 303 c 128,-1,2
 640 350 640 350 640 416 c 2,3,-1
 640 800 l 2,4,5
 640 866 640 866 593 913 c 128,-1,6
 546 960 546 960 480 960 c 256,7,8
 414 960 414 960 367 913 c 128,-1,9
 320 866 320 866 320 800 c 2,10,-1
 320 416 l 2,11,12
 320 350 320 350 367 303 c 128,-1,13
 414 256 414 256 480 256 c 1,14,-1
 480 256 l 1,0,1
704 512 m 1,15,-1
 704 416 l 2,16,17
 704 370 704 370 686.5 329 c 128,-1,18
 669 288 669 288 638.5 257.5 c 128,-1,19
 608 227 608 227 567 209.5 c 128,-1,20
 526 192 526 192 480 192 c 256,21,22
 434 192 434 192 393 209.5 c 128,-1,23
 352 227 352 227 321.5 257.5 c 128,-1,24
 291 288 291 288 273.5 329 c 128,-1,25
 256 370 256 370 256 416 c 2,26,-1
 256 512 l 1,27,-1
 192 512 l 1,28,-1
 192 416 l 2,29,30
 192 360 192 360 212 311 c 128,-1,31
 232 262 232 262 266.5 223.5 c 128,-1,32
 301 185 301 185 347.5 160.5 c 128,-1,33
 394 136 394 136 448 130 c 1,34,-1
 448 0 l 1,35,-1
 320 0 l 1,36,-1
 320 -64 l 1,37,-1
 640 -64 l 1,38,-1
 640 0 l 1,39,-1
 512 0 l 1,40,-1
 512 130 l 1,41,42
 566 136 566 136 612.5 160.5 c 128,-1,43
 659 185 659 185 693.5 223.5 c 128,-1,44
 728 262 728 262 748 311 c 128,-1,45
 768 360 768 360 768 416 c 2,46,-1
 768 512 l 1,47,-1
 704 512 l 1,48,-1
 704 512 l 1,15,-1
EndSplineSet
Ligature2: "'liga' Ligaduras est+AOEA-ndar in Latin lookup 0 subtable" m i c
Ligature2: "'liga' Ligaduras est+AOEA-ndar in Latin lookup 0 subtable" m i c r o p h o n e
EndChar

StartChar: uniE91F
Encoding: 59679 59679 130
Width: 1024
Flags: W
LayerCount: 2
Fore
SplineSet
896 832 m 1,0,-1
 896 0 l 1,1,-1
 224 0 l 2,2,3
 184 0 184 0 156 28 c 128,-1,4
 128 56 128 56 128 96 c 256,5,6
 128 136 128 136 156 164 c 128,-1,7
 184 192 184 192 224 192 c 2,8,-1
 832 192 l 1,9,-1
 832 960 l 1,10,-1
 192 960 l 2,11,12
 139 960 139 960 101.5 922.5 c 128,-1,13
 64 885 64 885 64 832 c 2,14,-1
 64 64 l 2,15,16
 64 11 64 11 101.5 -26.5 c 128,-1,17
 139 -64 139 -64 192 -64 c 2,18,-1
 960 -64 l 1,19,-1
 960 832 l 1,20,-1
 896 832 l 1,21,-1
 896 832 l 1,0,-1
224 128 m 1,22,-1
 224 128 l 1,23,24
 224 128 224 128 224 128 c 129,-1,25
 224 128 224 128 224 128 c 1,26,27
 211 128 211 128 201.5 118.5 c 128,-1,28
 192 109 192 109 192 96 c 256,29,30
 192 83 192 83 201.5 73.5 c 128,-1,31
 211 64 211 64 224 64 c 1,32,33
 224 64 224 64 224 64 c 129,-1,34
 224 64 224 64 224 64 c 1,35,-1
 224 64 l 1,36,-1
 832 64 l 1,37,-1
 832 128 l 1,38,-1
 224 128 l 1,39,-1
 224 128 l 1,22,-1
EndSplineSet
Ligature2: "'liga' Ligaduras est+AOEA-ndar in Latin lookup 0 subtable" r e a d
Ligature2: "'liga' Ligaduras est+AOEA-ndar in Latin lookup 0 subtable" b o o k
EndChar

StartChar: uniE920
Encoding: 59680 59680 131
Width: 1152
Flags: W
LayerCount: 2
Fore
SplineSet
224 832 m 1,0,-1
 32 832 l 2,1,2
 19 832 19 832 9.5 822.5 c 128,-1,3
 0 813 0 813 0 800 c 2,4,-1
 0 96 l 2,5,6
 0 83 0 83 9.5 73.5 c 128,-1,7
 19 64 19 64 32 64 c 2,8,-1
 224 64 l 2,9,10
 237 64 237 64 246.5 73.5 c 128,-1,11
 256 83 256 83 256 96 c 2,12,-1
 256 800 l 2,13,14
 256 813 256 813 246.5 822.5 c 128,-1,15
 237 832 237 832 224 832 c 1,16,-1
 224 832 l 1,0,-1
192 640 m 1,17,-1
 64 640 l 1,18,-1
 64 704 l 1,19,-1
 192 704 l 1,20,-1
 192 640 l 1,21,-1
 192 640 l 1,17,-1
544 832 m 1,22,-1
 352 832 l 2,23,24
 339 832 339 832 329.5 822.5 c 128,-1,25
 320 813 320 813 320 800 c 2,26,-1
 320 96 l 2,27,28
 320 83 320 83 329.5 73.5 c 128,-1,29
 339 64 339 64 352 64 c 2,30,-1
 544 64 l 2,31,32
 557 64 557 64 566.5 73.5 c 128,-1,33
 576 83 576 83 576 96 c 2,34,-1
 576 800 l 2,35,36
 576 813 576 813 566.5 822.5 c 128,-1,37
 557 832 557 832 544 832 c 1,38,-1
 544 832 l 1,22,-1
512 640 m 1,39,-1
 384 640 l 1,40,-1
 384 704 l 1,41,-1
 512 704 l 1,42,-1
 512 640 l 1,43,-1
 512 640 l 1,39,-1
765 783 m 1,44,-1
 594 696 l 2,45,46
 582 690 582 690 578 677.5 c 128,-1,47
 574 665 574 665 579 653 c 2,48,-1
 867 82 l 2,49,50
 873 70 873 70 886 65.5 c 128,-1,51
 899 61 899 61 910 67 c 2,52,-1
 1082 154 l 2,53,54
 1094 160 1094 160 1098 172.5 c 128,-1,55
 1102 185 1102 185 1096 197 c 2,56,-1
 808 768 l 2,57,58
 802 780 802 780 789.5 784 c 128,-1,59
 777 788 777 788 765 783 c 1,60,-1
 765 783 l 1,44,-1
928 96 m 1,61,62
 928 83 928 83 918.5 73.5 c 128,-1,63
 909 64 909 64 896 64 c 256,64,65
 883 64 883 64 873.5 73.5 c 128,-1,66
 864 83 864 83 864 96 c 256,67,68
 864 109 864 109 873.5 118.5 c 128,-1,69
 883 128 883 128 896 128 c 256,70,71
 909 128 909 128 918.5 118.5 c 128,-1,72
 928 109 928 109 928 96 c 1,73,-1
 928 96 l 1,61,62
EndSplineSet
Ligature2: "'liga' Ligaduras est+AOEA-ndar in Latin lookup 0 subtable" l i b r a r y
Ligature2: "'liga' Ligaduras est+AOEA-ndar in Latin lookup 0 subtable" b o o k s
EndChar

StartChar: uniE921
Encoding: 59681 59681 132
Width: 1088
Flags: W
LayerCount: 2
Fore
SplineSet
1024 0 m 1,0,-1
 1024 64 l 1,1,-1
 960 64 l 1,2,-1
 960 448 l 1,3,-1
 1024 448 l 1,4,-1
 1024 512 l 1,5,-1
 832 512 l 1,6,-1
 832 448 l 1,7,-1
 896 448 l 1,8,-1
 896 64 l 1,9,-1
 704 64 l 1,10,-1
 704 448 l 1,11,-1
 768 448 l 1,12,-1
 768 512 l 1,13,-1
 576 512 l 1,14,-1
 576 448 l 1,15,-1
 640 448 l 1,16,-1
 640 64 l 1,17,-1
 448 64 l 1,18,-1
 448 448 l 1,19,-1
 512 448 l 1,20,-1
 512 512 l 1,21,-1
 320 512 l 1,22,-1
 320 448 l 1,23,-1
 384 448 l 1,24,-1
 384 64 l 1,25,-1
 192 64 l 1,26,-1
 192 448 l 1,27,-1
 256 448 l 1,28,-1
 256 512 l 1,29,-1
 64 512 l 1,30,-1
 64 448 l 1,31,-1
 128 448 l 1,32,-1
 128 64 l 1,33,-1
 64 64 l 1,34,-1
 64 0 l 1,35,-1
 0 0 l 1,36,-1
 0 -64 l 1,37,-1
 1088 -64 l 1,38,-1
 1088 0 l 1,39,-1
 1024 0 l 1,40,-1
 1024 0 l 1,0,-1
512 960 m 1,41,-1
 576 960 l 1,42,-1
 1088 640 l 1,43,-1
 1088 576 l 1,44,-1
 0 576 l 1,45,-1
 0 640 l 1,46,-1
 512 960 l 1,47,-1
 512 960 l 1,41,-1
EndSplineSet
Ligature2: "'liga' Ligaduras est+AOEA-ndar in Latin lookup 0 subtable" l i b r a r y two
Ligature2: "'liga' Ligaduras est+AOEA-ndar in Latin lookup 0 subtable" b a n k
EndChar

StartChar: uniE922
Encoding: 59682 59682 133
Width: 1024
Flags: W
LayerCount: 2
Fore
SplineSet
864 960 m 1,0,-1
 96 960 l 2,1,2
 56 960 56 960 28 932 c 128,-1,3
 0 904 0 904 0 864 c 2,4,-1
 0 32 l 2,5,6
 0 -8 0 -8 28 -36 c 128,-1,7
 56 -64 56 -64 96 -64 c 2,8,-1
 864 -64 l 2,9,10
 904 -64 904 -64 932 -36 c 128,-1,11
 960 -8 960 -8 960 32 c 2,12,-1
 960 864 l 2,13,14
 960 904 960 904 932 932 c 128,-1,15
 904 960 904 960 864 960 c 1,16,-1
 864 960 l 1,0,-1
832 64 m 1,17,-1
 128 64 l 1,18,-1
 128 832 l 1,19,-1
 832 832 l 1,20,-1
 832 64 l 1,21,-1
 832 64 l 1,17,-1
256 512 m 1,22,-1
 704 512 l 1,23,-1
 704 448 l 1,24,-1
 256 448 l 1,25,-1
 256 512 l 1,22,-1
256 384 m 1,26,-1
 704 384 l 1,27,-1
 704 320 l 1,28,-1
 256 320 l 1,29,-1
 256 384 l 1,26,-1
256 256 m 1,30,-1
 704 256 l 1,31,-1
 704 192 l 1,32,-1
 256 192 l 1,33,-1
 256 256 l 1,30,-1
256 640 m 1,34,-1
 704 640 l 1,35,-1
 704 576 l 1,36,-1
 256 576 l 1,37,-1
 256 640 l 1,34,-1
EndSplineSet
Ligature2: "'liga' Ligaduras est+AOEA-ndar in Latin lookup 0 subtable" f i l e
Ligature2: "'liga' Ligaduras est+AOEA-ndar in Latin lookup 0 subtable" f i l e hyphen t e x t
EndChar

StartChar: uniE923
Encoding: 59683 59683 134
Width: 1024
Flags: W
LayerCount: 2
Fore
SplineSet
864 960 m 1,0,-1
 96 960 l 2,1,2
 56 960 56 960 28 932 c 128,-1,3
 0 904 0 904 0 864 c 2,4,-1
 0 32 l 2,5,6
 0 -8 0 -8 28 -36 c 128,-1,7
 56 -64 56 -64 96 -64 c 2,8,-1
 864 -64 l 2,9,10
 904 -64 904 -64 932 -36 c 128,-1,11
 960 -8 960 -8 960 32 c 2,12,-1
 960 864 l 2,13,14
 960 904 960 904 932 932 c 128,-1,15
 904 960 904 960 864 960 c 1,16,-1
 864 960 l 1,0,-1
832 64 m 1,17,-1
 128 64 l 1,18,-1
 128 832 l 1,19,-1
 832 832 l 1,20,-1
 832 64 l 1,21,-1
 832 64 l 1,17,-1
256 384 m 1,22,-1
 704 384 l 1,23,-1
 704 320 l 1,24,-1
 256 320 l 1,25,-1
 256 384 l 1,22,-1
256 256 m 1,26,-1
 704 256 l 1,27,-1
 704 192 l 1,28,-1
 256 192 l 1,29,-1
 256 256 l 1,26,-1
320 672 m 1,30,31
 320 712 320 712 348 740 c 128,-1,32
 376 768 376 768 416 768 c 256,33,34
 456 768 456 768 484 740 c 128,-1,35
 512 712 512 712 512 672 c 256,36,37
 512 632 512 632 484 604 c 128,-1,38
 456 576 456 576 416 576 c 256,39,40
 376 576 376 576 348 604 c 128,-1,41
 320 632 320 632 320 672 c 1,42,-1
 320 672 l 1,30,31
480 576 m 1,43,-1
 352 576 l 2,44,45
 312 576 312 576 284 557 c 128,-1,46
 256 538 256 538 256 512 c 2,47,-1
 256 448 l 1,48,-1
 576 448 l 1,49,-1
 576 512 l 2,50,51
 576 538 576 538 548 557 c 128,-1,52
 520 576 520 576 480 576 c 1,53,-1
 480 576 l 1,43,-1
EndSplineSet
Ligature2: "'liga' Ligaduras est+AOEA-ndar in Latin lookup 0 subtable" p r o f i l e
Ligature2: "'liga' Ligaduras est+AOEA-ndar in Latin lookup 0 subtable" f i l e two
EndChar

StartChar: uniE924
Encoding: 59684 59684 135
Width: 1024
Flags: W
LayerCount: 2
Fore
SplineSet
918 731 m 1,0,1
 901 754 901 754 878.5 779.5 c 128,-1,2
 856 805 856 805 831 831 c 0,3,4
 805 856 805 856 779.5 878.5 c 128,-1,5
 754 901 754 901 731 918 c 0,6,7
 692 946 692 946 671.5 953 c 128,-1,8
 651 960 651 960 640 960 c 2,9,-1
 144 960 l 2,10,11
 111 960 111 960 87.5 936.5 c 128,-1,12
 64 913 64 913 64 880 c 2,13,-1
 64 16 l 2,14,15
 64 -17 64 -17 87.5 -40.5 c 128,-1,16
 111 -64 111 -64 144 -64 c 2,17,-1
 880 -64 l 2,18,19
 913 -64 913 -64 936.5 -40.5 c 128,-1,20
 960 -17 960 -17 960 16 c 2,21,-1
 960 640 l 2,22,23
 960 651 960 651 953 671.5 c 128,-1,24
 946 692 946 692 918 731 c 1,25,-1
 918 731 l 1,0,1
785 785 m 1,26,27
 808 762 808 762 826.5 741.5 c 128,-1,28
 845 721 845 721 858 704 c 1,29,-1
 704 704 l 1,30,-1
 704 858 l 1,31,32
 721 845 721 845 741.5 826.5 c 128,-1,33
 762 808 762 808 785 785 c 1,34,-1
 785 785 l 1,26,27
896 16 m 1,35,36
 896 9 896 9 891.5 4.5 c 128,-1,37
 887 0 887 0 880 0 c 2,38,-1
 144 0 l 2,39,40
 137 0 137 0 132.5 4.5 c 128,-1,41
 128 9 128 9 128 16 c 2,42,-1
 128 880 l 2,43,44
 128 887 128 887 132.5 891.5 c 128,-1,45
 137 896 137 896 144 896 c 2,46,47
 144 896 144 896 221.5 896 c 128,-1,48
 299 896 299 896 392 896 c 128,-1,49
 485 896 485 896 562.5 896 c 128,-1,50
 640 896 640 896 640 896 c 1,51,-1
 640 672 l 2,52,53
 640 659 640 659 649.5 649.5 c 128,-1,54
 659 640 659 640 672 640 c 2,55,-1
 896 640 l 1,56,-1
 896 16 l 1,57,-1
 896 16 l 1,35,36
EndSplineSet
Ligature2: "'liga' Ligaduras est+AOEA-ndar in Latin lookup 0 subtable" f i l e hyphen e m p t y
Ligature2: "'liga' Ligaduras est+AOEA-ndar in Latin lookup 0 subtable" f i l e three
EndChar

StartChar: uniE925
Encoding: 59685 59685 136
Width: 1024
Flags: W
LayerCount: 2
Fore
SplineSet
918 603 m 1,0,1
 901 626 901 626 878.5 651.5 c 128,-1,2
 856 677 856 677 831 703 c 0,3,4
 805 728 805 728 779.5 750.5 c 128,-1,5
 754 773 754 773 731 790 c 0,6,7
 692 818 692 818 671.5 825 c 128,-1,8
 651 832 651 832 640 832 c 2,9,-1
 272 832 l 2,10,11
 239 832 239 832 215.5 808.5 c 128,-1,12
 192 785 192 785 192 752 c 2,13,-1
 192 16 l 2,14,15
 192 -17 192 -17 215.5 -40.5 c 128,-1,16
 239 -64 239 -64 272 -64 c 2,17,-1
 880 -64 l 2,18,19
 913 -64 913 -64 936.5 -40.5 c 128,-1,20
 960 -17 960 -17 960 16 c 2,21,-1
 960 512 l 2,22,23
 960 523 960 523 953 543.5 c 128,-1,24
 946 564 946 564 918 603 c 1,25,-1
 918 603 l 1,0,1
785 657 m 1,26,27
 808 634 808 634 826.5 613.5 c 128,-1,28
 845 593 845 593 858 576 c 1,29,-1
 704 576 l 1,30,-1
 704 730 l 1,31,32
 721 717 721 717 741.5 698.5 c 128,-1,33
 762 680 762 680 785 657 c 1,34,-1
 785 657 l 1,35,-1
 785 657 l 1,26,27
896 16 m 1,36,37
 896 9 896 9 891.5 4.5 c 128,-1,38
 887 0 887 0 880 0 c 2,39,-1
 272 0 l 2,40,41
 265 0 265 0 260.5 4.5 c 128,-1,42
 256 9 256 9 256 16 c 2,43,-1
 256 752 l 2,44,45
 256 759 256 759 260.5 763.5 c 128,-1,46
 265 768 265 768 272 768 c 2,47,48
 272 768 272 768 329.5 768 c 128,-1,49
 387 768 387 768 456 768 c 128,-1,50
 525 768 525 768 582.5 768 c 128,-1,51
 640 768 640 768 640 768 c 1,52,-1
 640 544 l 2,53,54
 640 531 640 531 649.5 521.5 c 128,-1,55
 659 512 659 512 672 512 c 2,56,-1
 896 512 l 1,57,-1
 896 16 l 1,58,-1
 896 16 l 1,36,37
603 918 m 1,59,60
 564 946 564 946 543.5 953 c 128,-1,61
 523 960 523 960 512 960 c 2,62,-1
 144 960 l 2,63,64
 111 960 111 960 87.5 936.5 c 128,-1,65
 64 913 64 913 64 880 c 2,66,-1
 64 144 l 2,67,68
 64 115 64 115 82.5 93 c 128,-1,69
 101 71 101 71 128 66 c 1,70,-1
 128 880 l 2,71,72
 128 887 128 887 132.5 891.5 c 128,-1,73
 137 896 137 896 144 896 c 2,74,-1
 631 896 l 1,75,76
 624 902 624 902 617 907.5 c 128,-1,77
 610 913 610 913 603 918 c 1,78,-1
 603 918 l 1,59,60
EndSplineSet
Ligature2: "'liga' Ligaduras est+AOEA-ndar in Latin lookup 0 subtable" f i l e s
Ligature2: "'liga' Ligaduras est+AOEA-ndar in Latin lookup 0 subtable" f i l e s hyphen e m p t y
EndChar

StartChar: uniE926
Encoding: 59686 59686 137
Width: 1024
Flags: W
LayerCount: 2
Fore
SplineSet
918 731 m 1,0,1
 901 754 901 754 878.5 779.5 c 128,-1,2
 856 805 856 805 831 831 c 0,3,4
 805 856 805 856 779.5 878.5 c 128,-1,5
 754 901 754 901 731 918 c 0,6,7
 692 946 692 946 671.5 953 c 128,-1,8
 651 960 651 960 640 960 c 2,9,-1
 144 960 l 2,10,11
 111 960 111 960 87.5 936.5 c 128,-1,12
 64 913 64 913 64 880 c 2,13,-1
 64 16 l 2,14,15
 64 -17 64 -17 87.5 -40.5 c 128,-1,16
 111 -64 111 -64 144 -64 c 2,17,-1
 880 -64 l 2,18,19
 913 -64 913 -64 936.5 -40.5 c 128,-1,20
 960 -17 960 -17 960 16 c 2,21,-1
 960 640 l 2,22,23
 960 651 960 651 953 671.5 c 128,-1,24
 946 692 946 692 918 731 c 1,25,-1
 918 731 l 1,0,1
785 785 m 1,26,27
 808 762 808 762 826.5 741.5 c 128,-1,28
 845 721 845 721 858 704 c 1,29,-1
 704 704 l 1,30,-1
 704 858 l 1,31,32
 721 845 721 845 741.5 826.5 c 128,-1,33
 762 808 762 808 785 785 c 1,34,-1
 785 785 l 1,26,27
896 16 m 1,35,36
 896 9 896 9 891.5 4.5 c 128,-1,37
 887 0 887 0 880 0 c 2,38,-1
 144 0 l 2,39,40
 137 0 137 0 132.5 4.5 c 128,-1,41
 128 9 128 9 128 16 c 2,42,-1
 128 880 l 2,43,44
 128 887 128 887 132.5 891.5 c 128,-1,45
 137 896 137 896 144 896 c 2,46,47
 144 896 144 896 221.5 896 c 128,-1,48
 299 896 299 896 392 896 c 128,-1,49
 485 896 485 896 562.5 896 c 128,-1,50
 640 896 640 896 640 896 c 1,51,-1
 640 672 l 2,52,53
 640 659 640 659 649.5 649.5 c 128,-1,54
 659 640 659 640 672 640 c 2,55,-1
 896 640 l 1,56,-1
 896 16 l 1,57,-1
 896 16 l 1,35,36
736 128 m 1,58,-1
 288 128 l 2,59,60
 275 128 275 128 265.5 137.5 c 128,-1,61
 256 147 256 147 256 160 c 256,62,63
 256 173 256 173 265.5 182.5 c 128,-1,64
 275 192 275 192 288 192 c 2,65,-1
 736 192 l 2,66,67
 749 192 749 192 758.5 182.5 c 128,-1,68
 768 173 768 173 768 160 c 256,69,70
 768 147 768 147 758.5 137.5 c 128,-1,71
 749 128 749 128 736 128 c 1,72,-1
 736 128 l 1,58,-1
736 256 m 1,73,-1
 288 256 l 2,74,75
 275 256 275 256 265.5 265.5 c 128,-1,76
 256 275 256 275 256 288 c 256,77,78
 256 301 256 301 265.5 310.5 c 128,-1,79
 275 320 275 320 288 320 c 2,80,-1
 736 320 l 2,81,82
 749 320 749 320 758.5 310.5 c 128,-1,83
 768 301 768 301 768 288 c 256,84,85
 768 275 768 275 758.5 265.5 c 128,-1,86
 749 256 749 256 736 256 c 1,87,-1
 736 256 l 1,73,-1
736 384 m 1,88,-1
 288 384 l 2,89,90
 275 384 275 384 265.5 393.5 c 128,-1,91
 256 403 256 403 256 416 c 256,92,93
 256 429 256 429 265.5 438.5 c 128,-1,94
 275 448 275 448 288 448 c 2,95,-1
 736 448 l 2,96,97
 749 448 749 448 758.5 438.5 c 128,-1,98
 768 429 768 429 768 416 c 256,99,100
 768 403 768 403 758.5 393.5 c 128,-1,101
 749 384 749 384 736 384 c 1,102,-1
 736 384 l 1,88,-1
EndSplineSet
Ligature2: "'liga' Ligaduras est+AOEA-ndar in Latin lookup 0 subtable" f i l e hyphen t e x t two
Ligature2: "'liga' Ligaduras est+AOEA-ndar in Latin lookup 0 subtable" f i l e four
EndChar

StartChar: uniE927
Encoding: 59687 59687 138
Width: 1024
Flags: W
LayerCount: 2
Fore
SplineSet
832 64 m 1,0,-1
 192 64 l 1,1,-1
 192 192 l 1,2,-1
 384 512 l 1,3,-1
 647 192 l 1,4,-1
 832 320 l 1,5,-1
 832 64 l 1,6,-1
 832 64 l 1,0,-1
832 480 m 1,7,8
 832 440 832 440 804 412 c 128,-1,9
 776 384 776 384 736 384 c 256,10,11
 696 384 696 384 668 412 c 128,-1,12
 640 440 640 440 640 480 c 256,13,14
 640 520 640 520 668 548 c 128,-1,15
 696 576 696 576 736 576 c 256,16,17
 776 576 776 576 804 548 c 128,-1,18
 832 520 832 520 832 480 c 1,19,-1
 832 480 l 1,7,8
918 731 m 1,20,21
 901 754 901 754 878.5 779.5 c 128,-1,22
 856 805 856 805 831 831 c 0,23,24
 805 856 805 856 779.5 878.5 c 128,-1,25
 754 901 754 901 731 918 c 0,26,27
 692 946 692 946 671.5 953 c 128,-1,28
 651 960 651 960 640 960 c 2,29,-1
 144 960 l 2,30,31
 111 960 111 960 87.5 936.5 c 128,-1,32
 64 913 64 913 64 880 c 2,33,-1
 64 16 l 2,34,35
 64 -17 64 -17 87.5 -40.5 c 128,-1,36
 111 -64 111 -64 144 -64 c 2,37,-1
 880 -64 l 2,38,39
 913 -64 913 -64 936.5 -40.5 c 128,-1,40
 960 -17 960 -17 960 16 c 2,41,-1
 960 640 l 2,42,43
 960 651 960 651 953 671.5 c 128,-1,44
 946 692 946 692 918 731 c 1,45,-1
 918 731 l 1,20,21
785 785 m 1,46,47
 808 762 808 762 826.5 741.5 c 128,-1,48
 845 721 845 721 858 704 c 1,49,-1
 704 704 l 1,50,-1
 704 858 l 1,51,52
 721 845 721 845 741.5 826.5 c 128,-1,53
 762 808 762 808 785 785 c 1,54,-1
 785 785 l 1,46,47
896 16 m 1,55,56
 896 9 896 9 891.5 4.5 c 128,-1,57
 887 0 887 0 880 0 c 2,58,-1
 144 0 l 2,59,60
 137 0 137 0 132.5 4.5 c 128,-1,61
 128 9 128 9 128 16 c 2,62,-1
 128 880 l 2,63,64
 128 887 128 887 132.5 891.5 c 128,-1,65
 137 896 137 896 144 896 c 2,66,67
 144 896 144 896 221.5 896 c 128,-1,68
 299 896 299 896 392 896 c 128,-1,69
 485 896 485 896 562.5 896 c 128,-1,70
 640 896 640 896 640 896 c 1,71,-1
 640 672 l 2,72,73
 640 659 640 659 649.5 649.5 c 128,-1,74
 659 640 659 640 672 640 c 2,75,-1
 896 640 l 1,76,-1
 896 16 l 1,77,-1
 896 16 l 1,55,56
EndSplineSet
Ligature2: "'liga' Ligaduras est+AOEA-ndar in Latin lookup 0 subtable" f i l e hyphen p i c t u r e
Ligature2: "'liga' Ligaduras est+AOEA-ndar in Latin lookup 0 subtable" f i l e five
EndChar

StartChar: uniE928
Encoding: 59688 59688 139
Width: 1024
Flags: W
LayerCount: 2
Fore
SplineSet
918 731 m 1,0,1
 901 754 901 754 878.5 779.5 c 128,-1,2
 856 805 856 805 831 831 c 0,3,4
 805 856 805 856 779.5 878.5 c 128,-1,5
 754 901 754 901 731 918 c 0,6,7
 692 946 692 946 671.5 953 c 128,-1,8
 651 960 651 960 640 960 c 2,9,-1
 144 960 l 2,10,11
 111 960 111 960 87.5 936.5 c 128,-1,12
 64 913 64 913 64 880 c 2,13,-1
 64 16 l 2,14,15
 64 -17 64 -17 87.5 -40.5 c 128,-1,16
 111 -64 111 -64 144 -64 c 2,17,-1
 880 -64 l 2,18,19
 913 -64 913 -64 936.5 -40.5 c 128,-1,20
 960 -17 960 -17 960 16 c 2,21,-1
 960 640 l 2,22,23
 960 651 960 651 953 671.5 c 128,-1,24
 946 692 946 692 918 731 c 1,25,-1
 918 731 l 1,26,-1
 918 731 l 1,0,1
785 785 m 1,27,28
 808 762 808 762 826.5 741.5 c 128,-1,29
 845 721 845 721 858 704 c 1,30,-1
 704 704 l 1,31,-1
 704 858 l 1,32,33
 721 845 721 845 741.5 826.5 c 128,-1,34
 762 808 762 808 785 785 c 1,35,-1
 785 785 l 1,36,-1
 785 785 l 1,27,28
896 16 m 1,37,38
 896 9 896 9 891.5 4.5 c 128,-1,39
 887 0 887 0 880 0 c 2,40,-1
 144 0 l 2,41,42
 137 0 137 0 132.5 4.5 c 128,-1,43
 128 9 128 9 128 16 c 2,44,-1
 128 880 l 2,45,46
 128 887 128 887 132.5 891.5 c 128,-1,47
 137 896 137 896 144 896 c 2,48,49
 144 896 144 896 221.5 896 c 128,-1,50
 299 896 299 896 392 896 c 128,-1,51
 485 896 485 896 562.5 896 c 128,-1,52
 640 896 640 896 640 896 c 1,53,-1
 640 672 l 2,54,55
 640 659 640 659 649.5 649.5 c 128,-1,56
 659 640 659 640 672 640 c 2,57,-1
 896 640 l 1,58,-1
 896 16 l 1,59,-1
 896 16 l 1,37,38
756 569 m 1,60,61
 751 573 751 573 744 575 c 128,-1,62
 737 577 737 577 730 575 c 2,63,-1
 410 511 l 2,64,65
 399 509 399 509 391.5 500 c 128,-1,66
 384 491 384 491 384 480 c 2,67,-1
 384 243 l 1,68,69
 370 249 370 249 353.5 252.5 c 128,-1,70
 337 256 337 256 320 256 c 0,71,72
 267 256 267 256 229.5 228 c 128,-1,73
 192 200 192 200 192 160 c 256,74,75
 192 120 192 120 229.5 92 c 128,-1,76
 267 64 267 64 320 64 c 256,77,78
 373 64 373 64 410.5 92 c 128,-1,79
 448 120 448 120 448 160 c 2,80,-1
 448 390 l 1,81,-1
 704 441 l 1,82,-1
 704 307 l 1,83,84
 690 313 690 313 673.5 316.5 c 128,-1,85
 657 320 657 320 640 320 c 0,86,87
 587 320 587 320 549.5 292 c 128,-1,88
 512 264 512 264 512 224 c 256,89,90
 512 184 512 184 549.5 156 c 128,-1,91
 587 128 587 128 640 128 c 256,92,93
 693 128 693 128 730.5 156 c 128,-1,94
 768 184 768 184 768 224 c 2,95,-1
 768 544 l 2,96,97
 768 551 768 551 765 557.5 c 128,-1,98
 762 564 762 564 756 569 c 1,99,-1
 756 569 l 1,60,61
EndSplineSet
Ligature2: "'liga' Ligaduras est+AOEA-ndar in Latin lookup 0 subtable" f i l e hyphen m u s i c
Ligature2: "'liga' Ligaduras est+AOEA-ndar in Latin lookup 0 subtable" f i l e six
EndChar

StartChar: uniE929
Encoding: 59689 59689 140
Width: 1024
Flags: W
LayerCount: 2
Fore
SplineSet
384 576 m 1,0,-1
 704 352 l 1,1,-1
 384 128 l 1,2,-1
 384 576 l 1,3,-1
 384 576 l 1,0,-1
918 731 m 1,4,5
 901 754 901 754 878.5 779.5 c 128,-1,6
 856 805 856 805 831 831 c 0,7,8
 805 856 805 856 779.5 878.5 c 128,-1,9
 754 901 754 901 731 918 c 0,10,11
 692 946 692 946 671.5 953 c 128,-1,12
 651 960 651 960 640 960 c 2,13,-1
 144 960 l 2,14,15
 111 960 111 960 87.5 936.5 c 128,-1,16
 64 913 64 913 64 880 c 2,17,-1
 64 16 l 2,18,19
 64 -17 64 -17 87.5 -40.5 c 128,-1,20
 111 -64 111 -64 144 -64 c 2,21,-1
 880 -64 l 2,22,23
 913 -64 913 -64 936.5 -40.5 c 128,-1,24
 960 -17 960 -17 960 16 c 2,25,-1
 960 640 l 2,26,27
 960 651 960 651 953 671.5 c 128,-1,28
 946 692 946 692 918 731 c 1,29,-1
 918 731 l 1,4,5
785 785 m 1,30,31
 808 762 808 762 826.5 741.5 c 128,-1,32
 845 721 845 721 858 704 c 1,33,-1
 704 704 l 1,34,-1
 704 858 l 1,35,36
 721 845 721 845 741.5 826.5 c 128,-1,37
 762 808 762 808 785 785 c 1,38,-1
 785 785 l 1,30,31
896 16 m 1,39,40
 896 9 896 9 891.5 4.5 c 128,-1,41
 887 0 887 0 880 0 c 2,42,-1
 144 0 l 2,43,44
 137 0 137 0 132.5 4.5 c 128,-1,45
 128 9 128 9 128 16 c 2,46,-1
 128 880 l 2,47,48
 128 887 128 887 132.5 891.5 c 128,-1,49
 137 896 137 896 144 896 c 2,50,51
 144 896 144 896 221.5 896 c 128,-1,52
 299 896 299 896 392 896 c 128,-1,53
 485 896 485 896 562.5 896 c 128,-1,54
 640 896 640 896 640 896 c 1,55,-1
 640 672 l 2,56,57
 640 659 640 659 649.5 649.5 c 128,-1,58
 659 640 659 640 672 640 c 2,59,-1
 896 640 l 1,60,-1
 896 16 l 1,61,-1
 896 16 l 1,39,40
EndSplineSet
Ligature2: "'liga' Ligaduras est+AOEA-ndar in Latin lookup 0 subtable" f i l e hyphen p l a y
Ligature2: "'liga' Ligaduras est+AOEA-ndar in Latin lookup 0 subtable" f i l e seven
EndChar

StartChar: uniE92A
Encoding: 59690 59690 141
Width: 1024
Flags: W
LayerCount: 2
Fore
SplineSet
918 731 m 1,0,1
 901 754 901 754 878.5 779.5 c 128,-1,2
 856 805 856 805 831 831 c 0,3,4
 805 856 805 856 779.5 878.5 c 128,-1,5
 754 901 754 901 731 918 c 0,6,7
 692 946 692 946 671.5 953 c 128,-1,8
 651 960 651 960 640 960 c 2,9,-1
 144 960 l 2,10,11
 111 960 111 960 87.5 936.5 c 128,-1,12
 64 913 64 913 64 880 c 2,13,-1
 64 16 l 2,14,15
 64 -17 64 -17 87.5 -40.5 c 128,-1,16
 111 -64 111 -64 144 -64 c 2,17,-1
 880 -64 l 2,18,19
 913 -64 913 -64 936.5 -40.5 c 128,-1,20
 960 -17 960 -17 960 16 c 2,21,-1
 960 640 l 2,22,23
 960 651 960 651 953 671.5 c 128,-1,24
 946 692 946 692 918 731 c 1,25,-1
 918 731 l 1,26,-1
 918 731 l 1,27,-1
 918 731 l 1,0,1
785 785 m 1,28,29
 808 762 808 762 826.5 741.5 c 128,-1,30
 845 721 845 721 858 704 c 1,31,-1
 704 704 l 1,32,-1
 704 858 l 1,33,34
 721 845 721 845 741.5 826.5 c 128,-1,35
 762 808 762 808 785 785 c 1,36,-1
 785 785 l 1,37,-1
 785 785 l 1,38,-1
 785 785 l 1,28,29
896 16 m 1,39,40
 896 9 896 9 891.5 4.5 c 128,-1,41
 887 0 887 0 880 0 c 2,42,-1
 144 0 l 2,43,44
 137 0 137 0 132.5 4.5 c 128,-1,45
 128 9 128 9 128 16 c 2,46,-1
 128 880 l 2,47,48
 128 887 128 887 132.5 891.5 c 128,-1,49
 137 896 137 896 144 896 c 2,50,51
 144 896 144 896 221.5 896 c 128,-1,52
 299 896 299 896 392 896 c 128,-1,53
 485 896 485 896 562.5 896 c 128,-1,54
 640 896 640 896 640 896 c 1,55,-1
 640 672 l 2,56,57
 640 659 640 659 649.5 649.5 c 128,-1,58
 659 640 659 640 672 640 c 2,59,-1
 896 640 l 1,60,-1
 896 16 l 1,61,-1
 896 16 l 1,39,40
256 448 m 1,62,-1
 576 448 l 1,63,-1
 576 128 l 1,64,-1
 256 128 l 1,65,-1
 256 448 l 1,66,-1
 256 448 l 1,62,-1
576 320 m 1,67,-1
 768 448 l 1,68,-1
 768 128 l 1,69,-1
 576 256 l 1,70,-1
 576 320 l 1,67,-1
EndSplineSet
Ligature2: "'liga' Ligaduras est+AOEA-ndar in Latin lookup 0 subtable" f i l e hyphen v i d e o
Ligature2: "'liga' Ligaduras est+AOEA-ndar in Latin lookup 0 subtable" f i l e eight
EndChar

StartChar: uniE92B
Encoding: 59691 59691 142
Width: 1024
Flags: W
LayerCount: 2
Fore
SplineSet
918 731 m 1,0,1
 901 754 901 754 878.5 779.5 c 128,-1,2
 856 805 856 805 831 831 c 0,3,4
 805 856 805 856 779.5 878.5 c 128,-1,5
 754 901 754 901 731 918 c 0,6,7
 692 946 692 946 671.5 953 c 128,-1,8
 651 960 651 960 640 960 c 2,9,-1
 144 960 l 2,10,11
 111 960 111 960 87.5 936.5 c 128,-1,12
 64 913 64 913 64 880 c 2,13,-1
 64 16 l 2,14,15
 64 -17 64 -17 87.5 -40.5 c 128,-1,16
 111 -64 111 -64 144 -64 c 2,17,-1
 880 -64 l 2,18,19
 913 -64 913 -64 936.5 -40.5 c 128,-1,20
 960 -17 960 -17 960 16 c 2,21,-1
 960 640 l 2,22,23
 960 651 960 651 953 671.5 c 128,-1,24
 946 692 946 692 918 731 c 1,25,-1
 918 731 l 1,26,-1
 918 731 l 1,27,-1
 918 731 l 1,0,1
785 785 m 1,28,29
 808 762 808 762 826.5 741.5 c 128,-1,30
 845 721 845 721 858 704 c 1,31,-1
 704 704 l 1,32,-1
 704 858 l 1,33,34
 721 845 721 845 741.5 826.5 c 128,-1,35
 762 808 762 808 785 785 c 1,36,-1
 785 785 l 1,37,-1
 785 785 l 1,38,-1
 785 785 l 1,28,29
896 16 m 1,39,40
 896 9 896 9 891.5 4.5 c 128,-1,41
 887 0 887 0 880 0 c 2,42,-1
 144 0 l 2,43,44
 137 0 137 0 132.5 4.5 c 128,-1,45
 128 9 128 9 128 16 c 2,46,-1
 128 880 l 2,47,48
 128 887 128 887 132.5 891.5 c 128,-1,49
 137 896 137 896 144 896 c 2,50,51
 144 896 144 896 221.5 896 c 128,-1,52
 299 896 299 896 392 896 c 128,-1,53
 485 896 485 896 562.5 896 c 128,-1,54
 640 896 640 896 640 896 c 1,55,-1
 640 672 l 2,56,57
 640 659 640 659 649.5 649.5 c 128,-1,58
 659 640 659 640 672 640 c 2,59,-1
 896 640 l 1,60,-1
 896 16 l 1,61,-1
 896 16 l 1,39,40
256 896 m 1,62,-1
 384 896 l 1,63,-1
 384 832 l 1,64,-1
 256 832 l 1,65,-1
 256 896 l 1,66,-1
 256 896 l 1,62,-1
384 832 m 1,67,-1
 512 832 l 1,68,-1
 512 768 l 1,69,-1
 384 768 l 1,70,-1
 384 832 l 1,71,-1
 384 832 l 1,67,-1
256 768 m 1,72,-1
 384 768 l 1,73,-1
 384 704 l 1,74,-1
 256 704 l 1,75,-1
 256 768 l 1,76,-1
 256 768 l 1,72,-1
384 704 m 1,77,-1
 512 704 l 1,78,-1
 512 640 l 1,79,-1
 384 640 l 1,80,-1
 384 704 l 1,81,-1
 384 704 l 1,77,-1
256 640 m 1,82,-1
 384 640 l 1,83,-1
 384 576 l 1,84,-1
 256 576 l 1,85,-1
 256 640 l 1,86,-1
 256 640 l 1,82,-1
384 576 m 1,87,-1
 512 576 l 1,88,-1
 512 512 l 1,89,-1
 384 512 l 1,90,-1
 384 576 l 1,91,-1
 384 576 l 1,87,-1
256 512 m 1,92,-1
 384 512 l 1,93,-1
 384 448 l 1,94,-1
 256 448 l 1,95,-1
 256 512 l 1,96,-1
 256 512 l 1,92,-1
384 448 m 1,97,-1
 512 448 l 1,98,-1
 512 384 l 1,99,-1
 384 384 l 1,100,-1
 384 448 l 1,101,-1
 384 448 l 1,97,-1
256 112 m 1,102,103
 256 92 256 92 270 78 c 128,-1,104
 284 64 284 64 304 64 c 2,105,-1
 464 64 l 2,106,107
 484 64 484 64 498 78 c 128,-1,108
 512 92 512 92 512 112 c 2,109,-1
 512 272 l 2,110,111
 512 292 512 292 498 306 c 128,-1,112
 484 320 484 320 464 320 c 2,113,-1
 384 320 l 1,114,-1
 384 384 l 1,115,-1
 256 384 l 1,116,-1
 256 112 l 1,117,-1
 256 112 l 1,102,103
448 192 m 1,118,-1
 448 128 l 1,119,-1
 320 128 l 1,120,-1
 320 192 l 1,121,-1
 448 192 l 1,122,-1
 448 192 l 1,118,-1
EndSplineSet
Ligature2: "'liga' Ligaduras est+AOEA-ndar in Latin lookup 0 subtable" f i l e hyphen z i p
Ligature2: "'liga' Ligaduras est+AOEA-ndar in Latin lookup 0 subtable" f i l e nine
EndChar

StartChar: uniE92C
Encoding: 59692 59692 143
Width: 1024
Flags: W
LayerCount: 2
Fore
SplineSet
640 704 m 1,0,-1
 640 960 l 1,1,-1
 192 960 l 1,2,-1
 0 768 l 1,3,-1
 0 192 l 1,4,-1
 384 192 l 1,5,-1
 384 -64 l 1,6,-1
 1024 -64 l 1,7,-1
 1024 704 l 1,8,-1
 640 704 l 1,9,-1
 640 704 l 1,0,-1
192 869 m 1,10,-1
 192 768 l 1,11,-1
 91 768 l 1,12,-1
 192 869 l 1,13,-1
 192 869 l 1,10,-1
64 256 m 1,14,-1
 64 704 l 1,15,-1
 256 704 l 1,16,-1
 256 896 l 1,17,-1
 576 896 l 1,18,-1
 576 704 l 1,19,-1
 384 512 l 1,20,-1
 384 256 l 1,21,-1
 64 256 l 1,22,-1
 64 256 l 1,14,-1
576 613 m 1,23,-1
 576 512 l 1,24,-1
 475 512 l 1,25,-1
 576 613 l 1,26,-1
 576 613 l 1,23,-1
960 0 m 1,27,-1
 448 0 l 1,28,-1
 448 448 l 1,29,-1
 640 448 l 1,30,-1
 640 640 l 1,31,-1
 960 640 l 1,32,-1
 960 0 l 1,33,-1
 960 0 l 1,27,-1
EndSplineSet
Ligature2: "'liga' Ligaduras est+AOEA-ndar in Latin lookup 0 subtable" d u p l i c a t e
Ligature2: "'liga' Ligaduras est+AOEA-ndar in Latin lookup 0 subtable" c o p y
EndChar

StartChar: uniE92D
Encoding: 59693 59693 144
Width: 1024
Flags: W
LayerCount: 2
Fore
SplineSet
704 832 m 1,0,-1
 576 832 l 1,1,-1
 576 896 l 2,2,3
 576 922 576 922 557 941 c 128,-1,4
 538 960 538 960 512 960 c 2,5,-1
 384 960 l 2,6,7
 358 960 358 960 339 941 c 128,-1,8
 320 922 320 922 320 896 c 2,9,-1
 320 832 l 1,10,-1
 192 832 l 1,11,-1
 192 704 l 1,12,-1
 704 704 l 1,13,-1
 704 832 l 1,14,-1
 704 832 l 1,0,-1
512 832 m 1,15,-1
 384 832 l 1,16,-1
 384 896 l 1,17,18
 384 896 384 896 384 896 c 129,-1,19
 384 896 384 896 384 896 c 1,20,-1
 512 896 l 1,21,22
 512 896 512 896 512 896 c 129,-1,23
 512 896 512 896 512 896 c 1,24,-1
 512 832 l 1,25,-1
 512 832 l 1,15,-1
832 640 m 1,26,-1
 832 800 l 2,27,28
 832 813 832 813 822.5 822.5 c 128,-1,29
 813 832 813 832 800 832 c 2,30,-1
 736 832 l 1,31,-1
 736 768 l 1,32,-1
 768 768 l 1,33,-1
 768 640 l 1,34,-1
 576 640 l 1,35,-1
 384 448 l 1,36,-1
 384 192 l 1,37,-1
 128 192 l 1,38,-1
 128 768 l 1,39,-1
 160 768 l 1,40,-1
 160 832 l 1,41,-1
 96 832 l 2,42,43
 83 832 83 832 73.5 822.5 c 128,-1,44
 64 813 64 813 64 800 c 2,45,-1
 64 160 l 2,46,47
 64 147 64 147 73.5 137.5 c 128,-1,48
 83 128 83 128 96 128 c 2,49,-1
 384 128 l 1,50,-1
 384 -64 l 1,51,-1
 1024 -64 l 1,52,-1
 1024 640 l 1,53,-1
 832 640 l 1,54,-1
 832 640 l 1,26,-1
576 549 m 1,55,-1
 576 448 l 1,56,-1
 475 448 l 1,57,-1
 576 549 l 1,58,-1
 576 549 l 1,55,-1
960 0 m 1,59,-1
 448 0 l 1,60,-1
 448 384 l 1,61,-1
 640 384 l 1,62,-1
 640 576 l 1,63,-1
 960 576 l 1,64,-1
 960 0 l 1,65,-1
 960 0 l 1,59,-1
EndSplineSet
Ligature2: "'liga' Ligaduras est+AOEA-ndar in Latin lookup 0 subtable" p a s t e
Ligature2: "'liga' Ligaduras est+AOEA-ndar in Latin lookup 0 subtable" c l i p b o a r d hyphen f i l e
EndChar

StartChar: uniE92E
Encoding: 59694 59694 145
Width: 1024
Flags: W
LayerCount: 2
Fore
SplineSet
1024 640 m 1,0,-1
 512 896 l 1,1,-1
 0 640 l 1,2,-1
 512 384 l 1,3,-1
 1024 640 l 1,4,-1
 1024 640 l 1,0,-1
512 811 m 1,5,-1
 854 640 l 1,6,-1
 512 469 l 1,7,-1
 170 640 l 1,8,-1
 512 811 l 1,9,-1
 512 811 l 1,5,-1
921 499 m 1,10,-1
 1024 448 l 1,11,-1
 512 192 l 1,12,-1
 0 448 l 1,13,-1
 103 499 l 1,14,-1
 512 295 l 1,15,-1
 921 499 l 1,10,-1
921 307 m 1,16,-1
 1024 256 l 1,17,-1
 512 0 l 1,18,-1
 0 256 l 1,19,-1
 103 307 l 1,20,-1
 512 103 l 1,21,-1
 921 307 l 1,16,-1
EndSplineSet
Ligature2: "'liga' Ligaduras est+AOEA-ndar in Latin lookup 0 subtable" s t a c k
Ligature2: "'liga' Ligaduras est+AOEA-ndar in Latin lookup 0 subtable" l a y e r s
EndChar

StartChar: uniE92F
Encoding: 59695 59695 146
Width: 1024
Flags: W
LayerCount: 2
Fore
SplineSet
448 832 m 1,0,-1
 576 704 l 1,1,-1
 1024 704 l 1,2,-1
 1024 0 l 1,3,-1
 0 0 l 1,4,-1
 0 832 l 1,5,-1
 448 832 l 1,0,-1
EndSplineSet
Ligature2: "'liga' Ligaduras est+AOEA-ndar in Latin lookup 0 subtable" f o l d e r
Ligature2: "'liga' Ligaduras est+AOEA-ndar in Latin lookup 0 subtable" d i r e c t o r y
EndChar

StartChar: uniE930
Encoding: 59696 59696 147
Width: 1024
Flags: W
LayerCount: 2
Fore
SplineSet
832 0 m 1,0,-1
 1024 512 l 1,1,-1
 192 512 l 1,2,-1
 0 0 l 1,3,-1
 832 0 l 1,0,-1
128 576 m 1,4,-1
 0 0 l 1,5,-1
 0 832 l 1,6,-1
 288 832 l 1,7,-1
 416 704 l 1,8,-1
 832 704 l 1,9,-1
 832 576 l 1,10,-1
 128 576 l 1,4,-1
EndSplineSet
Ligature2: "'liga' Ligaduras est+AOEA-ndar in Latin lookup 0 subtable" f o l d e r hyphen o p e n
Ligature2: "'liga' Ligaduras est+AOEA-ndar in Latin lookup 0 subtable" d i r e c t o r y two
EndChar

StartChar: uniE931
Encoding: 59697 59697 148
Width: 1024
Flags: W
LayerCount: 2
Fore
SplineSet
576 704 m 1,0,-1
 448 832 l 1,1,-1
 0 832 l 1,2,-1
 0 0 l 1,3,-1
 1024 0 l 1,4,-1
 1024 704 l 1,5,-1
 576 704 l 1,6,-1
 576 704 l 1,0,-1
704 256 m 1,7,-1
 576 256 l 1,8,-1
 576 128 l 1,9,-1
 448 128 l 1,10,-1
 448 256 l 1,11,-1
 320 256 l 1,12,-1
 320 384 l 1,13,-1
 448 384 l 1,14,-1
 448 512 l 1,15,-1
 576 512 l 1,16,-1
 576 384 l 1,17,-1
 704 384 l 1,18,-1
 704 256 l 1,19,-1
 704 256 l 1,7,-1
EndSplineSet
Ligature2: "'liga' Ligaduras est+AOEA-ndar in Latin lookup 0 subtable" f o l d e r hyphen p l u s
Ligature2: "'liga' Ligaduras est+AOEA-ndar in Latin lookup 0 subtable" d i r e c t o r y three
EndChar

StartChar: uniE932
Encoding: 59698 59698 149
Width: 1024
Flags: W
LayerCount: 2
Fore
SplineSet
576 704 m 1,0,-1
 448 832 l 1,1,-1
 0 832 l 1,2,-1
 0 0 l 1,3,-1
 1024 0 l 1,4,-1
 1024 704 l 1,5,-1
 576 704 l 1,6,-1
 576 704 l 1,0,-1
704 256 m 1,7,-1
 320 256 l 1,8,-1
 320 384 l 1,9,-1
 704 384 l 1,10,-1
 704 256 l 1,11,-1
 704 256 l 1,7,-1
EndSplineSet
Ligature2: "'liga' Ligaduras est+AOEA-ndar in Latin lookup 0 subtable" f o l d e r hyphen m i n u s
Ligature2: "'liga' Ligaduras est+AOEA-ndar in Latin lookup 0 subtable" d i r e c t o r y four
EndChar

StartChar: uniE933
Encoding: 59699 59699 150
Width: 1024
Flags: W
LayerCount: 2
Fore
SplineSet
576 704 m 1,0,-1
 448 832 l 1,1,-1
 0 832 l 1,2,-1
 0 0 l 1,3,-1
 1024 0 l 1,4,-1
 1024 704 l 1,5,-1
 576 704 l 1,6,-1
 576 704 l 1,0,-1
512 96 m 1,7,-1
 288 320 l 1,8,-1
 448 320 l 1,9,-1
 448 576 l 1,10,-1
 576 576 l 1,11,-1
 576 320 l 1,12,-1
 736 320 l 1,13,-1
 512 96 l 1,14,-1
 512 96 l 1,7,-1
EndSplineSet
Ligature2: "'liga' Ligaduras est+AOEA-ndar in Latin lookup 0 subtable" f o l d e r hyphen d o w n l o a d
Ligature2: "'liga' Ligaduras est+AOEA-ndar in Latin lookup 0 subtable" d i r e c t o r y five
EndChar

StartChar: uniE934
Encoding: 59700 59700 151
Width: 1024
Flags: W
LayerCount: 2
Fore
SplineSet
576 704 m 1,0,-1
 448 832 l 1,1,-1
 0 832 l 1,2,-1
 0 0 l 1,3,-1
 1024 0 l 1,4,-1
 1024 704 l 1,5,-1
 576 704 l 1,6,-1
 576 704 l 1,0,-1
512 480 m 1,7,-1
 736 256 l 1,8,-1
 576 256 l 1,9,-1
 576 0 l 1,10,-1
 448 0 l 1,11,-1
 448 256 l 1,12,-1
 288 256 l 1,13,-1
 512 480 l 1,14,-1
 512 480 l 1,7,-1
EndSplineSet
Ligature2: "'liga' Ligaduras est+AOEA-ndar in Latin lookup 0 subtable" f o l d e r hyphen u p l o a d
Ligature2: "'liga' Ligaduras est+AOEA-ndar in Latin lookup 0 subtable" d i r e c t o r y six
EndChar

